<mxfile host="app.diagrams.net" modified="2023-08-10T11:08:37.271Z" agent="Mozilla/5.0 (X11; Linux x86_64; rv:109.0) Gecko/20100101 Firefox/111.0" etag="RLUSQn144oz77uBvCkJg" version="21.6.7" type="device">
  <diagram name="Page-1" id="N8HfOL9K4ZcKoRJyZOxO">
    <mxGraphModel dx="927" dy="435" grid="1" gridSize="10" guides="1" tooltips="1" connect="1" arrows="1" fold="1" page="1" pageScale="1" pageWidth="1200" pageHeight="1600" math="1" shadow="0">
      <root>
        <mxCell id="0" />
        <mxCell id="1" parent="0" />
        <mxCell id="SthQR8cLq-xNoR6oxP_u-1" value="" style="shape=image;verticalLabelPosition=bottom;labelBackgroundColor=default;verticalAlign=top;aspect=fixed;imageAspect=0;image=data:image/png,iVBORw0KGgoAAAANSUhEUgAAAhcAAACNCAIAAACL2c8TAAAAA3NCSVQICAjb4U/gAAAgAElEQVR4Xu2dCbxNVfvHu65ZGZMiMjSYI0pEpjJWSIYmUklFKt5KMhcqIRo1UH9FsykyZCZTGVLk4nJNhWSew/97Pb3r3Z1x7332OWeffdf5+Pjcvdfaaz3rt4ZnrWc9Q9K5c+cu0D+NgEZAI6AR0AjYQiCTra/0RxoBjYBGQCOgEUhHQHMRPQ40AhoBjYBGwD4CmovYx05/qRHQCGgENAKai+gxoBHQCGgENAL2EdBcxD52+kuNgEZAI6AR0FxEjwGNgEZAI6ARsI+A5iL2sdNfagQ0AhoBjYDmInoMaAQ0AhoBjYB9BDKb+fTEiRMffPBBpkyZHn/88dD5R40aderUqQcffDBXrlyhc+pUjYBGQCOgEfAAAklhbddXrlx5//33t2zZ8umnn86XL1/oNh88eHD48OGfffbZ+PHjK1euHDqzU6knT56cN29e3rx5q1WrJmWmpqZu3LhRlX/llVeWKlVKHpctW3bgwAGVdOONN+bJk4fH06dPz507V6GRJUuWevXqSbbdu3evXr1afXLZZZdVrFhRHn/55ZedO3eqpAoVKhQuXJhHylmwYAHcVyXVqVMnW7ZsPB4+fPiHH35Q72vUqHHRRRfxSCv4hL8hSVJ9WkETaIgkLV++fP/+/aoQGk7zefz7779pxdmzZyUpa9astWvXhv3zuGfPnlWrVqlPLr300muvvVYe161bt337dpVUvnz5IkWKyCMkHT9+XP5OSkq6+eabs2fPzuPRo0cXLVqkPoFsGiKPaWlpv/32m0oqXrz4NddcI48//fTTn3/+qZKqVq1aoEABHiF7/vz5/C9JmTNnBq7k5GQeyc9X6pOCBQted9118kgt1KWSypQpU6xYMXmENiiUvyG7Zs2aOXPm5JG20CL1CS9r1aoljyAADirpiiuuKF26tDyCG+ipJAiADB7PnDkD2YwcSQJnxoyQ/ddff61YsUJ9QjNprDympKRs2bJFJQEOEMkjA4PhoZJuuummCy+8kEcZ4eo9XUC3yuOuXbvWrl2rki6//PJy5crJ45o1a/744w+VVKlSpUKFCvHI4GSQKLJ5c8sttwjZzN+lS5fyRnUNbWRyMZDAECRJYsAz7M3UyApwySWX+NdIXdDPFCOJyciUVKWxwtxwww3yyBRmCqikq6++ukSJEvIIkZCqkqpXr547d24eZRKp8c+MYyBJNh+gGOGMc0kCQFJVacxu5jiPAEX/UqYkMR4YFfI3PcUAo3BphcJNUo2t2Lx586ZNm1ThV111VcmSJeXRZy1SrQixFtGhdKsqzcxaRGZ6ULWCx7p169Kh/OGzFoEhNKjCLfwBUiF+QMDIGz16dIg8/klwEUYPs8U/KRpvZAQw7n/97w+Gx0xTv6eeekolMUaNSZ9//rkkMS45P6kklgn1yYgRI4yfNG/eXCW1bt3amPTKK69IEuOSAWdMYvGSpIkTJ8p7YSrwJ8Hk999/Z0SyQqnCu3fvbiyhS5cuKonONibBsyWJccm6o5IYZKyAkvTWW28ZP7nttttUaffcc48xafDgwSqJeauScuTIMWfOHEn69ttveVRJTEj1Sc+ePY2ldezYUSUxfI1JjCtFdv78+VXSxRdf/OOPP0rSe++9Z/zk1ltvVaV16NDBmNSnTx9JYo1jaTaS/d1330nSzJkzjZ8wpVVpAwYMMCY98MADKqlhw4bGJA7ckgR7Y5yrJCahIvv//u//jJ+w3KjSOnXqZEx6/vnnVRLrlzFp8uTJksRaZnzP0FKfvPzyy8aku+++WyXdcccdxqQ33nhDkhicDG+VRD/C8CSJ6SDDcsaMGTIsWWhoF8OAryTPoEGDjMUyeFSNt99+uzGJISdJLHxGoNi3LVmyRJLGjRtn/IS9iCqtc+fOxqRnnnlGJTFNjEnffPONJAEUGxqVBE9lMEjSkCFDjJ/cddddqrQ777zTmDR06FBJ+vnnnylBktgisD9Wyxc7MHBTrWDFM5bArk4V/uSTTxqTunXrppJYsoxJX375pSSxFrG/UUlApz6BBuMnLVq0UEk+a9Grr74qSSBQtGhR41cLFy6UpAkTJhjfw/XZSLGZs7pKhzqLwNIbNWrENopFygJfOp+V48uOHTtYdGT/YvVzS/lZfzkBMG8By9KH8c3MSQVgmZOy8WeXwerw7rvvqg1XfMnTtWdMBFhEYD/sdRo0aAACR44cYXz269cvZqIFd8L+9ddfw2zYBgl5HOw4TrGIu5Na21TBLNmhygHLfCGh7kUWL148e/Zs+K1/cYwtditbt27lMA6ybPHg7QgiVE62/0hmvv/+ezaP/p/rNyDALqB3795KdqQx0QhoBFyLQPv27ZVM0rVERk4YklgklkrEarLAUDpa7JRZ46pUqeJTFkISWDFcBAksPAZhNMIEIwshPxk4GXDQM0mHzqYR0Ai4AQF2owhhuIRwAzGahhgjMHbsWCSHVisNdRbhihJmINduqlwEL02bNuWyfeTIkUirOP4gRuQa0KdivuIIDI9BLCa3u1YpM5+fmxskmHv37jX/iQtzIv1Ezm68xXUhkZokzyPAbG3Xrp3ajXJZyK2JUfnC8wiYaeC0adOMKgZmPvFwnqBnEe70t23bJroKxvbDM1BOQE4qFx6i76T0c4w5kfIj8jLqBkQJR8Y993XR5lWOE3/s2DE0p5W6ToK2wnFYdIGuQoBpzu26z1bSVRTGhphhw4ah7KDq4g5f1JxiU7vLawnKRWAVWH6IIqZqA28++eQTrt3Ue04bjDOlLmlsLcoesBCjtqvLsTBPHtrP4INCnlJONf+tysm3aB8cOnTIxrf6E42ARkAQYJFRqr3Rw4Qpb1Q7jl5F9kpW6vj2Po/wq6BchK0x7MHnJIF6PiIX4y0TumKcVwKqFaFpTiEx2MWwmqOGCIcLgQXc7pFHHnn0/O+rr74KkdNM0vvvv79z167Roz9EMcxMfjN5aAVn5Bgc3cwQ44Y8aAz36tVLLRBoHw4eNIiX/OEG8rxKA9O2bdu2SqcG/NEK5dwcSXuPHTva+fHHmXoo76I3b7QZMhaLVif6lmYqYm+qrGT69umDgq+ZrxzMs2HDBqPZWYiS0Z39z3/+g5AQhSME7yFyWk3ati1t93kzpv1//XXvvfdG2EdSO3L1gIt5aNqCchGObChEc2Vv/J4+ZlSJJRHvEZiiEcj1u+iY+9TELhuhagzOfQxKrB+wDQzR1AMH9mO1N3zYcP5h8EFOOUYcPnSYaSMfsjxBs3rkJapoPkwe9Xl1/rj33vuYb1KUfKuWPPJQFIzN/GFl3759EGa0fgrRnIyQlJq6eUtq6sqV/1hK/rZ+/frffsOASdoOsJh6GQHnb3pHeAx/GPenPv3It/BselZZ3vGV+Z7yNvhAgbmfMn5kbULDlUUzklZzaP/9jz8QCqHXni9vXgyh1JJHRbJzol6MkObOnac6AlZBx6l6jdMTYTv3sswvXj7XowcWkZKNYo8c+cfaVCYm//tM6kgaor59+OGHsdwMW9S+fX+yE2Jef/zxx127PsEcl08Ye8am0WSGq7xRg5Oc0mTj/pi/JRv5v/lmwuJFi8ifN18+bJjErpZPmBenTv1jCcsjCxrj3FhdCLKxNxo4cGCIDAGTgt6uc4bAdMvnEIdpGAcUsdbmNpttBYpYqHPQkilTpgCW0ToEq0OSAjKYgKRE+2VycuYcOXOoWnDTUrJEiT179wLxa0OHYpXbv39/EKeD6XgM3xjxjD8kV5y9sBSjP4a8+urGTZtokWymONMgMsakhlMOimpw3Bw5cr788mCGOLdH2K+yiWN8P/vss9FumlfLb9S4EStL1arpWoKTJk/GqO2rr77mb/ahb775JmJVOqhv376Muueefa7AxQX+3Lu3ZKlSmZOT07Zt4+Vrr71G5pcHDz54vh+rVK36aKdOzORnn3k2e47szDr6EfVCbImxCZ2/YEGf3r29imTc20V3yDJ3f7t2WNUtWbK0evUbX3rpJdkNtG7dJvdFF2IwwLKDCuiQIa+OHzdu0eLFGC5gCsZeno0/d7GkMj05jw4bOpQL/y6du3T/T3fsFpu3aFGxQoV33n7713XrqOiSSwr17Pk8+9cHO3QoUbIkKxW1MBjEvj2WUGDqUL5CBWFyJUuW4h+r/5jRo5evWJE1S5aLcudmqQGWxx9/LH/+Aigu9ejRY8iQ17JmzYIriud79Bjw4ovovrKwsFhhOAHfQoeK/X3xEiWqVqkyf968LFmzYrbMCoOdNYyKEoAUu2MkRpxOuHpYtHAhEwd+zEypU6fugw92iEbzg3IRKsPUA1NJ2Lt0P2/wAYB5LcwD0RbXwjjXQl8LmxJ2KyymRhbCVxisYrdsfBmNBpgvc+HCBRvwzJGUzi0YmgcPHGjYqDFDuefzzzOsd+3cASdAx5HxymCdOHECLAF7ZjqgwwMP1Klb99SJE+yFkWUdPnSo06OPUu9pOP7pdDvPfX/uYzTAdGkvB1h6t0WLOxs2bICdasNGjYJRCKoYZts4PwYr0Hvva9euM3nSFNZ6egRxH6ascBEAh4U88UTX8uXLIVGcOHFS8+Z37N6zu3efPgULXty2bZtu3f7T4/nnnzhv6r9p48YcOXP2HzCA1Qdb9/r16ufNm2fnrp2MYfpr1Kh358yZCxeZO3dOrVr/+BTxHoyuahELAlKBPXt2T5s2FakGcp6dO3b855lnYAaNGzXKnSdvmzatkXlMnTaN5QVOgMsG5hQ+PCpUqNix48NsApCRPPvccxjtM31oGlevbP6WL1v267r1b7z5JtvB7t26zZs3v0GDW5nLTZo0wZKc1Rm3DpHYrsHJ8BNjFckd23cU/6/TFPmWDRDckaMDDBJ2iL0Eposs8U2a3ta8WTM26AzOkSNG4FXhozFjrilduuPDD3M0fPnlV1CXZdi//job98vhoGzfV69aVeyK4s2a3cE549ixdDdFb7/1VuPGjTEa5cgOa6l1883c3ALC66+/zi6KzS6sJVu2dN8nzv5CcRHENTjDQKcNi0KpFcbIIxfssDs8CsAwx4wZM2vWLLrKx7SVbQVn1fvuu89ZciMp7aaaNZ9+6ilKENOWzFmylC1bhsd8+fMfPXIkdXNq7TrphqnikCplQ8oN1aox4hmyDHq6DS6CGyv6Pn+BApxUjJQguCMPmTmtHz5yBPcS+LnKly/vnt27C16c7nAp4A8ycEsV+/1RQGLc+RJGW71G9ekzZiSnu/CqTV9AJ/vKbWlpH3/8EX3BZoXZxcuLLspdvPgVMJi8efOJ/yv6iOP/hpQN1apVl40wfcQxMW/eCiTBQnjJZq1Pn74tW965bt36557r4U4QvEcVIpdSV1614bf1G1JSWEnZnufOne7LTv3S0rayerCH483Zs2f+/vtM6ubNrVq35tFH30d9guSjYsUKHEN5U658ubRtafzBHMe7Gn/kz5fPpEjnf0T8+y+GmVVbPApgiB43ONPjzcaNKWXLlhM5P2730tK28ZLr4xrnHVjBAi8peIkY62zavJkjBUJd8EEHde+ePUhTChdOd/AV0EkH2fjk0cceI4PsTbkvSf+7ZEmWayg5z25xVReKi3BJwdENQ45/tz7MUyguwmzkJIVvKJibut5gF28U0eCWSnlPU1UxzxEHwUKUv7MwVESWDG3XX399WNEZV/0hLPtZzRFiCiFsbei23bv/ccCH1OviAhfv379PHMCReuK/Dgr9CWccbE5NRcuZHUSv3r2l1/2z+b+BNm6YMGj3T8rIb9hbvfjii8nJmdiOCQ70I2ybI7w4vuTl3r3/c5UI/sYf/ci2lzcwGORdPuy/ePESyAc++uij66pUERaVkaGWtnPsQ2VG3TTwyLB00EU3nfXz2rUdH3nk9107a9ep075dOyPmLB085r4o98UXF0RAryQZEyfm+fPP9EsF+pEff8BafDp6y9Z0zsGPxbdsuX88LRrzOPg3Iplg/MxYS4WKFT766OOHH3pIVidYoxqQQifNDEZVnty5r7uuClscycDic/z4MUQj9AVLEP3Ce4FLMjAvLrrwQu7b4TGwTPKwtQpWeLD3eJlEMOMkF6EmDhwcAzlU4lgtxBJspIlrBmY4jJFjVDBanX1Pd3JFEVYPj+tZOQKzD1UuURUliOBffHHg8eMnflu/7p577+O6Hh5w7txZRI3ccFSoUJ4jIUfsd955d+fOHYcMjlf923JpoULTp09njUMlg/NcMAdETAa20gAlli60Al946vbYv9iM+YatDAs9UmPcKIiuB/OneYvmnJLr16+P6INbK04hwcC5reltffr2BWSUL5CWsF01KgiBfKOGDUeMHDl06LBgJWS09yzciHaVEBvmiqzJ6KTZHiBcoXNZKIqIj3TqxEqHsBc5MKcHeuHY8eMPPfggL7+ZMIHl75577r7wwlwsPuzKUzZsePSxx5F2cDm/f/9fyMkfe+yxQoUu+euvfR9++CFjQOi5uXZtXF298847TKvNm1MReNqjM9hXLN8Qr9ZA1kOjq+lgXyGSnTN7DusnnHjLllROIXCFcZ+OQzWA/SLaw1wZBPuWy4JBgwefPn0KQMiD18sbq1XjfMaMSNm4EX1F4Jo5axYZyCmF3NXqrjffeIMVG9qaNr3toovSHULH4BfKG6NUz9RFvo/9IFsDfxt1HxLhYy+88ALG5G+//baIhmLQBqpAUhGai8DJaYIQw3qNq066kA0FYiXeM2cQ0VIIs4XDIEJJcrLuIMTkjAIbkNGDTJavEIzQr7KosaLRWC64yMP0Q5WFR1RQkMMyFblDnDh58vBhgVcoNibo/+FfU53YkJtpLqIGDKiWK18+S+bMaDRmzZoNV/aINtau/aVS5UqsFOwJtm3fDtriCB3PrZUrp4u20r8qV47+wh03Hc0OwKcfWQt+/eVXCpGKWKT69e/PzaTJTVJsxnN8awFVEQQJGWykIuQicHHuNpg1TDeO6eLunsKR0nAuQZZAl6G5QwYkKnIoR/zCNTvyYaabuFLnIpbzPVLlfx5TU7ds3cqdM7MGYwPmKXOcT5iSePyVwxOzFee7vNm6ZUvOXLmUcqkNeNkZc+upAiwxec1wESqiUaAHhiwItAWWyUEBwhjD0MkOiTxrVq8uU7YsOCCDRbhaqdI/IRvYJHG3B79hpaKBDF0qhR/LhxxEkJznzJmLPS7MVZYghj1rSNGixcqUKc2KRPwIVi1AozoqJY/sWYMhgONnMuBdOFiGgO/DcxH5jLtNOiksF8GBI61F3hewsui9DMtFole1f8lc12fPkQMp6orlyxs0bIhmkX8e3nClhlYCw0LF+dBcJCBQUX2JYk+mzJk7PfJIVGtJoMJZbliekGgpEV/kXCSBmh+MVDE1QxdAMpjnIsEKdOd7e1wk1L2IsZ0mbzjCsploYEePctrFtbDEm4pGFZbKRD8PHbZ0vYsmTXwE8SHKYYeCDJDZGzYUWIhCdJJVBOgjlCWsfuXh/OydUdnHDkw0mtgdI35hX+jvDMnDIIRtGsI0rjqMJ7awnyREBs52KhKXeYKDWh2aLyLuOVl/Udxk1Y47JUIAx3aOrhwezbMQPqQVaPKZNIh1SUs9QMYVxYsrAYsHmuNIEziO8JOi4CLcAXAccaRkzxSCRkaEUj53QoFWtI2gKV7gIu7sj7BUIbVE+ie6FmEz6wwaAY1AHBHg6jSsFmgcyYtv1WYlWvGl0pO1swXG/0/ZsmU92TrdKI2AlxDgwsDfpMFLDYykLfosEgl6EX3LWYQLzNAqExFVoD/WCFhHQDR9HTQQsU6CG7/gIJIRtPjQzsK1h9UOSMY7jdVv3Jafcc+VIOq5CXfkRKKFgqPCk1agk6cND902wDIUPWxrsDU2RjhFTxf19wx+e4QarrJyZTxwb4TesKWLz4QYRbizwrSj9Xk3AeZ/XuAidDCGhI44RjYPXOQ50afELJF7eGF+tAIbKx8XwpHXokvQCFhFAIaBFx/5ins7JpcnowRZggV7FzZ8ygYO0z+jq11LRbk5MwYobMqtchEt0Ypbn8L28I+mYh3GjQ5dsUZAIxAOAVwCo/0cLlcGTddcJIN2vG62RiAgAsivvvjiCx1oPSA4+mVABLzARcxEqQrYeFe91FGqXNUdGZYYuAgOWAkJJgggYsU3nydtIyLpYpNRqiKpIi7f2otS5QUugnuZsBFz49IllioVR3U6Yq4l0HTmaCOAxgfej/R1nQ/O5iPmRruDnC3f4Yi5zhKnS/NHABP3evXqoabln6TfaAQ0Aq5CAAeI4gXSVVS5hBhtdRi3jsAaFs/HOtZh3DpAV6wRMI0Afs2JQWA6e6JmlFj3Vl35eUGilag9punWCLgPAexFiExsI66f+5qiKbKMAKF8URy1+pkXziLotn///ffcClptvKvyY8H03XffIYZ2FVWamIyGAFwE/+cStJW2c2KeOnVqhOFmvYfh2LFjVbwi77XOaou8cBbhggHD9YTzT8DhkViwO3fulD5L0FZYHXA6f2IhAFPR/hToMuKYzZ07V/UdZzUJMJVYvRklar3ARaIETbSLxfb1008/NQZwjXaNunyNgEbAHgKzZs0inqC9bz3/lRe4CFKgXbt2JbosCPoJkIlbFM+POd1ANyPAOCQurAoHi8Mogot40ttHJL2wZ88eT2o/4/yGONNWkfECF6FHa9SowRJstfGuyr93796bb75Z2wy7qlMyIDGwjWXLlmEDK20/evRonTp1iP6dAaEI0eS77rpr+vTpITIkaBKOOPGBb5V4L3AR2myMzmYVAvfkVwHm3EOSpkQjoIel/xjwKia4YvRvbNg3AbgIt75LliwJ+KURuwULFuhzbkCUTL4kuMjAgQOLFi1qMr/OphHQCMQLAVyeSCD6eBHg5noDcBHOsEZtBCP18+bNUwq1mzdvXr16tZvb5nLaUCrDQ5ExvojLCdbkaQQyLAKI9cqVK5cQzceX0v7zP/6wSjCiSwKwWv3Kgr0IJw8UilRsvoYNG44ePfr666+3dwiySmiI/IRAuOKKK9CUDZHH/Um0olixYgmnr+x+YDWFlhBgHGJ6puy0me8MS4LfWCrE85mLFCniwnCQBJtgZ8+1P+74kBsR7w5zn2uvvZb/TfYIhndz5sy55ZZbTOaXbBZW3t27dxcqVEiVftlll8FXuIWLe8AvPIhxSEpEIyCjpSS2k2gTJmIrLA04ndnlCLAphIWoIzIL0IwZM1JSUlxOdrTJY6qyLqsd8/jx45UaW7SrNlk+hw9iTFWuXJmVJDU1FWqJgIfOzsKFC4kYb9WpiclKJVsAiZbxeyECGRcvEWFBFvEUV61axSOA1qpVy8bxxxJ9JjOHiF4OW4b+aFi2c2CkZNsaxtgDw/OVC25ayjbQZHt1No1AzBAIMbks0eDamWimFfjRQvSicrL6xV0GYySbtWjFihU33XQTW2pFGH/wWLNmTZJsSLfMwCJ5Qp1FDh8+DB9DikVg186dO6NQC5UceQYMGMDVOrKXG2+8cdCgQc2bN3fn8gc3huHRBPQFEHk1bdrUQXNTuP3MmTMPHDhAPzVp0uTSSy81D7rkhLFh5qI1FKzipvNHGwEmPnZLDoqImYns3BctWgQjwTMu88VBcdCmTZs4xB88eBBJCXOc+RgNfFgGgSUaJTtSJssR5vRYe/iXBtQkkYHIx/6pjrwJdRbBhz58YuXKlcis6H44G5wDZ+bsoGV7wqJMz3FGcYQUCmG02fhxIBg3bpy/qx+spTiMs9DDRWgL8j4Kd4RU5I/ffvstIj5gwcIDR0O2Wb1qL2VyTHbzSHUEOl2IyxGAfzRu3BgZg4xMBvbnn38eoYcF3Pyw5WKhZyYSwFwKdwQH5v6UKVPY4DITt23bNm3atGjY7fovSpMnT3ZVrGvWuhDaniSRwQzg5cuXZ4X3b2/AN6rAUGcRXOoja8PuH3dPEMFFCJ/RSVzXqMMHe3xE+f/13Xbu9KnTiA+ldFiO+bMwK/J7771nbwTAP4YNG9alSxcfq0sfm9uNGzeie2aepBCgs9YzJVQGKoJFZcuWLcQn/klcgtE37777rtw20YoRI0bgUFM2U85uBo21I4IDhGicx0Vs6AjCPnABFGQ7uDs2lh89qKNXcvQ6EZoZih999BHyBlDirDx8+PA2bdpEEsKAM7dxm0XkRC5+HRknhw4dMm68YFfMcWdVVKQTwQQzQ7akMnJQQGB55L7Bf16bf+NgJ3LUYPapSc26zZTZsWOHEMPf8Dz+D0sbJbCa9evXL1hOCqErRdvi6aefzps3LzlDcRG6mf6GebA6E+9MDkTYtQKf1AEKP/7447PPPvvP4+kTEz59f8yEhXe3uTPTmVNpW7dWvKnhbfVuTEo69/PyhRu2/Xn27Jmb6ze8rECAuEzcCCF5NNNO/+bRbLgIVKE4YUwFRE676t7i8ssvRyLnyOrJkOJwI9dF1MjNFSVb1WNh9LMsPvDAA/B/CoGPYjVaqVIlccoNFI6Q6g+XfuODQPSgjl7J0etEFk0mfqtWrdiTUguDnCg4KLkyMm1XykaTZU7NRJS+nJqJcBHWKOWMBKkJJTu725BO5ECGDOaxxx4TECZMmABbxWWGbUyc/ZBeg6Up9ik8Q4XVYisAjzFDLV2PbkVoANWoVmLJUFyEdubJk0eYD7pYqG0g3aICRRzCHDLwE0SSs+S44pI8OQtdee89dycnXXDi8L4O9953efGPiufY/8bHU0cOH7Qv9aeXBg8fMaRvZj8DSai3LSqVDyHMZx1nOQY42B4Qs8GvX7++1eNCsJ4GCoYUV0SIoQhW2KBBg4ASyWCfy3t4z+zZs6tUqSJ9D2cSmaFVbhS6Fp2qEbCEgJxTOSsYhzRDNJJhiVZOtWrV2HEyE7lBhD85NRNhG8xrJAEwEhYiZqJ5rVZLsCAnYDFRmICS/4JjqUBnM4MD5w82ylIstLFuqy5D4kcGMz0o67DVw1wYLlK2bNkOHTqMGTMGmSOUwX7Ry1ZhHdQAACAASURBVFLtR9b5b83icwsXLKhR6y5YCL/sF+YrVSj7spW/HDy3IUuh4jmyJl9atPimNQv3HDxROG92Z0EMWBqI1K1bF2kbotjatWs7NXClLjk0cOpnENvjf5DHjLLaYQFbql9qBBxEgI2Rs8MSATgLBcIMNIZxFmdmOTPfHIlly0zEtjxKLARi2Dja2Cmab0WEOVnlFi9ezHrif4yAc6MIauYgAg1cLKHQ1b17d0v0hOEirHR33HEHLATRENabPKrSuc7ipgGBjHpz5tSxJSs3PvdQZXlz9sypjWl/oL38+6+LMmdPlzUlJSf/ffLIkeMnLnCUi7CI40QsoP4Vu3t2KHS/syxEGkiNVO3UwKUcwNRh2C0NX53ZcQRYhlB5EikrhcNO2rdvj8A5wopkJjJlnGUh6atKUhLFMsdxKRQhkeY/R+IXcMExX4KzOVk9YCRowVWvXt241qHOsHTpUpJM7nRZ0m1oS4XhItJUdhAVKlQwshDeI92qWLGicUwc3L1196lcpa/4Z8Bt/XXZn8mX17uh9OItuc4cSA/hd477n0xZsmUxVal5lFl5+/bti+DV/CduyImkkssVDqFID6CHVvTq1ctGF7qhLZoGLyEAI1F3cixJPXv25O7BSw200RZ20kjIlYV1165d3WZ1iKITncWZDFE5zIM2oguAmIsNgShG2Wi1yU8CaPrCLXy4uhE+VS4eG33ck/22amnhMlUuzJqJW/Ttm34ZPmrcwNeG5MuZtWLV64/+vvPMuQuOHPgrf+FrLsmbyyRx3s7GRUizZs1gJN5upm6dRsADCMBKP/nkE5c3RO6cYCfsUNGk4g+uoKLNQsAkwLEAEZBPAHdCZvrDRx6joHDjLyum//BL8UsKjB/36fFjxzJlu7BH/1eKFEzXAyta7qamN2z4csKkw7vTuvXokcP/bt2/dP1GI6ARiAcC3MpyWc01gNHdUTwI0XXaQYArKMSPqK7BRSKXQ5qkIAAXkWv6sN/73DVdWa5q/8FVzxsOpksq1YmYcpIyZW51f8cTJ09mSs6c1WlxFuXjlIV7kUcffTTuHr3CghYiA2fPjh07osugZ28IlHRStBFAH/eZZ5656qqr0HeiLmQjzKzbb78dPatoV51A5T/33HOY8nEJ4U6a01dhWz9uwcuUKWP10wASLatFSH7hHElJ8KBAFm1JSUj/o8FCqJ17flRmEz2AJa3AYArVYXv46680AtFAAA0fhiV722gUnrhl/vDDDyatwROrjWjh4s/RKs2OcRGrFev8nD0tOW3WiGkENALxQoCjmA1fefGiNsb1BpBoxZiCDFsduncYxAa8c8qwmOiGawTciUD//v1VzBV3UhhHqvRZJI7g66o1Aq5DANE0NyJ63+26jokJQThhateundWqvHAWQZ8EJTwfV4xWgYh7frS8cYEn3s3iTowmIMMigKB18ODB6ooVpX/iajhuKpjo8OK4L0I/x+5EABVhbsKs0uaFswi2NvhlEds9q+2PY36u0/FzhxNGoYFWEE8mlva3cWy7rjpREICp4N/QVXbacYEO94t45FNVEyk8SoFM4tK6CCv1AheJEIJ4fQ4XGTlypCc1PeIFqa5XIxAlBL7++mvsrKNUeKIX6wUugnK0xOpI6M7wRisSugs08SCATINgpr/++qtCA5MRiRyj8VEIsAVUju69BAvOb2y4HPQCF0EohF9PIuEkdHfivZkIAbjrSehWaOITHQEYxqRJkwj3JA0hvgi2dWvXrk30djlLP2aYRDh1tkw3lIZHEuLmWaXEC1yEXTzGeom+XZKzSKK3wur40/ldjoA3JpfjICP88ORZBBfOzp9FONjiXyRYH2DAyckuWKp+HxoBeouQkzHwlRaaDJ2qEdAIhEWgdevWaBmEzZYxM4Q5i+Cb/vfffxdoYBhoKcyfP1+puOEvevXq1W4Gjq09uwYoN4Z9dgnBcJFOnTppTQ+XdIcmI0ER4LTEBCcoLD/b/qPCth0HU+hlhc2W6BmQqBMc3WorwnAR5VSRtRjfyKj94QkAdXIijlAT1kk4sLJapeP58dyFmQW0GUvmvMlBCvJ+/vln9KAWLiQM44IQ5yrHqbJaIFDjTdkniIvVQnR+jUCECDCPBg4cSOggKYdh6T+5IqzCqc/ZIxKPhzm+fPnyvXv3IhrB5Vds7kcdDwfpFCYRloNC86BBg6wWYtbqkBjjMHzxAQDzGDp0KJcwhQsX5kICZ7RYzFmt2MH8bOc5MxlHD7sS4kdCHhFz4X9w1xtvvBGPckR+xuMIbvcdrN2pomgFocrUraZTxepyNAKWEIBtNGrUSNmu46dn3rx5W7ZssVRIDDLDQmAeHOgJwcveCxkJwViZ7KtWrWJFItS30a244/R88803a9ascbzYBC0wzFlEtYqQAyo0fLFixVCdhn/QefRc3I8jDBeM9dSg4VQr3II4zyoKsez0ib5OSEhCgLmht9B+adOmDfQIMT6tcAOFmgaNAAgwuVx4RF63bh22kDigNdrVEziWAOMHDx50fDdGNNXPPvtMjQe4l4/wwz1DhQUQAT6/6Mn3fBpriotADfIyZVbNPT77+sOHD1MWWoAs2TaM5qMHOrQhzlI8z1gRTAWdYKMufPTICFsyRLKd0a7gwwKlM8QYARYgl+sKImzgvrZ06dL+yLAbY45zZetsExCdJYSBsHjynzZt2owZM5DvxWZlNsVF6Cq6TXUY/UQPCX0ceDn8xjfmOVZRs2bNUvFFtm/fTojfYOdZCUrsFLjBavEf3GHf0ApOdZqphAVKZ4gqAkyN2267jXtEqYVH5BDs7qNaqdXCuQUhmFuw0wDOkPg5O5XYSRu39gjMldqRVeKjmh/LHmgjGjeiDiTkVnfMJUuWrFKlilUKTd2LsFZyeFRqTmyi6T+lVkzFcJGrr77ap+4zZ/5OTjZVPh9ic/f+++/bW9w5FXFP88QTT4hDxh07dhD0UDE2+B9miUYuSAZEvZyorILlkx9WmpaWhkDWHi8Re3uul0QGTccPHz5caW0JyBFSGPBzyIZgezQHLFC9lN1fNKQfTGAKD7ZqhKYqbGr0oI5eydHrROYg8+XDDz9kjgAdE4fJ1bZtW+IXhUUydAb2Sah38n/obGZSKQe5Avcfkhk0EJagPqO+5ZYUmQR7XDOlhc5DJzKkmZ4zZ85U0bqYtgjTqlWrFvrb0KlSsrMzccOGDeoQxqxBq9aSAJ8Ittx/4wY/GOWUyQiRxfOpp55CIYicZld57hjUfoRVm6tgcdBGoUi0nnzySZ9aTx7Z16PXwD6DXsmXM32xPn3q5NaUdefyFLm66CUB6WPd79q1q5HbB8wW8CUnTQZ6pUqVihQpQgaUsjDCUDGH6X5EqJiFq29hh1y2O8JFpCh74wAY+fD+++8vX748tDF1R4wYQdwqd17+B0Rev/QeAqwRLJp33nlnvXr1aB1b2jfffJPLakZmhI1lCeYW0MZW179eeAaLHWF9JYnlWGaiysmiRKqscf6f23gzbtw4blUff/xx+Ra3WrBVlhEbRUX7E+MhCd/MxqUvbNV0PR2krpND51dB081yEdSlX375ZUYYFdBDzZs3Fx+68HwOJfhm/1d9587OnPTl9KlTOz7bO1/OfGfPnJ47a/qEse9VvPuFYFwE6m37DWWgU7uyuiQeMndr6l6EzZTROQwnAOpik2Jv6Tc2U53J7BUFVRMnTmRHIxdOHMApx57taOjO1qkaAfMIcOBjHHJNjTIrX8nJ0pFhyTW4UYZhniT/nKhfsgqVK1dOph7rEiVTvjwyMZlNLEomV0P/8v3fYN6AMphgIrAYVxX//PF6g1ELq59IYrDK4NGSLbqsw1Z32Ga5CDuRZs2ajR07FnHkvn37EB8JTNOnT0fx12cZ3Z6y+oKCZcqVKLB1x19lC+fLlJylQdNmqctmnEuKBback1DtZafvz5Y46yA3ZJNib913lnrGPdeD2hW8s6jq0iJHgPUxGmLJyAlTJbALhEiO7wGjaW3atAlphIMshHqRECjxhoMNcbwo2D9m9hiDs9axQ7UKAmJMZGIdO3a0RJjZ23VG1T333NOqVSsOcT169JAFGhEn5oeIkoxVnj5+aO6y9bfUqVGqaMHUrbFQM+dUhIY78AkZkIpdCyZIPleCiAthIfCPgOpbllCLRma2DA0bNnREkhsN8nSZGQQB1h2Mw9Dgl/byyDbRQdGQUzAieEF2rcLzSLEsnWzDEemoKFtOVedTDtItzkNRKjzCYukydIj4WWUh1IvWKNc/VgkwexaRcpUgTB5ZlLkv+ffx59zcqV/v2H3oq88/23PgxMmNaVYJspEfvEaNGmXUE8PaFm63cuVKGAyHUO6X0FVgbNHxXEK44SBCMxnxnOpQJ5POphVvvfUWCoU2ENCfaAQcRIA9olqAmEFEUUVx1sHyHSkKwohN99NPP7GRRfyA7IFNNAJ2GB7R3hxXxGBLipRMbVVfeuklqnakIR4oJAwXEVFmsHaiSdayZUtj6h9bfj2cs8QzT9dEdnVZlr/e/D7l7LkLMokgK7aLN4OJ/RRaHCgFcviAl2C1bklEGKzVTr1n3LPLQ7wb+b2lUyTpcjQCCYQA0mA8JDKP0PBEU5TZzd5RLfTONqRz586PPvooWknOFuuN0sJwkRYtWoQIufzggw+q6ybg+HnZvGEj3r77qX5ZMmc+eXT/ui27/0rbsHTV+uqVrl40e/qa1D+STsxeVDh3zarpKkkx+MG2uGHzvfmPQcWmq7Cnk2a6eJ1RI2AZAcYk14qc2l0oxfJvDHOcJci4Cvnn0W+ijUAYLhJaTO8zzkpXqv72BzdkPm+HkTVnnoef7PXwkxckZ86SlCn5+pr1qtxUFykON+2ON4nDJp4iORXF151XhO2iFb1798bgC6XnCIvSn2sEbCOAglP79u3RHuSgTCEo1OL8AxkRqo+2y/Teh6+99hqrjc+VsAeaiXo3ml1WG2L2dt1MuVmzZeM4mfU8F0lKysTf/LJlTX/MniPH+adc2bNlNVOUpTzIKz/99FPsQix95bbMqCCPHz9e/Mq4jTZNT4ZFADsM/EepYBAZFgefhhMO0oUeKiPvnQoVKtSvX99qOU5yEat1Z/D86JIhNwghMMzg+OjmawTcgwB+MfwtB9xDXnwpCSPRii9x3q4dhTc8FHHn7+1m6tZpBDyAAH4lJC6GB9rieBP0WcRxSHWBGoEERoD7akwx3KyTksDgup70MWPG2NBD88JZBOuQYcOGJfq4R1VhyJAhCWEf6/q5oAm0jwCWFu+9956y2sMs45VXXtFxnX0AfeGFF5QTcftYu+9LfJ3ZuGD2wlkEtXEUtEKrk7mvvy7g3vLLL79UQXxpBXrVPnadLiRbk5ShEMD8EKd5ib5Fi7zLiNVhDEiOswyC9UVerDdK8AIXSdCeYC+Dai/RUBKUfk22RiDjIICrfBzDZJz2WmqpR7iIcqlvqfFuy+yNVrgNVU2PJQQYhLiCV4Gc+VbbxvoDCCaehIVbMRuOOL3ARfDIhucDXOj4d3YCvcGLA7Zd+miSQF3mSVLhIlyxKmMIwi7gedAozPFkq602ivgruDO3+pX78+OOBLdpVun0Ahdh3MNIsLm12nhX5acVMBJ70R5d1RBNjJcQYMfN5FJxTr3UtEja4lTQxkhoiMa33Mva8AAShovgJlOFpfQnevny5cZItP4Z9JsQCGBvePfdd0uU3xDZdJJGQCMQdwSw6K5YsWLcyXAnAWG4CF57laQIhrFq1aqlS5cqtSL8++OP3p0NizZV7NFwMcQeDVjsSUjRocRDkTuDnUQbPV1+RkOAozbhiJgsCXqs6dChg4QQ9nbHccayIVQPw0WUN3dGQJ8+ffifWIcEj5QwGPhrc4neAjFOYuZ4Hp6RlpaG2fmyZcs47BMOiwBhxljHtsdZLFthm0j9obcR4HK1e/fuxA1SzYxwWCJqXrduHfOFHeeOHTsWLlzI3tQnglzCQRohJq5tLw4JCUJolTyzVoezZ8/GUWD16tWpgMMdLi3ffvtt9tFcvhEDCrs/qxU7mB+TKP/Ihg6WbywKFkJ0Gv4nsAEjaf78+UQxwR0kISoJOaUCQduonVZQGmDa+FZ/ohFwCgGJakqAWCkQMyxMJf744w975XP4gGcUKVKEacJagYScSOAIyRGGly1blvf2io37V1h6uTBylyOw2JCshDmLKLLgIso1NOY2rNosnQw4ItozyByh3nYhWNuyBDse3SwgPUwD7LDwqIM8igyCODOtRo0amH2y1Qr4VcCX2It06dJl69atkgqYMWtFQHr0S42APwIc8fGn8O94pv65Ar9hdqxYseLqq6/mZCPBE3kjUX9gKhxQEsiD9fDhw6dMmaLayXWmrACBWx7vtyjpxFJPxxQXERkOxtUCDtfCHEhlBLB6IthJdP0ok52OSBehIc6T/aVn4n0IHmPe5oPSkAcm+tHeJHQ6WwIhYGM3GrB1jG2KCnjzB1sixCeMJOCHLnyJBCIholmzFC9YsGDq1KnTpk1DeBibldkUF6FTjbpYrJislcLr0AzjpsQY8zz2I4DlmLDqMbi14yROCCnjocfITgjYCaPl2G4PAehnUmmdN3vo6a+cQoB1p23btkuWLJECmenr16+35zNq27ZtBLI1EmacL0wlXDbFZplzChxVDlaZ7tz/YdmDYJwtPj+kRFb5NOfO4sWLW4XL1L0IfQ+3UMs0Hc9KqmKYExtr06ZNV111lU/d5CfuocRcD0sW19SjRo2ydwpjLHLeJDBytLVmubRgb6WuLuSIxtW6ah2tgNOY9OjFzKQErpdgw5RAK0aOHPnII49oh4xhR4vOED0EYBscqd96663vvvuOWtjWvP76623atLGxuOzcuZPBTGlCLTqN3B0at1mc7Jk+Noylo9f8YCUjrwYQpZ6Kw8rKlSvfcMMNwfLH631KSooSh7C8sBuwFGGMtYivUKQyQ3+3bt3kRtwUF6FEJJvgKEXD5RgcErOFKjnrPfHEEz61Hj+05+ln+g0aNiJ/LmIdnkv9be2qX35Lynph/fr18uRKv1Hw+VEgNNk7SnP1Bxe57rrron1Zh9IzIJQuXVqIp7dgqGgcqB3WypUrS5QoYdJsBxj5kOikiMgoEA6E5wlicKqLTV+M9LNGIPoIMKRZ1lu1aiWKrSz677zzDmojCKCsVo5hAINZeXJk7rCFx+28KoddI9MnNjeaVon3yU8c0rp167JVlfdEFOaYhTw/wmId/5wlxagKwboNwubXVbqeS1+5xApLm9oum+UiTZs2HTp0qJxCGByEB5fLJTRcqdL3EHDu7MxJXy2YN+f3A0fy58q3a+NPX876uVO7lrO/er9TtwVj3xmcJZPvEQXqbbuzFVfGSFrV8Shs++1lgFGj48u1kLANmW9UKo8wFaYcUJi8imTyfPDBB7AQ4cd8SzkxaIW9tuuvMggCrOyMQ2SzMixlbNsbltyI4I7hsssuE+iYOEYZBuo5FEsY7YQAFv1X2KoKd8h6xboX7QXHBjKowHHCE50ddrQ8WoqmKuuwyRVMkWeWi7CDwBky2sSXXnopW/Inn3xSipg5c+att96qNuPycuv6n7IUrli+eIGt2/eVK5Lv6IH9Bw4fzZ07T636DV58+4mDx89cnMtsvTZwjN4njHi6hEMDIPjXQs+ZZyF8zijEcZYOw+mPpH7jDQTgH8jl4RYBWQUS/AQK9Inhug2ZXuz7kfMB11pyHGGZssoPfvzxRyRgeAmzRLnZ23V41AMPPHDHHXcgciFCCyGVqAZBJzdviJKMVZ46dmDBjxvr1qpWsmjB1LQtJF11/a2Dnu+SKencgplTazRuli+nwywEpGBysdkX0Fgs9tlhGZvMgRH+jwM7kU1Z6gCVmVYgaXWz+qC9dumvEgsBjgtff/015lBCNo8MS5NXfT4t5Vvmy+LFi31UTji1r127lq1ntEXQ0UO+fPnyro25wkqCVQY/qywEuOgsZHdWcbO2oPtYF7Kb4FL93yemc99P+XrnniNfjB+358Dx4xu3CkEIsJbP+fa3Q7kHP/9Qsq80yyrNvvlR9vjmm29ioyfGKl+rVi04NneGhQsXZnqg/4eZiLw3KU9UDUABAQ4kJznOMZgyJYQ2oW8H6GcPIcBoZNOt2Aairc8++8y2hR1zE0bCHW/u3Lk5dnM1wumEW3fmDjs/HxmGm1FE0CfyfCGSuyLug91McCxpC3MWYVkMoUGBShniLCO5O1LWnMp7zXPdu7Zr1+6+trdv2ZJy9hzp55bNnbp6+8nHHrxn/vQpB0+ejWULHa+LeQUj4YTLwILhwwa4j8I1vSX5I1Rxu85EYlPmOIW6QI2AexBge8SNAnfRHEFQokG6haky1/UhFhb3EK8oefjhh1GndCFhbiApzFkEAVkISREeyoynkzVL5rz+1nttu/bOlJR08uj+Xzb+fnTXliUr15e46NjzfQaeyZx93Jg3i5Wp0eTOVm5oeYQ0INMTsZ7tcmA/tj052q5Uf6gRCIsAKjNczDooXIVhcCjhF7Zq12aQs4hryYsvYWG4SGi9KR+V1rJVa77zQY3kzOllZs2Z55Gne3d6+oIknjMlTfv+Hy8pmXh0WqLFph6VdnwqcGqOL5qR1C72Isij4+uULJIm6G89gADLJdefaLLia5XmsNFBAZ2jg1K18kAbI28Cgby4dShTpkzkRbmqhGrVqtmIJx9GomWphVmyZGX/kuU8FyHwIn9ny549a5bMmZKT+Vt+PFoq00xmsTp0pympGfolj3CRENFczBelc2oEnEIALkLwO9veGJ0iw23ljB492vZdkdvaYqQHyXzLli2tUugkF7FadwbPz9WisjXJ4FDo5msEXI4AJ4+EsI6MC4zOnwzi0oxErBSVFdQ8jIEcErEVmmaNQEZA4P3333ehvxOXIK/PIvHsCFTgEkjZMZ5I6bpjhQADErcl9gxEYkVjHOoJra0aB4KiU+UXX3zRr18/q2Un2/jGah3Rzs+4R98Jy5UQ6mTRpsFe+agDKNslWoEqJNa8DurG2KNKf5WREUCf6qGHHlKmxDIssSAJrWjjecTQ48fGRTUTWIgG5Ov5KfFRII4UHidbt25tqSle4CJ0MJFwcLRgqeVxz4wyDGbwsA1hfrQCRphwrYg7jJoAxxGAYSjH0lwGIHQlVLbjtSRWgTjpYMOn9CfBxJNBHIhBCYO0ykW0RCtugxmGgR/42Jjcx62RumKNgCcQGDJkCNrPnmiK843QXMR5THWJGoHERQCxKi5PCDCVuE3QlMcYAS9wEZxQYieFq90YY+dsdQTwwVMA/pKdLVaXphGwhABchH23MoYglhqxRlSkKUtFeTgzUgRjeDrPtJRwZC+99JLV5niBi+DTcM2aNYkupqQVXJPgJtlqF+r8GoHoIYALQoalvq7zQZhrEk8aCONM3ifIsZmh5QUuYqadLsyDHRO+LCN0xuXCdmmSNALeQwCPqwkUDSXG+GurwxgD/r/q8A2Mb4mECH0TN4x0xRoBdyDw1FNPwUjcQUsUqeDQiSspq34zPcJF0E4TqxH0KNCgFZhRUuS+RGJ+EFcKP/YKfg5ueHeXRw7sRrEv8aXRG5akWbNmHThwQH1FtEcJTQjW06ZNU9GMMdFq0qSJZCPi4YoVK9QnHA9VoOmlS5cSzEolEbSZkKLqUf4gdqRYkECeRFREpDBlyhTkXZIBdf4WLVqIV23zjSK2GGrEqgqjzzHVKCTg3377raLH2CgCcBFSJWCjCB1BeBWVhDdJpVZPXyiy6Z3mzZtLX3ADNGfOHPUJSqV40pRHItYgK1BJRP1SUe6///57owyBY5yoXSLJnDRpkvoEx+P0BdXxhvDGaC6qJBg2AUTlkfekqiTcB+HkXx4pTUlHKYchJD7/qR0a1Cd0U/369eWRWwSjh/+yZcvivlCS5s6dy72d+gof6WJkQBWgTedKEtreRKGWbiX8xg8//KA+gTDIk0ecHRiV+miO2oUwIFUwKMgGBIkwSEiPGTNmqNIATUVzSElJQRSskoAawKHh3nvvxfBQvRcwGe3fffddwCpwhzp9+nSVn+O1eHLkDYHWV69erZJQkCWkgjwuXLjQ6J4Ld/FEpCYJTCZPnmycxQx4oYH8fKVKw0Ek0ULlkVqoSyURWUsdHaANClUSyIhNJW0BNPUe/ebGjRvLIyAbw4dQlFouJAP0EDhciAzRqNq1a2NWwifkZBarRjGi6G5xqeLTKKaPChFmslEQwywWgx4aRTeppcnYKGIXrVy5UrWXBYFlQR4JTiU3sgw8XEyOGzdOZTPzhxe4CJwTuJlsTIC+ffsq3XZmZp8+fdjyAwTwGRd3pp9aUEIkjRo1yhg2qnPnzjK7uMl/8cUX1RLAct+7d29ZAlgyjBUxMVRFDFlj0u233250n0krBg4ciO2o1IhPNPmQ5vBeYsvTEORgVC1RzBjowRoVLInh9e677xpXoi5duggZe/fuBT01aGiUeiTJWBFJqlEshcYk1lxJ4pIWg1YlTwccHqUvYBXGT2DbqjQ4ujGJUa6SPvzwQyOz79ixo/BFOGKvXr0U2fAk+kLmJzsAY2ks36o09gfGpIYNG6okbhdZeaVAyCayp/iKZs01fsKaqz4JkTR27Fgjg2nfvr0wGMgeMGCAYlcs7pAt7IoeN1bEQqAqYidkTKpbt65Ce+jQoUrBhOZ369ZNFmWYpfG+tFSpUqo0NgfG0lQSq5gy4IUVscRQFG/wnI3TeIWMqgKFLmM57JxUFdQeLOmrr74yJnGvK/stmt+/f381i8EE+qVD4f3GT6pXr64qCpbEgOfEb9y9Ee1bYizSFipSI4eXLBfySJKxItYWtS2QDCgg9OzZU/IY20uguYCNYnFn2rJRk8/ZjDKuZDosW7bM+AmbS9WoEEkjR45Uuze4SNeuXaVRbEEYV4qLsE8N0ShVERs+oYGFxbiBUOCE/iPd6jt0Dp2qs5ZExAAAAMRJREFUEdAIaAQ0AhqBYAjo2/VgyOj3GgGNgEZAIxAeAc1FwmOkc2gENAIaAY1AMAQ0FwmGjH6vEdAIaAQ0AuER0FwkPEY6h0ZAI6AR0AgEQ0BzkWDI6PcaAY2ARkAjEB4BzUXCY6RzaAQ0AhoBjUAwBDQXCYaMfq8R0AhoBDQC4RHQXCQ8RjqHRkAjoBHQCARDQHORYMjo9xoBjYBGQCMQHgHNRcJjpHNoBDQCGgGNQDAENBcJhox+rxHQCGgENALhEfh/saQvp/dWihsAAAAASUVORK5CYII=;" vertex="1" parent="1">
          <mxGeometry x="100" y="80" width="535" height="141" as="geometry" />
        </mxCell>
        <mxCell id="SthQR8cLq-xNoR6oxP_u-2" value="3-qubit bit-flip QEC circuit" style="text;html=1;strokeColor=none;fillColor=none;align=center;verticalAlign=middle;whiteSpace=wrap;rounded=0;" vertex="1" parent="1">
          <mxGeometry x="287.5" y="40" width="160" height="30" as="geometry" />
        </mxCell>
        <mxCell id="SthQR8cLq-xNoR6oxP_u-3" value="Memory time = computing time of logical qubit" style="text;html=1;strokeColor=none;fillColor=none;align=center;verticalAlign=middle;whiteSpace=wrap;rounded=0;" vertex="1" parent="1">
          <mxGeometry x="280" y="221" width="110" height="50" as="geometry" />
        </mxCell>
        <mxCell id="SthQR8cLq-xNoR6oxP_u-6" style="edgeStyle=orthogonalEdgeStyle;rounded=0;orthogonalLoop=1;jettySize=auto;html=1;exitX=1;exitY=0;exitDx=0;exitDy=0;entryX=0.75;entryY=1;entryDx=0;entryDy=0;" edge="1" parent="1" source="SthQR8cLq-xNoR6oxP_u-5" target="SthQR8cLq-xNoR6oxP_u-1">
          <mxGeometry relative="1" as="geometry" />
        </mxCell>
        <mxCell id="SthQR8cLq-xNoR6oxP_u-7" style="edgeStyle=orthogonalEdgeStyle;rounded=0;orthogonalLoop=1;jettySize=auto;html=1;exitX=1;exitY=0.5;exitDx=0;exitDy=0;entryX=0.905;entryY=1;entryDx=0;entryDy=0;entryPerimeter=0;" edge="1" parent="1" source="SthQR8cLq-xNoR6oxP_u-5" target="SthQR8cLq-xNoR6oxP_u-1">
          <mxGeometry relative="1" as="geometry">
            <Array as="points">
              <mxPoint x="480" y="301" />
              <mxPoint x="480" y="300" />
              <mxPoint x="584" y="300" />
            </Array>
          </mxGeometry>
        </mxCell>
        <mxCell id="SthQR8cLq-xNoR6oxP_u-8" style="edgeStyle=orthogonalEdgeStyle;rounded=0;orthogonalLoop=1;jettySize=auto;html=1;entryX=0.179;entryY=1.014;entryDx=0;entryDy=0;entryPerimeter=0;" edge="1" parent="1" source="SthQR8cLq-xNoR6oxP_u-5" target="SthQR8cLq-xNoR6oxP_u-1">
          <mxGeometry relative="1" as="geometry">
            <Array as="points">
              <mxPoint x="196" y="300" />
            </Array>
          </mxGeometry>
        </mxCell>
        <mxCell id="SthQR8cLq-xNoR6oxP_u-5" value="&lt;div&gt;QEC&lt;/div&gt;&lt;div&gt;time&lt;/div&gt;" style="ellipse;whiteSpace=wrap;html=1;aspect=fixed;" vertex="1" parent="1">
          <mxGeometry x="400" y="271" width="60" height="60" as="geometry" />
        </mxCell>
        <mxCell id="SthQR8cLq-xNoR6oxP_u-9" value="" style="endArrow=none;dashed=1;html=1;dashPattern=1 3;strokeWidth=2;rounded=0;entryX=0.05;entryY=1.021;entryDx=0;entryDy=0;entryPerimeter=0;" edge="1" parent="1" target="SthQR8cLq-xNoR6oxP_u-1">
          <mxGeometry width="50" height="50" relative="1" as="geometry">
            <mxPoint x="127" y="350" as="sourcePoint" />
            <mxPoint x="360" y="230" as="targetPoint" />
            <Array as="points" />
          </mxGeometry>
        </mxCell>
        <mxCell id="SthQR8cLq-xNoR6oxP_u-10" value="" style="endArrow=none;dashed=1;html=1;dashPattern=1 3;strokeWidth=2;rounded=0;entryX=0.25;entryY=1;entryDx=0;entryDy=0;" edge="1" parent="1" target="SthQR8cLq-xNoR6oxP_u-1">
          <mxGeometry width="50" height="50" relative="1" as="geometry">
            <mxPoint x="234" y="350" as="sourcePoint" />
            <mxPoint x="270" y="310" as="targetPoint" />
          </mxGeometry>
        </mxCell>
        <mxCell id="SthQR8cLq-xNoR6oxP_u-11" value="|ψ&amp;gt; = |0&amp;gt;" style="text;html=1;strokeColor=none;fillColor=none;align=center;verticalAlign=middle;whiteSpace=wrap;rounded=0;" vertex="1" parent="1">
          <mxGeometry x="60" y="310" width="60" height="30" as="geometry" />
        </mxCell>
        <mxCell id="SthQR8cLq-xNoR6oxP_u-12" value="|ψ&amp;gt; = |1&amp;gt;" style="text;html=1;strokeColor=none;fillColor=none;align=center;verticalAlign=middle;whiteSpace=wrap;rounded=0;" vertex="1" parent="1">
          <mxGeometry x="60" y="340" width="60" height="30" as="geometry" />
        </mxCell>
        <mxCell id="SthQR8cLq-xNoR6oxP_u-13" value="|000&amp;gt;" style="text;html=1;strokeColor=none;fillColor=none;align=center;verticalAlign=middle;whiteSpace=wrap;rounded=0;" vertex="1" parent="1">
          <mxGeometry x="170" y="310" width="60" height="30" as="geometry" />
        </mxCell>
        <mxCell id="SthQR8cLq-xNoR6oxP_u-14" value="&lt;div&gt;|111&amp;gt;&lt;/div&gt;" style="text;html=1;strokeColor=none;fillColor=none;align=center;verticalAlign=middle;whiteSpace=wrap;rounded=0;" vertex="1" parent="1">
          <mxGeometry x="170" y="340" width="60" height="30" as="geometry" />
        </mxCell>
        <mxCell id="SthQR8cLq-xNoR6oxP_u-15" value="logical qubit gate operations" style="text;html=1;strokeColor=none;fillColor=none;align=center;verticalAlign=middle;whiteSpace=wrap;rounded=0;" vertex="1" parent="1">
          <mxGeometry x="280" y="320" width="90" height="30" as="geometry" />
        </mxCell>
        <mxCell id="SthQR8cLq-xNoR6oxP_u-16" value="measurement process." style="text;html=1;strokeColor=none;fillColor=none;align=center;verticalAlign=middle;whiteSpace=wrap;rounded=0;" vertex="1" parent="1">
          <mxGeometry x="650" y="133.5" width="80" height="34" as="geometry" />
        </mxCell>
        <mxCell id="SthQR8cLq-xNoR6oxP_u-20" style="edgeStyle=orthogonalEdgeStyle;rounded=0;orthogonalLoop=1;jettySize=auto;html=1;exitX=0;exitY=1;exitDx=0;exitDy=0;entryX=1;entryY=0;entryDx=0;entryDy=0;" edge="1" parent="1" source="SthQR8cLq-xNoR6oxP_u-17" target="SthQR8cLq-xNoR6oxP_u-18">
          <mxGeometry relative="1" as="geometry" />
        </mxCell>
        <mxCell id="SthQR8cLq-xNoR6oxP_u-21" style="edgeStyle=orthogonalEdgeStyle;rounded=0;orthogonalLoop=1;jettySize=auto;html=1;exitX=1;exitY=1;exitDx=0;exitDy=0;entryX=0;entryY=0;entryDx=0;entryDy=0;" edge="1" parent="1" source="SthQR8cLq-xNoR6oxP_u-17" target="SthQR8cLq-xNoR6oxP_u-19">
          <mxGeometry relative="1" as="geometry" />
        </mxCell>
        <mxCell id="SthQR8cLq-xNoR6oxP_u-17" value="&lt;div&gt;error&lt;/div&gt;&lt;div&gt;sources&lt;br&gt;&lt;/div&gt;" style="ellipse;whiteSpace=wrap;html=1;" vertex="1" parent="1">
          <mxGeometry x="260" y="440" width="80" height="60" as="geometry" />
        </mxCell>
        <mxCell id="SthQR8cLq-xNoR6oxP_u-18" value="dephasing" style="ellipse;whiteSpace=wrap;html=1;" vertex="1" parent="1">
          <mxGeometry x="170" y="510" width="90" height="50" as="geometry" />
        </mxCell>
        <mxCell id="SthQR8cLq-xNoR6oxP_u-19" value="gate error" style="ellipse;whiteSpace=wrap;html=1;" vertex="1" parent="1">
          <mxGeometry x="340" y="510" width="90" height="50" as="geometry" />
        </mxCell>
        <mxCell id="SthQR8cLq-xNoR6oxP_u-25" style="edgeStyle=orthogonalEdgeStyle;rounded=0;orthogonalLoop=1;jettySize=auto;html=1;entryX=0;entryY=0;entryDx=0;entryDy=0;" edge="1" parent="1" source="SthQR8cLq-xNoR6oxP_u-22" target="SthQR8cLq-xNoR6oxP_u-18">
          <mxGeometry relative="1" as="geometry" />
        </mxCell>
        <mxCell id="SthQR8cLq-xNoR6oxP_u-22" value="&lt;svg xmlns:xlink=&quot;http://www.w3.org/1999/xlink&quot; viewBox=&quot;0 -677 1020.6 827&quot; role=&quot;img&quot; height=&quot;1.871ex&quot; width=&quot;2.309ex&quot; xmlns=&quot;http://www.w3.org/2000/svg&quot; style=&quot;vertical-align: -0.339ex;&quot;&gt;&lt;defs&gt;&lt;path d=&quot;M40 437Q21 437 21 445Q21 450 37 501T71 602L88 651Q93 669 101 677H569H659Q691 677 697 676T704 667Q704 661 687 553T668 444Q668 437 649 437Q640 437 637 437T631 442L629 445Q629 451 635 490T641 551Q641 586 628 604T573 629Q568 630 515 631Q469 631 457 630T439 622Q438 621 368 343T298 60Q298 48 386 46Q418 46 427 45T436 36Q436 31 433 22Q429 4 424 1L422 0Q419 0 415 0Q410 0 363 1T228 2Q99 2 64 0H49Q43 6 43 9T45 27Q49 40 55 46H83H94Q174 46 189 55Q190 56 191 56Q196 59 201 76T241 233Q258 301 269 344Q339 619 339 625Q339 630 310 630H279Q212 630 191 624Q146 614 121 583T67 467Q60 445 57 441T43 437H40Z&quot; id=&quot;MJX-2-TEX-I-1D447&quot;&gt;&lt;/path&gt;&lt;path d=&quot;M213 578L200 573Q186 568 160 563T102 556H83V602H102Q149 604 189 617T245 641T273 663Q275 666 285 666Q294 666 302 660V361L303 61Q310 54 315 52T339 48T401 46H427V0H416Q395 3 257 3Q121 3 100 0H88V46H114Q136 46 152 46T177 47T193 50T201 52T207 57T213 61V578Z&quot; id=&quot;MJX-2-TEX-N-31&quot;&gt;&lt;/path&gt;&lt;/defs&gt;&lt;g transform=&quot;scale(1,-1)&quot; stroke-width=&quot;0&quot; fill=&quot;currentColor&quot; stroke=&quot;currentColor&quot;&gt;&lt;g data-mml-node=&quot;math&quot;&gt;&lt;g data-mml-node=&quot;msub&quot;&gt;&lt;g data-mml-node=&quot;mi&quot;&gt;&lt;use xlink:href=&quot;#MJX-2-TEX-I-1D447&quot; data-c=&quot;1D447&quot;&gt;&lt;/use&gt;&lt;/g&gt;&lt;g transform=&quot;translate(617,-150) scale(0.707)&quot; data-mml-node=&quot;mn&quot;&gt;&lt;use xlink:href=&quot;#MJX-2-TEX-N-31&quot; data-c=&quot;31&quot;&gt;&lt;/use&gt;&lt;/g&gt;&lt;/g&gt;&lt;/g&gt;&lt;/g&gt;&lt;/svg&gt;" style="ellipse;whiteSpace=wrap;html=1;aspect=fixed;fillColor=#6d8764;strokeColor=#3A5431;fontColor=#FFFFFF;" vertex="1" parent="1">
          <mxGeometry x="110" y="490" width="40" height="40" as="geometry" />
        </mxCell>
        <mxCell id="SthQR8cLq-xNoR6oxP_u-26" style="edgeStyle=orthogonalEdgeStyle;rounded=0;orthogonalLoop=1;jettySize=auto;html=1;entryX=0;entryY=1;entryDx=0;entryDy=0;" edge="1" parent="1" source="SthQR8cLq-xNoR6oxP_u-23" target="SthQR8cLq-xNoR6oxP_u-18">
          <mxGeometry relative="1" as="geometry" />
        </mxCell>
        <mxCell id="SthQR8cLq-xNoR6oxP_u-23" value="$$T_2$$" style="ellipse;whiteSpace=wrap;html=1;aspect=fixed;fillColor=#6d8764;strokeColor=#3A5431;fontColor=#FFFFFF;" vertex="1" parent="1">
          <mxGeometry x="110" y="540" width="40" height="40" as="geometry" />
        </mxCell>
        <mxCell id="SthQR8cLq-xNoR6oxP_u-27" value="&lt;div&gt;coherence time&lt;/div&gt;&lt;div&gt;per qubit&lt;br&gt;&lt;/div&gt;" style="text;html=1;strokeColor=none;fillColor=none;align=center;verticalAlign=middle;whiteSpace=wrap;rounded=0;" vertex="1" parent="1">
          <mxGeometry x="40" y="510" width="60" height="50" as="geometry" />
        </mxCell>
        <mxCell id="SthQR8cLq-xNoR6oxP_u-29" value="1" style="text;html=1;strokeColor=none;fillColor=none;align=center;verticalAlign=middle;whiteSpace=wrap;rounded=0;" vertex="1" parent="1">
          <mxGeometry x="160" y="490" width="20" height="20" as="geometry" />
        </mxCell>
        <mxCell id="SthQR8cLq-xNoR6oxP_u-31" value="1" style="text;html=1;strokeColor=none;fillColor=none;align=center;verticalAlign=middle;whiteSpace=wrap;rounded=0;" vertex="1" parent="1">
          <mxGeometry x="160" y="560" width="20" height="20" as="geometry" />
        </mxCell>
        <mxCell id="SthQR8cLq-xNoR6oxP_u-33" value="" style="edgeStyle=orthogonalEdgeStyle;rounded=0;orthogonalLoop=1;jettySize=auto;html=1;" edge="1" parent="1" source="SthQR8cLq-xNoR6oxP_u-32" target="SthQR8cLq-xNoR6oxP_u-18">
          <mxGeometry relative="1" as="geometry" />
        </mxCell>
        <mxCell id="SthQR8cLq-xNoR6oxP_u-32" value="&lt;div&gt;environ-&lt;/div&gt;&lt;div&gt;mental noise&lt;/div&gt;" style="ellipse;whiteSpace=wrap;html=1;aspect=fixed;" vertex="1" parent="1">
          <mxGeometry x="185" y="590" width="60" height="60" as="geometry" />
        </mxCell>
        <mxCell id="SthQR8cLq-xNoR6oxP_u-34" value="Fidelity = transition probability&amp;nbsp;&amp;nbsp;&amp;nbsp;&amp;nbsp;&amp;nbsp;&amp;nbsp;&amp;nbsp;&amp;nbsp; from |ψ&amp;gt; to |φ&amp;gt;" style="text;html=1;strokeColor=none;fillColor=none;align=center;verticalAlign=middle;whiteSpace=wrap;rounded=0;" vertex="1" parent="1">
          <mxGeometry x="490" y="400" width="190" height="40" as="geometry" />
        </mxCell>
        <mxCell id="SthQR8cLq-xNoR6oxP_u-35" value="$$\rho=|\psi&amp;gt;&amp;lt;\psi| \quad \sigma=|\phi&amp;gt;&amp;lt;\phi|$$" style="text;html=1;align=center;verticalAlign=middle;whiteSpace=wrap;rounded=0;fillColor=#6d8764;strokeColor=#3A5431;fontColor=#FFFFFF;" vertex="1" parent="1">
          <mxGeometry x="500" y="440" width="180" height="30" as="geometry" />
        </mxCell>
        <mxCell id="SthQR8cLq-xNoR6oxP_u-36" value="" style="shape=image;verticalLabelPosition=bottom;labelBackgroundColor=default;verticalAlign=top;aspect=fixed;imageAspect=0;image=data:image/png,iVBORw0KGgoAAAANSUhEUgAAAZgAAABFCAIAAAD4jmdHAAAAA3NCSVQICAjb4U/gAAAb4klEQVR4Xu3dedx/Q/UAcEop2qQQRSFkb9OKVoksCSEkKipKmxYVaV9UqFB2UkkRWmhRkdKGNpJUilZttEi//N79pt/tdu+d+cz9fO7n2b7z/PG8nmfumTPnnpk5c9a5i99yyy2LlZ/CgcKBwoH5zIFbzWfiC+2FA4UDhQP/4kARZGUdFA4UDsx7DhRBNu+nsLxA4UDhQBFkZQ0UDhQOzHsOLDHv36C8QOHAvOLAP/7xj6OOOurqq6++/vrrN9hgg3322WeppZaaV28wF4ldvEQt5+K0FJoWLgf23Xff5z3vefe73/1uuummpz/96VdcccWXv/zlpZdeeuG+8Uy8WTEtZ4LLZYzCgcCB733ve1/84heXXHJJ//p9+OGHX3bZZaeffnrhz4QcKIJsQgaW7oUDPTiw3HLLMST//ve/hz7LLrvsbW5zm5/97Gc9UBTQLg4UH1kXV0pb4cB0OHD3u9/94osvrnAzKm+++ebHP/7x0xltEcJaNLIpTvbnP//5Pffcc4oDZKP++c9//sQnPvHGG2/M7rGIAu6xxx7nnXde/ssfccQRb3rTm/Lh65B/+9vfXvCCF7z+9a9/yEMeMh6G0us/HODsLz/T4IDDVkzql7/85TSQ98L5q1/9asMNN7zwwgt79Vo0gX/xi1+stdZa55xzTubr06e22mqrAw88MBO+AtNxp512ete73tW3Y4Hv5MBina2lcUIOfPOb31x11VV/+MMfTohn8u6/+93vSLGPfvSjk6NaRDD84Ac/WGGFFZxDme/7l7/85YEPfOChhx6aCQ+Mj2yvvfb69Kc/Hbp8//vfz+9bIDs5UARZJ1smaqQB2Qn5p/pEgyU7//Of/3zMYx5zwAEHJKHKwyYHzjrrrJVWWunXv/5180Hk/5/85CecX1/60pciz/+rWdbF/vvvXwkv6Rfvfe97czoWmAQHSh7Z8H6GLbfc8r73vS+rYXjUPTG+9a1vPe2007761a8uscQwUR2S0c9Q2Hq+zYyC77333j/96U8/9alPLb744jkDf/CDH3zpS196ySWXkGgJeLrYU57ylG9/+9t3vetdgWGmY+9DH/rQox71qESv8mgkB4ogG8mifgDvfve73/KWt1x++eV3uMMd+vUcGvpb3/rWIx7xCK4xhs9QuN/xjneIYHziE58YCuGcwnPQQQcdfPDBgaQbbriBc8C/klczidx8883veMc7fuQjH0nA//jHPz7ppJMaAFz+d7nLXRK9yqPRHEhoa+VRXw5cd911soROPfXUvh0Hh3fUP+ABD3j2s589LOaHPexhUjqHxTlnsTmQlllmmd/85jeZFIa8is997nOZ8AVsQA4UH9mAzLyFPbLKKqsophsS6Vi4WDpsIn7rsXp3dwoRve5nC7FVtor81V6HAa/COuusIyK5EPkxp9+p5JGNVlozIcQojz322P322+/Wt751ZpcpgZGkr371q22qNdZYY8AhPv7xj2+zzTYDIpzjqNQ/ipMcd9xxnGWZpL72ta+lsfJLZsIXsME4MKfF7Lwi7hnPeIal//vf/37WqT7xxBOtj89+9rPDUvKEJzxB3GBYnHMcm9QKStkLX/jCfDqf9KQn3f/+98+HL5CDcKBoZMMcCX/6058+/OEPk2VzwWv7vve9b911133sYx87zLv9H5Y//vGPDNWNNtpoQJxzH9Xtb3/7HXbY4f3vf/8f/vCHTGpdaCF2yVOWCV/ABuFAEWSDsHExDn6n93Of+9xh0E2AJVwLMzgln/zkJ7fYYovMXIQJyJ9zXZ/85CdzlskozqRMKdjtbne7E044IRO+gA3CgSLIBmHjYjwp3PwumRoG3QRYUKK37TQBjo6uZ5xxhi3d8WChN2266aZyvqR6Zb4o94Ii8DPPPPOvf/1rZpcClsMBFuiPfvSjr33ta4yDNnwRZG2e9G6R0/iNb3xjWFOuNxH/30FFgQSoe9/73mNjaHeUjM47Zku3Hy34Ftm/3F7nn3++RP/Mlw1KHB02E76AjeSA/DthNPX8iv8e+chHvuhFLyLX/qvXIJ62RRxJSHE85ZRTZp0P11xzjdl95jOfOSwlZ5999m677TYsznmEjTaKq64/zKRZ6pnItZtgM+EL2EgO8FRKUQ5gLmKQbS43u95reI3MLDq9R4rYAQH4Vq+99toBEfZFde655+ry6Ec/um/HweEDJeorh8W8yNqVgY0PfehD/fH1r389k6t3u9vdVl999Xz4TLQTgrHLEiS56Emd/HhDpDHHcKo8ufLKK2NPxdxJkuopXezNb35z+Hf55ZcXdFJyX++bEmT/M+qnTQQjy41Oa6+9dvvR9Fp4pqid+ck+g1OiDGjNNddcccUVB8fcFyFKdBlWpCoSsKrkXvQlpg7vrhuBgsRPVRs0ySiJvjvvvHNi9PAoRoMrALjJElKgPa602EsvvVRmbPvRbLVYG4rhY6O/853vVMceexra5Sd2agxpzBVO8q6OX6W9WuDYiB/4wAdUpFZP2ekKuap/mflOi3rfaC2xdz7mmGOQKDHqXve614Mf/OBb3epfUs/ckJQuGv/zn//sSrmXv/zlFTqPdtlll7e//e13utOdYvRNo12QiJ4p9UENoHj5NIZI4OR6JENVAidgPMJJrhb3Gqsnv/Od7+y+dvOEk25ZkLZKSaY5y6V02Z7DRyVQGlvsqXlxe7KNFwMYox3lqp0m+dIPqsK9bGOMPkgXXOUktvrTFd2JsQgm3hnTlBm3Bf+xj33su9/9rpyyBNo58sjOFZatC45OwlhaNJWRS72zLyF4/PHHu0Wyeupse8lLXkKM5Hx45eEPf3jVkb/yqquuapSsRjWyrbfemiwLRLsG03uqhvUjHEMFdcu4WwMbOVPue+APnpWZ49vedttt3/CGN3QycaqNYfr519OjSFJ96lOfSpe+6KKL3KmAjWq5xfXNBz5zQn3hC1+w4W9729sSbWlUsafWikN1JCWx7rH2ye1K8+LqwRj+GWgXybVtxpZiKCSYnFiKNzKpBQ+ylxKXiXkaYAJEdu5I/cNnU8YO+IiGNS4vcKgrFOn74RWS9DnPeQ6VpSFnooIs8MsVS6I2bZ+LYtqnPe1pNLWKrb/97W/pYsaYBqNzcLqpznqlr+YADwjzne98B7b73Oc+CZxOPD6I97znPfhWgeGtk+BBD3pQ1cI4dV9FnasJnO1HpKRbYtKUtHuNbLHK6ZIjwWIA8tpk0s5ibRPmO2Id/jEKc9qDtyRfMPWFz6FhejA2Ts6d7PZ4w6DLJ8k5vfHGGzfgWVEhWygTD71evjGrsy2RUoJMkbC9Yae5nKQ9Evto5ZVXrtrpja4xmeTQaw/Rq4WCyg8iCbtXr8mBwydw0noQa/FZz3pW/RovqhNLx/kWDPaKjHve856Zxkub8hxK2r3SLRw98uPC5VlpyNjT4H8Y+6ViaPPbRZM5DTE2v0sbkg9UI4ncftTZ0he+E8nMNIZtvskmm6SHc0aGr9ilwWJPeVHaQnD99deXRs5OjPWqt7tahiOLBRM0O2Zi/WlKkBGiQOueYyLZa1f9LfHqb6aTKuUcgqYHg9RQZji9IdqY8VdjWg/ioGHa1PsG3rav06uztD1WuiWHkjSG9tMJ7UoKsnffcccd25hnpkWkgqHwspe9bMLhghelMxWzEzMXAXdtPnwnkplpJBp23333kSeNeRz7IymU4thlnJSynCoIBg0TkKr0la98hVvGNm+Iv6izHxOZxH7XBVmQVve4xz20u96kYjTDlaM6/Z6c2aIH0p3dIi/RySce8ueJ2GbgOA+rDwLqi/U+31CPkLLLbGZa5LC3PqTpDOKDiz0B5lKExtOYIKu2nDCN+628iPnjmqGB20tOsETKfg4lCSI7H1k0k1yj6Eov96Z2XgcihsXlakL9sPsa/tbMGe+kud5oCAd4p77ca0EGoyS/4hINuvSCH/kuUwKwqUPWToUf8w877DB2nKK0KlpNGuyzzz5gZEdLkdtuu+0SS7FCJVLkx1wrRpY/AVvDt8WKkktxyCGHNEyT+ss6jRz5kIRdEx41NLKUINONQ66KF5Ajbrl68Ytf3GYoTx7rI6FNyBmRIeG7ylbV1VdfzVzVpXN5tZHzJW2//faWOy84h4u3ktdDwKNNRKIOzwOFBrGVhCATJclcXpLumM9tehot119/vZa+QT3LIgimTvxY7cDhIOd/td8EjoV7SEPhAmdGLDI7HiWdBIRGS4c1MbZRRrCqnTbp7SGYe35OPvlkvgguD3aNFVId2vkz3sZcbxFkZNhatG2wvgtyPEFWz4Rq05DZ4uDPrHZymorgZ6INYAJ3tkzDLUusSJ3n/KUu0amDiLG6wmmtxbHKj5EWZABsefF33rejjz6aEHSeQcidAnlFpD1LGvC90LZilCNgpPkZFWTkse2E9F133dWC8C9Pp43UORh7MxHy95TEUa0WjFvyiyFG4ffNhU5s9UZXSgggHHXUUWSZ9xECJ8WoLWKUnX0RrJqh81FolC+TqWK4QCLH4ya0TzfstYBorxxk/N+xU8gO5w6QxicQKYrvwDQE/ls6MSnm7VDidy+R6uxNwFPHJqmvNMVyf5w3jekg3V7xilfwvoWNYW1YY14zWKB9Zzwx12LBkl3aBbBjLMjxBJkz2yR2KqQJshuPmC91f06iIwuxb7St7eZnu3HwubxI7ohdT4GwtusOMk9d/50u2LLCVey5ni+4mwj04D03HHWEeiWhp3oRko6tlhBkiVf+z6NYcUCokq1/sO91r3ud+2E64cXXid7ORxptBmGv+lMfKGMGxuCrdnykE9nVdUgaopzbWN/NNtvMxQ+xp9Nol/lBFvTC7F5/E0CkxnqF8otwFQy9OAbWaMcWaPkyMuGdCtJrEsDmyMcHEgCJR9buaqutRpVowDBMnHlkXNUeFOSw0saY8QQNfB00rzbAGAuSPMJbpn0bW6wlBOnoUzGAGW7ninrVq15VH5SyTx1z/tUbjzzyyFAMhHuCg+ERHZm3tAL7zGc+U0fVwMwz6PyoAODnXqj6Olcc0vUR8VYhBP97vdFi7nWhXtTZH8zRetoIJTCWMm62YlltvHTypOrBXXRzY7VDGG2565pT9p0k2/ojtmFMkQHm5Kz70do4B2+pH1aZyGMOsqq7m/z8DYz+lZ8cG148M7RkXqhClNOY2cKGZdL2cmXWX5+YZk20FVUJiQ5zQfQKmKz0d1gPY8x4jOc2G5ztrMbxFqQl5116Oe/DjujVJfYuU2qn4zPrGgvGrNl0TDkuWipeGJonpB7WlP9Yz1BtkMcX5hgjvEI7PKHGK/zLRG1Y3HhLzlxwwQWTvGZKkPFZ1MklngnOzsHEaMiXzkeu/WUWPe5xj6ueOiRZNPX8qc6OGm0zrKyLLUIwfb0fFqf97rGxxm63XoNNl4nBsWNZOBUc7+kuBBn+420arHoadk4OMY7ct73tbRQTwPKkO/GPvNia3cRTS8Nqd7d7afTBN9x4ymNl6uvHWFjBYT30mnFLzhAhj69NQywLd+wFKfTWNpPb41YtoT6pV5cEtmk8Il9o5Z0LRpAE5ZUDh6ZST8ExZTGdBp3icvz3VXptXQiykR1jcunrr2NTW+pjp9oGVN0+Mqcxt7r3rOtZbV9DRY0yztjJg0TlTfVMNJ4XXoORGZKsDN5i1k39nfGI3pHIeUEG8z4x6+rpbNEEQPUIu3MCw3z2ooqcWbEAc2MsGWROpISDLMBTlBxlvRLiQ+CPkBr5dpavT58ptmfkKjMQnGp3MU3tYGsFRssW2PJpOEeUVORGd2iZBu0P4gnU2AMNP46BJCQSZL1mnB7Hkc/tQJz53SCAD9sa61Rmx1uQVp391lYw23yrWpzW/u7VpRMbt0xnhWMb2ESIJ7bbYy30fZ4p/Bf9b8CQPmYkBLsaNgf/Fx934r0oE3VFvp5Ga83YngLx9eF4+gm+eq54jOBEe7cgC4kX7SynGCL+e7ymazSyUcLCrS90+5ML8PnPf/56660XsNl4IphtAU+i08UacUMp2r7SnBCpRH7IDomRynQPhlsMoGpPTFW9bxAfJq+RQBDDP9KuDB35XC2gXsdUviALM8uJQ9bI82hEshEgWB5yoTvfghbGLchIFO069NBD+Q3q806y8OmSle2+HPw8YnU1n3quZsvRgtu9ZlzszDEjsEP1I9EaoVVBXhPdJiBnQbZ7aQlSKRFpafcao0sbiRZFPJ1qbxu4fXK0YRot5g6j2oLMmwa3IPi6bWidY3ui2Bs8R74zKQyE8mofOe/F9xyBjfxqq8Xnx0aSOgKg7mCr/g4vZnl1Pm030uAMw65uPAqrWcpJ1c4Tz0QN3sTQGNQB5TtttJJI6x5xe4YuZn20IUNLsL3bZMTgB2kXTvXugs2Z2ML7klNpeN4iK6DtLE/0CjGERmwkAe9R0ItZ6w0wBmDOdVoOFe9OTa53N02vfOUrO8f1iKJUzSmR59ive4L7zjhtAgHS0OrDWXVkZScBOQuys2PQiUTiOp92NnJ4s86Izs6nM9/YdvYHGrg43HrQoEdODB2CPNIuysex5Q+HB1bXN2/o1cAs3EntAuwplUg82h/8cdQ066oxkD3LYUVoNtp7OftN639pZMStRA9npsiX49FyFBYVYZRXkhaH6FYlS7ESqKpDeg0GF0cGqU979EqEsWSCuhVmzTmoncztIaSfqOyxGugaXDnOf7ZMIpiNWWKIDRraaIdtydGDKDjyhzlNrAyaOd4yr5DK/2URdJ7zXD+stkytMLxRDiWNdydVHVeUskbmnRBVziFJkJGeQpBVUYcTWNiLktXJ5GCw8DPoxR1BNycu647/vjMuXoFywXRyv3LKxLxjSMpZkJ2UB89Jr3p+XRgHIzPmO4ebyUYiQ04sBtYHFWEjsAS1OVLtTf4H+pQF9sY3vnGk148okPjC6nLlt2Vsgqgv+ID5bbcPicnSTITvcljxr3lpCMKx/+U8dotjo7t1Joir0fom5hKh6EZguI6HaOdXyjnZSIfXvOY1Y7/CeB1DhvDg30kTXLMTepFk9Zh1MaP8XuFGWTkr9S68v6LyxG4OHv5+g5rcAMx2iH08zalrJ8gBBCkeans0Av/VcPkzrgvZhwC6XujunJCuGKM8f0E2MIR7q6W/xTA32kPsK5GTlIlnQLCYRsb7LjUstr/YN4RauFstRkwMM0ONTBAUinXUzhPdCdBLI4MnGrXMEYR1GANTmoKNGdqDPyK4Y6gellfMn0e97NRKAh6bilNs5MlG6+G1qRdO9X2F8eDD7fiNS+PGQ1Xv5ZAZea1KY5QxKKHkOj8dlcGhExDKXzNrmbGLcKsEOaKviAdvbuyeCfcdUfbDeiDRJEbEMkUyZzxQK64t2ZLz1OhaqAzETSf/8xdku3vIss6/O5MshiQfvj3ijLXgXlgDnSMKuBFGxE3meqgjsd9D9nsnZo1MQjkG6TrlWN9G+2CCTEBdiK3uNrZwHbw57mrVKnK7MymOgbEvJBz3Uv5jqHq1h7wBikCvXtMAJu5FmftSwrqkL7PZK5J6FYrz7ArUiNbzszAT/B3bvaIcNkMjDD05H1jf7FM+SnkVjhOrLlaNkL8g21TRGjSGW8baT9stfeHbGGayhcs/dp2OQy5nC3dSy9WT/hBqu66gE09O42CCzGDWkwBHdfO3hcucbl9C1CCL2Sg8V78RKIfuBgz/Ipfz5JccjDE0H6L92Vd8jDHQyC68h9ScvpSEijlOkICf2kIjY2yOHK4C4K2nDalG4F444IADYh3beQ8xyL7tDjAaPVcdsxoBMYdL5oLsHD1oZI0EqE7I0NgXPoFqBh5JwuDWZNO0x+LfiBlSbeBGCxMtkSnFsSBtUCRwJJ4cgCEFmf0sFk63D9XLKlHoaCNDwpy+Ewog/gjWBHUgZqrkMGJsGBqBqsy+4mPs4dIdqYdWXmbaUUDl41q879W3yyxo0jBh6bcJsA2oKpRxoyfMBApjQsy10ea3ME8EqaTFEVXBZ9fZN3NBdvYV2JXhkX8vW7i5LF/wdQ46eGPMP+MIZD+qcm2PGFNvG5CdmKlyiQIeEed07XAnzjaF/25J+OHGe8SczC/3G2+IRi83RPPNDYJqPCRCq7SARF7IeGjH6EWam1dx4V59w2INZZVuJuiVwBEGYiPgwNiFmb2o7QQWU0NArBa4s0t+Ix+uTZWuS21gc7bxPcU86PlDDwjJbUfWxxDyhY29bdOYYyMKaMr6jD1V3RlyPmIAjfbBopaZ4y1IMPuH+GBTz/rbhe9ryT/oRUm45CNUqgtgOYp6dQfMOcAg7dtrWHgJ4u10pEGG4H0zv/lSMoS8BPsGGb0gyeHAkKZlVOtb6A+CAzvxra0ZY4DcQqk6fSkJbjLWJd2WszKzRKH+Upyh7WvUZ+ytw0CylmLesQkpCZGQ/A/ihfLVSe+lmZDoRax7EWQDTLhbav2E71EPgG4CFCwglQZshF5uMqFeFWOUeUZlpk9kAhrnX1fKJidgfjwKPJHaK2Ay/5gyxygugmyYCQmfehv5idNhBktiQQlVPLMwvsIkCYN5qFBsZDF/cvAF+FDOMAdcvfxg5EsSZNQxUayRkAVgKA4UQTYMJ0OZxVxQykQhZcb2pSRYl1JJYllgw7BpHmIRP2E45wsyVbSSyMR/5uG7zmOSiyAbZvIUeIbrvGlDw2AcFwujRgmkRITM+5HDONx8ioSLXdnmuoCsmW0XCbYhQ4sCUnkek3wJNIa5tKc4kBMRKDA5HAiZwKHWPwd+ejDKfSUxqtrtNYREsEQ4vBeqBQMcPi+Un5cgY0DipMTgBcOB+fIiiyM0JefKsz4ccM2LnCOxv365fH2GyIR19YokDCU7M1+zlUnhvABTl0K9UoCVSa27D9wkwafW69qSTOQFLMWB+SJx5wWdcvwkSUs7mnVqZecqvZ7h77DM+lsPS4CPX5jN/Cxfl7uo83fz1bBkFGw5HCgaWUrKj/GMQSdoRaJNKacpnyRGrnodKbIkWn6vAhk4oHpUqZYYSPo21Dq73LtHGfc92sSVeYW9U+JAEWQDM5Z/yoVFVKFwe+rA2HuiI8jcMRuuUe3ZdVEHJ78UDrtmLvPjLyClXLhkLfOz04s6fwd//xy1rcD04oBb6FQXyynr1WsawO4zcD+ne++mgXwB4ySPREvyjUqF+moqeMcWME/m+KuVWsupTJAYvBvK+17xOg1SGDtSBxLVwtMYdF7j5OpScOqTH5lvoTJcNUXsXtxMJAVsQg4U03JwHfffCF1npObOjUuZtsm06FhsMT47l4D77T7Y6Y2yMDC7JIuF6Ltfu+22W+YbuZvIzbfh4oDMLgVscA4UQTY4S/+D0FV/zEz3305xjDzURKrrD2XJjrweLg/fgoWiW/nmS+enhTvf+fDDD5dldtJJJ816bKeTvEWnsQiy6c61W6Rn5brH9lvNHUratM2dFgWnvTRo8AqYZj1tcO4wcLYoKYJstjhfxi0cKBwYjAOl1nIwVhZEhQOFA7PFgSLIZovzZdzCgcKBwThQBNlgrCyICgcKB2aLA0WQzRbny7iFA4UDg3HgfwGr93IwfkzlVQAAAABJRU5ErkJggg==;" vertex="1" parent="1">
          <mxGeometry x="470" y="470" width="295.65" height="50" as="geometry" />
        </mxCell>
        <mxCell id="SthQR8cLq-xNoR6oxP_u-37" value="" style="shape=image;verticalLabelPosition=bottom;labelBackgroundColor=default;verticalAlign=top;aspect=fixed;imageAspect=0;image=data:image/png,iVBORw0KGgoAAAANSUhEUgAAAYUAAAAsCAIAAAAFJTONAAAAA3NCSVQICAjb4U/gAAAVfElEQVR4Xu3dc7Q1ORIA8B3u2LZt27Zt2/bMzu7Ytm3btm3b9v7mZE+fnE53v37v3jd7vzf9/phzv6RSSVUqlVJ6+vvjjz/+0fw1HGg40HCgAzjQfwesoVlCw4GGAw0H/uRAo48aOWg40HCgUzjQ6KNO2YlmHQ0HGg40+qiRgYYDDQc6hQONPuqUnWjW0XCg4UCjjxoZ+McPP/zQcKHhQCdwoL/OzPf/5z//+eWXX9rFoFFGGWXjjTduF7a+h2fBBRfcYIMNVl555b5HWkNRv8WBATtwuVTkKaec8uabb1pb//33v9FGGw0yyCDV6/z1119//vnnb7/99rPPPnv//fdfffXV+M6HZIEFFhh//PGrkfxtewcbbLB//vOff1vyG8I7hwOdqI/666+/888/f6655qJlfv/99wEHHPCII47oFsvYVk8//fStt956wgknvPXWW5Ace+yx3UXSrRn7aeCxxx57ookm6qdJaBbfORy45557Lr74YkbAK6+8Ms444+y3334jjDBCzeV1qL9m9QcccMBuu+0WyLjyyiuXXnrpmiTFYL/99ttll122++67f/zxx++9994QQwzRAyR9eAh9TVYee+yxxRZb7Lnnnpt22mlnmWWWPkxvQ1pvc+Cll14699xz//Wvf5nI6VtmmWU++eST+++/n3qqM3UtoDqIwHzzzTdffPFFTeAuwXbeeef5558/gK233nrvvvtul0NSgAEGGGCllVZ69NFHp5tuujPPPDMF+AtaGGg1Z+FpMglrArcOxmx85plnnn322Xfeecd//X777bcr0NYnpAKyoqti6qbr/8sBglEz0HzNNdecc845P/74owU7fVtttdVDDz1EusL6u5Twtukj1seGG2448MADt4txFCrCRhxxRAg///zz1VZbjbrtGfKhhx76qquuuuGGG2rytGezFI46/PDD77333sKutJEyonn/smwXDh9//PH77ruv+NFss83mN92driq0dIsQpha0hajcCtdff31hV9P4V3KAirnzzjtd1UF3VEx91113HXnkkaIoFTBZ11JLLUWGs4BvOHFZbqpLCS/w1+S2rOD77783B/0y5JBDhqU4J999951G/zzxxBMnm2yybBG6Fl100ZNPPrntYQhKZPHFFw9U7b333vvss08dphTC3HLLLWOOOeYkk0xS2GuKNdZY48MPPxQXB+CI+guQMeEHH3xwfY/moosuuv3220866aTCGQsbb7vttrPOOuvss88u7K3TKJa/ww47fPnll0F908UDDTSQgQhkwAbqhOTuuOOODJtQnaQB8svw94AQOzXaaKNBm8NpVcsuu6yYwjTTTFM2Xe+1O4FTTTXVcMMN13tTdDhmAnDccccJrc4xxxxTTz01h+byyy8nG24jaeh08S+//DI746abbuoyp5SO1SJv+8gjjzz++ONspQDQhYRbSvpHaEI26vnnn497CTRi6KMnn3wybt96661PO+20FE9bWrbffvtAifucPLUFZxmS4E2MMcYYti2Gkbk79dRT8dRGlo3NtXMwhWPosprwGdi2225LJXV3VA4eBkxj7+TaP/jggy233NIOxu0zzjiju6Rsxp4RQoTYXKQ5RWsNOPPTTz+lXb3R4k4WPXQxuLcRzlztjVn6CZwPP/zwpJNOuueee+JJvOD999+fjhb6yVFhE2eeeeYXX3yxZ9Rdd911DBRnKje8QsL/vDbTv6+//trZm3jiidMuLa5TafWsy3JF0ZlkhcCtN1INM8wwQ1BJo48++qeffto6zjIMwZVwqxcCsEXTPSuE1LjmmmuKFpf1VrSL5rDjvvrqqwqYLrt22mknHJOmTCEJ2eSTTx63zzrrrCyyFDK09JgQVhWruRDtpptuetBBBxV2tb1RptUNr4IkBFn7gD669tprXRLdZZTIDpP/9NNPTwdST9yd+eabL9fFyFCVlsLXacFn8V93TwpcIeHF+igcy0022STFpWX99deP21079GshZLsaJQ65jUElLbnkku1Cm+KpOMaAt9hiCx5rOiptUTw17LDDsqrSrjotq6+++jHHHFMHsgxmpplmwi5BvUIAWxa3zz333JdcckkhZCuEkPKxxhqLOkgx21DeQe/dYemMWli4eNIH9BEn6MYbbyyksaxRUFmJ2TbbbFMGsPnmm2POgw8+mAFId3CSesYuAZ/NNttMZAo29ooYQm7eMgkvjmdziyxunnnmCSrAfx2t7Hfsfjufag16u7R3ggkmYGuEBVDzRx99dLaY9v4IhDufGVpZp+y3Hc2CStXzitrKoA8++ODVYGW9zApXU1lvl+3cail8prIITiEhdGWMxDoHHXTQQrStEMLEXmihhVzIKWYbqvaCPZ92NS1t54DDu/zyy2O4sF0Z8hBXdXlkAHfffTeFMvvss5cNKWvnGos3/fvf/zZcJooIiVfmgMskvFgfUW/Gx/pIKVCW3tpjjz0y7GqfxLyJV9nitHO4hF0OOeQQwekKsOouCnXttdcOMDvuuOMTTzxRDd+DXsdY4C13jBVSZqj22muvmmhRyvHOAbsinMDzzjsvpAX41ZJWHKVY14chc845pwid4HrZdNTNUUcdJf9YmIy77777bFa8fbw/VSFlhAw11FBlerZ1QtzkhVSgsayrEL5fbCRRF1xwgQQR5mc7ZWddrjLfKALAamML92oZBNeYfyfLkTkZKTNDoQlbJusq3Hq91eunEJZYYgkku/OGGWaY4YcfnvXATM7NWCbhBfrI8SDu/MmRRx45YJEa/Oijj7IIOfHNsD/wwAOioSl5WYvSA+tjmXN2aKVMp1QMKesSSg/5OwpulVVWSY9x2cCa7Y6xXcmOMXuV3MQPKWLCK3CK1NJrKVuInfIFBteqq66q/kBwh+drw0DSFzFC+8edsZ50llD64O4SE2HXGEumc2A58xajGOqxfswRQnQsI52rdUJCNFS0MUWuq34lRDq881tEeURklJsK3zpNfAgSJaKMavFWBXFy7VLGHg86IEIt8lC9QZRNDP6EG70Cf3ieRYNkMIVHu8v1ywVRZCQw+2MupbUCpRKe+pPBihlvvPG4qQINsrNyxmXRx3XXXbcs+gvzG2+8wWXIknGUGmplmtNJa7YwizIFQbXVHFUTTAWm5Unnr7DCCkLXIcN46aWX1hyegYW7zgUYD2SwSBRqOeyww2xPnM+ieshlbha52AMPPDDXSLYsT7FF1i5dko4NqkegDSGLLLKII2FGOaYyQtxmhb2tExLqY+OoRLaGK664gpNYtiTtivLZ3XX+pphiijqhur8yfuS8UPFZ9iMENMg/GSAJ7nuSJlFAQwUOuF9FCSq4EXd1K36EjeZSXVGNPMgMOy4DG3fccdN8SFvWH6YolPC8X2fpwVmTFCTQ+KXce8UVV5x33nkLlSs5jguRcjDyzXbCxKE9PNdQPB67EoVoyxqxVQWQ8gIAUtpeyVZUzZQhKWsPhHtfkoVdWJWSiSk8TUGhIM2jlrQXTzRS4nGX22/66afXwkV3xohU1ssOdRfl8AjSiUbnGj18oZLibxVgKX7GYMG8ZUheffXVoZ0BZftCZWkOYfjnLrvskt5gulonBBNUaaSEQI5ALgxzr6wayAshyrRwwblGlnsaoagzsJdg7LX4BvWXleM525x9GsqBwpAQpnENZGwnA0FxtH1JLBo4U2s9nsgZZ9HjYcxwu5+TYZq0ev2htyYJhRJeoI+CtS8cG2x4ckyamZeF06CkzItxvG2MGEc2kLnkd/BUC7HVaVSBzu8T1QYsbaysi/VbZ2A1jGPMfs4Fj6i/7BjzwPlHIRLsADNSFNEU4sQTJyQXkVGyEKoWsBdvM0G0hdgy6qij5lCZKJSkZu1WqLRSGC6GNHbKKaeMW3Jepy5mCMWawXAYc0MKlRH41gmBmQuQIySsJHBSV5k+AvZ/+erAGWecIUUTs7TwtyKJsngijwHP3eLZwOzecpNpJAMMW65NBiADlcVD4ukU8Qoy5hYgBsJRUDMdtwvjMmfSFEp4aDXhhBMWUhEaXe0iKi6AzG0PNcC5o22F3V1/xaSphAPO6yOhVscSs0YaaaQMl/NTyCwABC6U/KYT21dcUMSUdQUroFpVp3jSFpjZXG5dJKUbkMLXaQnHOM6sGUX3ZWMPPfTQsBlaODL+Ck0nvXjiJvEXMy38pj4MjM1DTytUewXTKV4nOygnDTxHlg6jNQMjxKqxcvwM10lMCPM4WJQGugwotThIX8GcXiIkzIhAP8ous4pV9XaXAEWolqieqMzefOGFFwQoBGsKJTM8qAp3UobfBsnHFxasS2/FSdIwhB6UuHQTxytUhV84Y1AxhV3ZRoiTkk/2WoYwXFHp0a5ef81Hs9m86e7n9VF6uxpMH5XtDY2Qi8VmkOJYAnXxQNklVkOaeCpDXtaOxfxtHhOEZWJRNrasPU0pgsxulddff11uIiuZJ0/yo1l9fc5MDTc/LRN+xDMGZRErspBj4njmFoarWT4hdOGneyKWzpAvFzSNxwZCYn1EUjMTUnYv02hsE4aeOJeAa2Fat3VCqD83XI6QsFoEMn9Sicxo4WhITpXtV9yOQM/lykoW6mCIYRh0cVi3u8OVVhlSyM+AKr2TWADulVABlJvOeVG8mmtkUdrQtL1wqcEWrngprXiQeGNgHHgh6vhZeLS7tf7CJYXGVMK15/VRertWYNSFLyHKkANDoSrM+ODJXiuzDJXpAdi1QF7D66rqWXK9MhdyVfztnN/RLSQ54ArCWTpKQ0M0NIwCHA489S3B6T6UKZMoCb3h8GNLoT5iMMYPhdjYYudpQE1OKjZRYc5dqlrUKKnjWHjhhTNagnlLjSpkT7lhC1QDBUr1knWVEzId8cUYj2qdEOEhCHOEhCkQWKinsgVYWMqWlCgtRKhnr6sKsbXYGC7IlDTmvCuN/k3vJDLgmpGPb3HqwuGCLZhD5RX2Cj4KvbvdxYtzAL6KVXi027X+VMIphHx9dogTldX1piF6xj9LIW0P5XyCR1kXC1YUI3sXxqbgpNi2XB4qRZVr4TkL4rZYvpzDiTVkWpg5nd2JkkNcbrnl4i4H1dVNjFgo2t1U4UcGQ7wuvPDCFJuHIJRF1s5vB0l35yCpFfazLEzW/tprrxGXuDKeeSjqlBsbYtiC5enUSktYplK/cRedTjmmwO0iRF2cmCiFnk6x66679mqpfTpjeNjMfky72tgi8iIwJFcb4/QOVDYtPNnzw1ZmR0wOjpKycfXX0K38GrQhzuDuzE1h9xlBghKFG6QqpfCFRuvrt4xUwoNC+J8+YoPJQ2eJG1k94ZKUgJRlpJzTKK6R61prrbXEhildcXtaVuB5nXXWCfsRIMXPHCdjK15yptMJzrn5RUPSrp61sG4k7HjjRIQ+8g1JYUJ/figwVe4Qoq1xjUKo1JDXEw4rm9SF4+lJrjfoFHuMtxLhlBEFwYpMkShRcYwZj1lXqHJ2lYkiMXRF03kE8bUR6u5CtI7FlBFiWxUE0KeyJ+5nY+Pp1CVZarqArKVFQpjDfPZC/FxUfCjsam+jG0VIWGly8EdciqLL+NPeWWJs8i0sd8kcAi97YGozhscTwNxJQlQ4z1wlfiwAFke3FtNdfUSQ1DA7bhyLIFSkjjmGIRXvTsiYOFq6sNbXD2cq4UEh/O97IwwEKlywipkAWh9DRgFOodmfs+uYOajF4ridsceVYMXcfPPNHnlz3NKQrbNBv/j+QBw2LrQqQyOdSpgYFIoJy+LrFcMLu4JfWdiVNWKLZEr2T3rEMdtuu+1YQMrYCpMs0n948tRTT8WY2YwkiT0oU8aekgP2KZXCRDUJpmviD5UothLypP1FVQixQBKlEzOB3k8LI3N08ZsMjBulCF1CVCSr00bYESUFse/TIiFiW+o23bS5ldhKoiVPFOeYqnehx70MFg61TXT5CdMSb1cxTeHzAz3G2eVAugY/QzWMhEOWQ3QnufZcHtSxCizHLdT3dYkwBsBSlWWxn15nuMwJfWQBIfLtnnCaylKrEAppEVHwsbvdlvVDnkq4xj/DVan+626Ll9PKFuJRDjnsmN4lKuq5QkPHw5mUzHtptdQW63KW9gIw9Jh7cKoiIeKOljo36iCexS0k/JGrA2RSlX0yIR7rMnAFxc6aXtgojvYSwnCwfvkgj2l9BMeukdTcF0JaIQRmzmDhF1fcvaJm7SWnn8AWopCFr97rr59/4E6qD99jSDGWXFFuW9ZfKOFhkW3QR7D7xpW0Qka2fDx9VCcwxJVwnuvwi33L4Cz0buoMbyOM4JH6FAhZlEwJP1jjVFJuCl/b4GnHjWwBN1uXK6EdaK4YLNRtpcWyXaKqBhA+4BXyXILjSeMXfq6ox4RIGBHfwjWwy2irwq6+3eiExwHEnhFbGO7pGarqUQRPbNQBz8Dasv5UwjP8bdBHcInSC+Nn8Q7ORR1DwChP0qo5EnqBSQbJEdQBLoPhpec+L1cGWdEuCsD8Fv0Bw+wXthTTKQtGMujCR3IVFoZPPtKq6bcX4unYLJz2nCoP+r3FSzUlymLUvNB9hKxQE2VDekAI21DCsfDkCGkJLKbr6dst7l0etwtA3RDXKffBv46lXf2tohDLa9f6CyU8kE8hFHyvto4vmsK4CQV6BVZ08WwFjEQiUrC4xfR1fHgOncpRt7T/V0E1wopeupLHrtq1B+UFFWiru5QgWbM3QQRRLEkIgxQKGMUfSMhhED/28DhX6iYfT5mKxFVP191eRgrHUzExZ94DXVFY4Tzp6rQquruE0Nc+cGHL0uowrBDG1tWt2rnuktaB8GJYnGIGNVEkBna58PuwHbhyAQpfrxdFasv6CyU8UP3ny6c2KmYORfj/ELQRpxiNbKgbtRWcgpcSTKr+WkHSs7GCgmU+S4qQ39Szz1+lqLpsCcGjYBYpAhCYN0TOJU7qxUi6RYiqyzJv3WdS+hXToEse/k0AGLkOIG+gdXq7lPB26qPWl5vDwEMRx634fkCdGUWaQ3aMhVIH/m8Cw9rK6q2EcrBI4YXE5d+E/IbMzuRA2/y1ttuZ8jJqoFXuq+ouTIpXz+j+V4zHZDM8lFqVlahW4+mrvXgiIpB9oMsd6PlIxfe6+iofGro6igP59yIdsjjKW5yVBpGjKfs/ecVLdZw4ZeH7mKwqVRLhWXMGwwfuENI6ZBnCN7H2UcrUKKMO2Zq/8zI61D7ymCB7TN/69ggkU1IV37VofYoGQ8OBhgOtc6BD7SOV7ErmWicvYJAaaJRRu5jZ4Gk40Hsc6FD7qPcIbjA3HGg40LEcKPief8eutVlYw4GGA32bA40+6tv721DXcKBf4kCjj/ql3WrW2nCgb3Og0Ud9e38b6hoO9Esc+C+AsWPvn+H61QAAAABJRU5ErkJggg==;" vertex="1" parent="1">
          <mxGeometry x="450" y="520" width="353.64" height="40" as="geometry" />
        </mxCell>
        <mxCell id="SthQR8cLq-xNoR6oxP_u-38" value="error channels" style="text;html=1;strokeColor=none;fillColor=none;align=center;verticalAlign=middle;whiteSpace=wrap;rounded=0;" vertex="1" parent="1">
          <mxGeometry x="535" y="560" width="90" height="25" as="geometry" />
        </mxCell>
        <mxCell id="SthQR8cLq-xNoR6oxP_u-39" value="&lt;div&gt;c = 1&lt;/div&gt;&lt;div&gt;closeness of&lt;/div&gt;&lt;div&gt;quantum states.&lt;br&gt;&lt;/div&gt;" style="text;html=1;strokeColor=none;fillColor=none;align=center;verticalAlign=middle;whiteSpace=wrap;rounded=0;" vertex="1" parent="1">
          <mxGeometry x="630" y="560" width="160" height="50" as="geometry" />
        </mxCell>
        <mxCell id="SthQR8cLq-xNoR6oxP_u-40" value="\(P_e=\) error probability per unit time" style="text;html=1;align=center;verticalAlign=middle;whiteSpace=wrap;rounded=0;fillColor=#6d8764;strokeColor=#3A5431;fontColor=#FFFFFF;" vertex="1" parent="1">
          <mxGeometry x="350" y="600" width="130" height="30" as="geometry" />
        </mxCell>
        <mxCell id="SthQR8cLq-xNoR6oxP_u-42" value="&lt;div&gt;$$P_M=P_eT_M$$&lt;/div&gt;" style="text;html=1;align=center;verticalAlign=middle;whiteSpace=wrap;rounded=0;fillColor=#6d8764;strokeColor=#3A5431;fontColor=#FFFFFF;" vertex="1" parent="1">
          <mxGeometry x="367.5" y="650" width="80" height="20" as="geometry" />
        </mxCell>
        <mxCell id="SthQR8cLq-xNoR6oxP_u-44" value="$$P_{QEC}=P_eT_G$$" style="text;html=1;align=center;verticalAlign=middle;whiteSpace=wrap;rounded=0;fillColor=#6d8764;strokeColor=#3A5431;fontColor=#FFFFFF;" vertex="1" parent="1">
          <mxGeometry x="352.5" y="630" width="105" height="20" as="geometry" />
        </mxCell>
        <mxCell id="SthQR8cLq-xNoR6oxP_u-45" value="$$F_p=1-P_M$$" style="text;html=1;align=center;verticalAlign=middle;whiteSpace=wrap;rounded=0;fillColor=#6d8764;strokeColor=#3A5431;fontColor=#FFFFFF;" vertex="1" parent="1">
          <mxGeometry x="360" y="670" width="90" height="20" as="geometry" />
        </mxCell>
        <mxCell id="SthQR8cLq-xNoR6oxP_u-46" value="" style="shape=image;verticalLabelPosition=bottom;labelBackgroundColor=default;verticalAlign=top;aspect=fixed;imageAspect=0;image=data:image/png,iVBORw0KGgoAAAANSUhEUgAAAZsAAACKCAIAAADzB3AlAAAAA3NCSVQICAjb4U/gAAAgAElEQVR4Xu3dd9y/U/048DRJkayspFKSInskpUjIzszIyMgMIVuEjIqy96ZQIiMjIxJZyYzsEdpFQ32fv+95/K7f9bvW+7yv97w/n3P/cT/u+5zXWa/rnNd57TPFf//739ekn4SBhIGEgUkCA6+dJFaRFpEwkDCQMPB/MJAo2uSyDy688MI//vGPk8tq0zonVwy8fnJd+OSy7vvuu+/EE0+02m9961v33nvv2972tsll5WmdkyUGpkh6tEn7u/u+U0wxxUsvvTTDDDOgaB/84Acn7fWm1U3mGEhS5yS+AZCzSXyFaXkJAzkMJIqWtkPCQMLApIOBRNEmnW+ZVpIwkDCQKFraA/3EwHHHHXf33XfH93jOOedcd9118fAJMmGgGQOJojXjJ9V2gYEjjzzy2muvnW+++eLbfPKTn9xhhx0uu+yy+CYJMmGgAQOJojUgJ1V1gYETTjjhkksuOfPMM1/3utfFN5t55pl/+MMfbr311olTi0dagmzAQKJoDciZdKr+8pe/WMxf//rXAS3pBz/4wYEHHvi9733vTW96U7dDzDXXXKeffvq666775JNPdts2wScMFDCQ/NEm8S2BTHz729/+/f/+TDPNNDPOOOMXvvCFrgTDjgh6+umnF1hgATEJH/vYxzoC1wHsueeeP/3pT6+//vrXvz55fdchKZV3xkCiaJ1xlCAaMMCDd7nllpt77rmPPfbYBrCOVf/85z/nn3/+tdZa62tf+1pH4ASQMFCHgUTR6jCTyqMwcMwxx+y7774PP/xw7/FVF1xwwUYbbfTrX//6Pe95T9TYCShhoISBRNFKKEkF0RigmEN9ttlmG0St3Oi2226755571lxzTcQOK3fllVdy7HjHO96xzjrrTDnllGV4MB/+8Iep1VgYyrWpJGEgBgPJMhCDpQRTjQHuGvJ5bLXVVuXqq6666le/+hXNHRXb448//qUvfYnRwG/c3Cc+8Yn//Oc/5SYCtvbbb78f/ehHN954Y7k2lSQMRGHAxZh+EgZaYOAPf/jDW9/61k022aSy7Xbbbaf8pptusgtXX331V155JYCFkgcffLCyFUpHm7bKKqtU1qbChIGOGEg8WhTdT0BlDJx99tmcQvjHlqvQrze/+c3Kf/GLX7z2ta897LDDMq+OZ599Vvkb3vCGcisl2DQcHzbtgQceqARIhQkDzRhIerRm/Ix1rexA22+/vVurX7NcccUVd91118jePvKRjxAq+VtUwrNdvvGNb8Rt8e345S9/mcGggCKffve739UlBUHyZpttth133JFIW9lzKkwYaMBAomgNyBn3KnThQx/6kN8mOtNMMzE7NjtzoX3/+te//vGPf/z5z3+WMY2rGlX9XXfdhfqEpU477bRPPfXUW97ylo4rR6QWXnjhb37zm0hPHTARcvrpp99ss80OP/zwDIafx+KLLy60oK6V8iWXXPKJJ54wvTqq19C2X1V///vfCc7iGXj/rrTSSv3qNvXTjAH32TXXXGNzbrHFFoHNb4avqO0olyaAccbAFVdckR37ffbZp8VUX3755Ysvvjhzjv3Od74T0wmHWJsJQWwADqwZETKDCSXIhJJMs1bu4Rvf+IbOb7jhhnLVMEt++9vfmsZzzz03zEEn87EYmvbaay/6WVdvO1QkPVoFlZ9ARZ/+9Kd32WWXMGFxSNzuu508R4rVVluN8MjZgvPE0UcfbSd17IQrhqS4OMQGSJOhRPvoRz+awVC9TTfddCussIIhsmmXezAfhZdffnm5apglcDLPPPOIPB3moJP5WKQEcoY90yxtNGApUbQG5HSo+tvf/obd8POTn/ykA+ggqw866KBFFlnECKS8z3/+8y+++GK70UiRN998swPM8aK5B0Pccccdyy67bLNUiKIxXOY9bxk6taJfu/TSS5daaqm6UUims88+OwpbBzCccvP/+Mc/no1V6XGS1fJQGc6sRjXK0BYI7csss0x5mffff384bv4o12YliaI1IKdDFXlk2223vfrqq4NHQgfogVWzG5533nmU9Eaghhe22XqoqaeemgSKk2ruAfPieKNNzWDoYwEGT4dismP+7Gc/42fb0Nx7CLfffnsMt9jQSY9V2dFiyiAIY4dfeOGFyj4ZMUa7Bypn1d/C00477cc//nFln+eff/7xxx9PG8v2LVuBOOLWtxEl789//vNwkdClSrdHrRYGfeSRR5w1MoTPUTmNUBhlGfjNb35DRiDivvrqq5rhDIP13bZWGO6uJZZYIqg/GgYbThW0Qopgw0EPB8VcDSoZtKHNIVvjueeeu/7664d/PftU6VQRiRAnuZnt33vvvUm4PDMCb1jXbdCpE04zAPv1jDPOIFBssMEGOLW6hsp33nlnZII77nvf+946MHYJwu8zzzyD8NmTBsIzOldUMO985zs33njjpZdeuq5tx3Isybve9S6HCn3nT2fD640eUMxDoa3zLCucI13u0/ypC5tl83Kr1iW2ImpCuQ4J3GWYjEn9zixhwrRRZCy8knb96wceDjjgAC7T+R4EeFBcuAj9dq1uvvnmzEFYbDrWOeaYo9uxXJbsMKgKnUN47od9Jig0Q1c2FXLUFPwbr37Tl05drfkm1inSBTmj+4jvahCQInL4bYqXFpfzqU99ahBDFPqE2cJAw59DfkoZd4ZYOHuDw8BnP/tZO4HsObghTj75ZEO4jTsOQXpFyGz6DBLd/O53v+voorwdm9cBYElQSUEOzz//fB2McqZhXiysK3kYvsekcpFhrMZIf0PzQVQFo4355ztHcxEa0RqtNe56QystFnrzPVumf1deeWW34L///W9/B3rqwmuxOkEjzpTrAWnT3InOW5aUWBfTQUPPXRBsIcQ2WdDaZqTXvnEFUeW0oMfd0u9meFe61c4777zs7s2Qg6sd7Rww5DTZVmdLSTc2uGxo7jDWKCdkcJgMr/B1FF6sFO0AjJ/KJoOgCzXlAoKaOBLtJolRdf5nnXVWdgxav7pO9thjjy9+8Yv5MFUkY6eddsIuLbjggoP7BHXzUU5AQeK5FuZhrCWk1TzllFMa2jZXYfR43pAA8mBoEPpyyy237LbbbiHZJ38gJaxMAYwMh2iYQOUPvUQgLAEY2jG2xNvwWvb73vc+tLJ5VsXaBmpXqFp00UU1RqfLTewbIme5fCQlON5R8WjZeoc2hwKGbabMO3/DDTccBP7dw64xoscgOs/65DFns8nZ3TxKiAClzSyDfeYzn9EDDWO5KqYEiSROgjzqqKMcY3/QlKFQ+baPPfYY022hMAPAwpvAkHk0DNRUU00l/115jYceeqj50JOUq+JLkBt0rcDoCeBFy3yy0A8qjwz5u8FBp3JE8O6GW2+9FfuPNZEVGViBJewbj0YxRJDBAuT1CNkVpJbmokgs0/9DxwDbYubOyou12ZG13ezYQ9y6MmS0ax7ZCg+I1SK+NcO70gHkLZIB3klgWPD3+9///uYeKmsp0VCr0C2tXzDXXnTRRSwneXinCytUKKzscGiFZD0icBkhJqCqNUKy+VNrEqUL70KQEBdaaCGfLIC5RWSFIo8fccQRXS0cd0lfqSvs/wc+8IFgXeVl2VUnsVIn4xSVGb4x653SlJN6+DdEF3c1cAIeEAYwLKuuumronPDlUu3vQDTxOiwryPs7it6ckCB6NPSMopGwyrlz6ZXZJddbb72CGruhq3yVNa699trCMBRSHOO4Hc6yEdkoiy22WGSfwwGrI/G4HqIcjmTTTTftcSYsJPy6853whc5TBkzi29/+dhqYLbfcsquxUEa0OIiuNAkYJpZT8lZXnbymkv0rFxKS9SsnX1bFmoamliFHXjI0ia9sGcjWPrQ5VGKbkcgEwj6gzSnw7ZVN4guDUontO75JO0hyn4PR0Na6BMqUJSw2aG1Jnf1deGEmRCQMBf1R3QxHInU6/0i8wLj8rIhQeMlguq2bbXw5j4oCziHB3ZP1wJaCn8Vfx/cZICnUHn300fA3/ok1oxyU0lHqjM3pHmg/isb90kbh5EZ3lo/XC+dHFS4dlTUhCpeYdzToSrB7MWQYx0HnGgM5mcMgBHwO6Fx9BYpztxFHh37hhFCjK/dwvzqs6wePZmPY33V+vOwGrEC4xSAEkYXxVtbLcCHbhwTfWc/cF/yNAFW6jGiYLSreucG5pU6ac8456+Y//HJ2Ej6AWMsgYEKdu81RRRpg4/vf/3721azXqi227jtCrObQVc6SwqPQnZFfHT1j/l8T4OfRYvl0Z1krc8vzffG9RVE07B8lGskWeda12wk3yJpTjlTg4cHuDqHcUmjW6AjLMIXJIZFoX8yMY+hjTD+TAwxBjO8CO5TFMk65Nrq2GdWgKRz+llHENX1WFqNoTp29lyloCmDhliX3ZaZGDClPt0KkPbn71FNPZQjWTxCZ8/0YQoIQYhSZg0ku3oUtJAjg4VE5+ZEUBhLvJssQ8u53vxt3dsghh+Tng/ApYfd46KGHeDuzJxZmy4aw++67k7u5htGIFWrdl/aAh3j8MZJlNg8aRdEo0RAdJDMz2PNIqiRDLNn8eu2SE088sXngrBZD19ULj5HdNoO5tPmj+rTNYC4KLosNTp7NzTvWYjljEoHRRxScZjr2DIDbjsuZjsPftCcOc8fbJaZb9xmwurs9podImEDIiDPNFE1uj2YzhZgq1Eo0BedeZChox7I5nHXWWVT7vE+7VWPT09m3vVP2Pm7FQOLXWGMNF1gDknFe+++/PwsPiYpxvEDRsCP8GfjKYvMrNwzzrs4xcROYogVM5YOt0KxM/VzAHfVeWYfagN+RVNnEBBNSQ/PoKFrzaWlu3rE2RGJ0BGsn2jhvNiWjjevUTVO5OzsOXQYI93/lfVYG7qXEHmto7tuRsHhBxnwgexKv4VFRfgb5004iI0NJM9dCX04WJtT76fE+7uNWtEwYqwyKLGCSyGzhPEkhBC+W1WK+iO1wi8ev2zDoIPgQddfwgUZVFcWjBUzlLUruvcoZ2yKuwUrjcSW8QgENjlxdbb6c1rOPmarKzHbMHPoLI07FT3/7zPeGuxEbJCCsKWqky+GDnBWeNO6yaXfgwVM677yabx8kLPxITKdo38EHH0yfnadoiDJ5ginzvvvu62rHhhEDq8IJK/wRM406mL5sRWSILGU7kTTrBsrKg1UROYaQPDC9uzTrchY0kPg//elP9D8TmKLhirn2FDzR6lCGm3NlNaRVKDdEKDsa6UOrdr5F5REnkxInlj6YaGCb1inXW6AiOGcNwRu+2QQR5Iay30blinRFTA4sSQZACOWETB2MRgvuqWzYUBiiFNzfvVO0hlHiqwKJj9ROBBJv8nzHsiEQRL5g7iokvkErz9owzhmWOvNodDGBC41Brn2GwNcpPip7iGGSKxvWFQZZoK52OOXjMAdRLxwIeGDXsTntUDFMHq3BGCdG3fxjNg8JK3jPoWiIe1g1twCyPOpsxyKL8SbODGlOtRgpeqi6i9YeABx+t0N1V63iEaJbytBA4sXDupzYUvzmPEE7wejnEzf48VkyVUZXcxsmcBNFQ78tOASoY9Pw7WR+LhR1ArZ542ZxrYUFCB/Jp/0b0PK4O/ok7Mr0mpg+Lgt0wMYdpg/kOMwhoFdQmq0ZbPn9RXjg0YYgdTpjvmBBS8UT3bpsy2DxECiDVxJP3sCEBgkLEkQa4j6o53Cvwqe4IitE0dgW2qEIKaR1KqdFYhajSAlcJBrKDYKMRl01CA0Diik7AwdaxlyrsAMJVaaE2tYtKijR1KLFnDOoEblfmKdE2AEhzSQeMyjWta7zkZc3UTTKMh4YtDB2lU0QLIMN5IwSDbIKKgnpjeqySvV38dQHdEZM1yyDwUnPnIfg2p5fxTjMwXz4N3Ld4KWVd/DpF7a74tGQD4TDiwE2RgiQjJyGb+dmKvMC7lRCgCj0cHECa3BYC2MFCcvfeDS6OXfeddddF5wSiF3NElbzbJnLGZRDvGQeEoODwi6//PKYgLAVnZ2Y1xuah6usNRAsIUzcD3CaEEJz3ywIZyTeWeaSRZVGKofS4B2FEHO9qhxLIXKJovGGqQMYfXnAeF9+C4pC+7KAVX3aQHRq8NWX/setk4aYgRFOlfWdS4F8LAOaA6aAwBIfqc5tIvBQLrb4KQUfzhDwHN+qEpIklZULpeBp5dCGEh7jWE4rqmzYsRD5cOWPZ+RMw+T5sgQHWjAyplEmYioDvIsHScJ41jXnkTra11Q7xgzExnU2k15XseuOOIDk2x+EPm6N/nWduhj7q8dpnslkXsvJ3oajGXCMB4QKjAA9Oje6SA0R8UdADG4xn/qx49xCkr8ejYCscsRSXWWmJ7uRvEz75sSS1HiZih8MEQUdp1QGcH/zAZKLrVw1niXYNyogORozsSlYS2THNGHoktqAt1qDxOqmLPOkY7XY/lA03Aph3kZhXOOS6keuPvw83UH8+49jhZeJOBlnFVNDJ9LjnnOHN3vqSV1LtSwELxJLeKIYFX6+t9B5g346ZmjSN4mB2iSz6EnBigZpi8yddNJJBAhulUgSbiumwzKMHY5cFiK3y2BjUsKa6QfLjHIFOi6YH5YIrTBAxiLDfv3rX4eZylcFBJ/bYCEH35isqGIadexlKu+IAXSc5YGuujJnXMfm/QWwI+lrWd/t1F56FpTWMYVWSFLkJMQMFHIu5nMcxLQKmRHKgcoxbYcMg7Xh60C4HvK4Qx6OcI1faS2h9z5beHbWUNW+5bCtIIeTd1GQpmWLlQp95JjwuDqjlRTGvcTl8NQRY9wx5CM8L5BPPdqw/GDyyxzHHAl0KvidN7Sizqeto8RogBmTKnZMCpaRv8U3aGxwAyJ4tXBz6dfEqAicNfdoh1SMvdPO1MPIMSC1BlNayIbcbjIUK4QRiiEKr449UJs6xp/73Oc6QgKwC8kpAZJ0Jgu+R46Z5xrsRfw2aHOkA4rpP8EkDOQx0OS90S/imvoZKAYoer/yla94jKfs69A8Ll0YA46sKp5BlA4weOd0ZND0SdsiRTtve+q2craZwqB4tBACLJsNlZMs1SIr6Vhp/epMRrTXJiN6vHn+qTZhoIyBqNftys1SyZhg4M4775QAB2+VPVTRPDHqNoSM8Z6lrxxOy0GJ71iMEx9tOkczSrfmVwSZREmOpBV+ZMYNQdG8W02jIc6GEo2HMPfGcVdCN+M61Y4EA4llnbgYQJL664bOSzMSG3LRIKMCrZrhWcDtaq4kqFgzZL6WfSPe3y2+2wQ5OWAg8WgjuUf6MyhOp5BNtMd+uYzFv1nHJ55xgPmpIQJJOA6NMj7OPDlwYL7qJM1s5vw2JKSja+NV1+NyUvPJEQOTA9lOaxwEBthVHRj+TQ2dC8xkcAAgYYPIcBGUDcChim2elTOft75jkwSQMJBhoD8etpPjVTDZr1muOjoyCq86TFD/iyQJvrWSGvHd88RGAMaCVbZiahAzyDoxVtmuK6eaCscTA4mijed3mQCzImyysbKThpcxyzMOnmhZtAA2LXgSCR6sy4cu0YuQKWH25d5SScJADAYSRYvBUoKpxoAMFrT4++67b2W1HA+iJrO8/p41CUo0dtIQSFhoRS0oBGfHHXeMMbZWjpgKEwaSZSDtgZ4wQJAUHcnFv/DEmU4JpPx1szeouIxIDs51lkVVCoPyqN6sEnRJVk0iZxk5qSQSA4miRSJqTME4bX35y18Wc/fYY4/1Qgj42dLx03Z5zKFbFolR0hOZUjD2EiIjLhL5u/DCC7t+Q3tMv0ya1mgwkKTO0eC9X6PSzfOQmGWWWXohZ1LEnHvuuXIoir70O+i/4mcoeFh4PA4rvkkBkqGKGZTbWiJnrXGYGgYMJB5twu8ElkH6qeDL2mIx8sbIXyq7TnhvXLY/KQAjo9Cz4aQh0QkrwRJLLNFiDtRn0uQLq6p887xFh6nJZIuBxKNN+E+PpcoyoTe/cVm5VG5lAg8yUkKXT5KVCLcSuK6QT6x8QbJUE37rYOrKSZpCUy+99NJEzupQlMrjMZAi1eNxNY6QOCxEhLQoPw82TdYKGTjEhJsrvklKqYZJezhDxg4atHycgGTzOD4u/mLRG9qWq1BVmQIlIxL0TgouA1SW4MsOOeQQDFpX74dVdpUKEwZgIFG0ib0NMGgIkxBLj3TsvPPO5D7R42FJnhCnbm9YHt8L+bX5fxXeWxKvzjO2oWFdlaQa9HENQVHlht6IQ85YJMpVqSRhoAUGEkVrgbQxaoKiyefjmaX9998fYfIQhp8wv1122SVmolrl/V0p6Vvn3Tdct9kyIlOGxCwkwSQMwEDSo03sbYCicfhCgyjmJTtrsRh+/DzFsobSllHGzTHHHC26Sk0SBkaOgWTrHPknaD8BSjTv70rsQ3Zbc801vZxE9iTEhVyJQsR5qzb0zt9VrCWlm2Cm7BkUfc4111zE1XhdWMMQqSphYMgYSFLnkBHez+EwaLxSkTOdUn55etLTR7xtA0WLfHVttdVW49zvGVoPnemHXh8pTOSsn98p9TVEDCQebYjI7vdQnhfQ5U477eQ3kyVTo0fdZWHs9vluVlHB4eHlSjaBo48+upfnV/q9ytRfwkAXGEgUrQtkTdqgAsVZCbqyVE7aCEmrm4gYSBRtIn61NOeEgYSBagwkW2c1XlJpwkDCwETEQKJoE/GrpTknDCQMVGMgUbRqvKTShIGEgYmIgUTRJuJXS3NOGEgYqMZAomjVeEmlCQMJAxMRA4miTcSvluacMJAwUI2BRNGq8ZJKEwYSBiYiBhJFm4hfLc05YSBhoBoDiaJV4yWVTkQMeIl9VNP2dnIvWZgipz3CBUbOsCPYoJeQKFrHT5AAJgYGDj30UG99jmquXmaQ0KlFUvL4CV933XXLL7+8NMXxTcYNUq4qj+NcccUVg5tYioIaHG5Tz8PDwHe+8x3nRArfQj7ebAbOUuVD7tLn9iuU9Zprrtlyyy39nnPOOfu+cilVtthiC0nM694efOWVVyqZROnOx+oBB4mqPvGJT3z729/+zGc+03cs6TBRtEFgNfU5VAycdtpp3tbz3ujUU09dNzD27amnnrrooosk6V177bWnmWYakFJdegQLLdh1113XXXfd3knbKaecIjWTd2dC/3WT6bb87rvv9myzzHceM6xre9xxx910002SQUmzvvTSS0uWZzmI+DPPPPPkk0/KbOxd1zFJqSJ1lQTuliMpfN1y2pf7wOknYWDiYuD222/HZz344IMdl0CD443kxRZbrACJDDk/kmV27CEGwGODKGYMZCSM52/k4Dz77LNj4BdccEEcmSZ5YARRgik8kezEMZ0MAeb000/3flhhnn0Z9zV96SV1kjAwEgyQszwcgz2JGd07fijXXnvtVQB+9dVXMS9+aPdj+mmGkXST1CndZjNYfC32Cv8YAx9ItrzEZeAVVljB2m+++eZy1ahK1lhjjf6S/rCQZBloz96mliPHgGyX0003ncfYY2YS3orP3jbNmqBoaBkJ9Pe//31MP80w9FZsFBKdE3KbIWNqva2FEIfUnh3hb7zxRlxYeYEavvzyy34TPzt2MjQAigLPlV188cV9HnFUFDqNmzDQIwak7aUqiuc7FlpoIe9mYesK4wZKh9frcT5ZcyRyvvnmi2SsGgY1VXYAD843wOSrPG+IOlx99dUFeP3gQOVtf+KJJyK7Gg7YNtts46EM1LaPwyWps4/ITF0NFQPLLbdcWSlWN4MGicyjM1NNNRXDQl3bFuXf+973EJcbbrihRdusyUEHHYQSvfTSS5Gd1JFsadZN5sgjj4zsZ2hg2FgvXnvBp48jJorWR2SmroaHAU4STul5550XOeSll14KvqBE8xD9HnvsgQ/i+RHZTyQY6c9TpLRXkfBlMIRs2mmn3WqrrcpVlSVINs+VshINiqaffnoP11e2Gnnhdtttx7BTZpxbTyy9BdVnKT51NxwMcJKYffbZsVeRwwXRktWPo4YmaBnFGVsbvuaRRx7J3BpuueWWoE1bfPHFEYJC544ZmY5LBM5i2WWXZTmtG504vOeee66zzjrZI1t1kHXlJ5xwAiPD9ttvXwdQKOe6QdrlfxsWiKRaHYHOKu666y64ysPz8Ljkkku4hnlcgs3Re2Blxw7v6QCoHH2mmWYq+5FguC677DKtppxySs7GTKuI7D333POxj32sspNQuPvuux9zzDHMzdtuu20DWBdVrWlhapgwMCoMcM1HTbriOxZeeGFU5vnnn3eGw0/l5PmCbLLJJqgAilkGOOOMM8inm222Gff9jp4QKCYywZmj3E/HEp0jNF2xeLvssotj7/XV5gXqGQVZa621EHfTQAQvvPBCPh+33nprYVbUlEExt//++1Ph+9E5szJaj1rlgXFYyCgSf+2117oq/OCIMV8gmTU6LpYpwxtmHfHZsZ8AkKTOSEQlsDHCwD777IM8eYgvck64FRKZB0lj4Al6fjbccMMC8P3338/THdXAhsT0Awbvw9W2heYbaTAQZVzkQMACyX7xxRcbmgic4NqKTiFkeTAsEg292kJbRglOy3jSfDnzwqabbpqVeOUa8UX1Cn2y0rp1MIMN8wlVjJ4WG2/hae6wlm3ugs1LoAkDw8XAmWeeOf/8888444yRwwaJbJlllomBxywssMACpMU8sOMqAgmDNttss73nPe+J6QfM6quvTnK8/PLLI+EzMAtEDnA9kQ2Ncuedd3pxtSwp53vwtrRnqg8//PCCvIzyYnvFGxSGI6pTzDEQh/IghBoCEkIJIZdb2corr+yOKfSJwRQSYLiOS4AlMPR9HSFjABJFi8FSghkjDAgPELoUf9pNPSjRYijaQw89xI0DN4cjI75lyyZv8nTVj5jEeFwIXeIzccEFF8Q3CZAsFagqlXlkwxiSfdZZZwk8CAxRoVs+fTSD9957b76cjx77b+bdRiy96qqrACDrO+ywQ4DEzOJ/hVuU58msgc8tl5dL3vnOdxJ7g3W4XNttSYRgHMQAABL7SURBVKJo3WIswY8YAyFzA+kpfh6BojWrqENvIJ1h3mRErYcffjgU4tfmmGMOx75biqYJHoc8FT9VkDRczz77bIsFNpNsdAffVDARhImR3ym/Ms4rFFIpUpCh7AceeOBuu+32uc99LlA38n7gBJkCiJYbb7wxU0B5gcAywleuLZSsssoqluyi6gjZEaCfFI1HMj7Tz0orrdRx4CEAPPfccwxGQxhoog9BDBGtXbmKoLPIqghfeTD/hi/ud6Gqsre+FOIUMD6CsSN7e/zxx++44w6cFwtdxybMgpgjyi+RTEHwxKogZHLgIHCivis98hu6xX1QPCEZDTCFqsAKxTOhxGSGS5004OSFF16g8KpjMMOIiyyySH4mVk2JxkKCEZP2Y5ZZZhFemgdgFzZ0V5S3DgmwpAoNrQOIL++n94ZrzVaQ3qDBqh0/sx4h2eDXW2+9Fgx/j+OWm9vQt912W7kc9z733HOz8tQlwCk3GVCJq3v99dfH9hdmwjIooIeUR0NMJAmGQvv4/PPPDwlqwPNmMKuBJFGoWa3MFoYTbFRT//+KzRMTYf5OpuuNDLjEEkt89atfbWjoiIbdS/BE0QQeSuyBDdHECcep+V4NzctV8847r0JndcUVVyzXVpZYIAYHc1dZmy80Qwos3wWphRCzJcHRwWleaEvRpsT8K/sUN/7pT386kJUMwHrNYeaZZ1YywwwzMNqGqlNPPXWjjTby6UN2JiNW9imz06qrrlpZVS4MWHJMcILl2u5Kmg0HXdWyAbnKKpuwdrv6KqsGVMjAXOmxzaAjiZV0WgMat9ztAw88wJYUQoVxrzQyNBr2EM6ImICo0RyXWw25xLkVilgYlAGLlmTzzTenC5efK9RS7mR/Z/AsZbROQ5hzUE5vsMEGgxgL7csc6xE+BxIlsnXDWIi+k9ztuC4AB3K//faLb2hLEADj4WMgcdDIerbt8x8L3UcNcXD5flAr8OV8JBgFeZkCpCaWVrl77ZCujpjp8XTB/8aspRmmn94bZYrGLYXzjq3gSJAUmqfSx9pzzjmHV1G+Q7IDqZ5yN9wbVAN9HC6mKwZvn98tVABG4yhlg3NQTD+Dg+FrWpiG02g4V9EBBxwQxqXssArqhcI0WlC0gk9A5LqCPW7vvfeOhO8KTLQQEhaaYO5wH0qyHmaddVY3U1cdAnYlwBhrYGRD1kNMIvkxEj4ejMsYqRM87unYY4/Fd5ub0Atns+yMFnR/YQNkQ6CDLJsE86zEv7yIC3OgDhOw2W0iExwiwtq7V9pgKZpIjhCVhpQMjaJBpb3IPzCPaJhin1aF7Nphw6do9g3rT5mROeKII8yH53T81hwQJM6R6FHoPIRDUg+HclcF4lWeQLcUja9mV2xLNmJAF8GnPIdeSui5HHLhUIQ4VFtXlkzARF/8jdl3/sO2EWDQ7UBkPbJbZCv71kDk3Ej4eDCqUrwFAYUPh+PAjonA4TofffTRfCe85+TDQIJNg0dF8K313SnUSOK0ZnlgLBvPD52Qf3kUsxQfdthhwlGNFT+xABkMo9lO67Z5Bt9PPRoUFH7izc/Flj387xq3NQtKAZqFQeRKjpwmq5CTYJeUVWY0IDqpU8xH9t8XMFoYOmB0H3nKOpSghg5lnnnmCSXM/0HiE+8SNn27oa233ZJDip6CirrdHPKtuFxxcLMos3L1qrJkxCUkxeVUJSoeuWcQLH/BjqOjjNdffz2eNCY79oAWaJJEAZ8PE4rzwuRiiKya9kMVAxoFFsusvxVy9BOBEIIQwupgAIu66KKLSo2bX68myB8Wj9IN+bNSGUcqzakxWAKD/c82W8cmlQCDpWiVQw660H1SZ9MZ9NB1/fveqirNZMH9UlRKXduhldvKtqx9iWHMBsWe5H0CEDjsLRtCf7NOx68xXAB5mhvftgHSiWU0KABk3qF4k4a2HasCroh4MS7BA1pgNkmhBX78S17BJiNt2HCRBlmOOSR7qaWW6rioPIAMKH66alIGDljq/aWofnpvlGc5khKH0MkcydB1g9ZRNCF11Kv4+W73UN1APZZT38BevhMeSTSSWQmhzJxZV4Kho8fhWjQPB5783qLtqJrIiG3oyLM6tAW6wLhruJ/wjyHd0KjwE8btCksNU53UeDRqO3oQiVwa1jz8KpvGFUTFng1NQXPiiSceddRR1DdkveFPqXLEkOE6XyW7dP7fELpc2XY4hcELoZwoYjijtxslOJpEUrRhLpB8QMkgdqrduvrbqissNQw9qVG04MrYHN3WgI5BVHE4YI5grAiKCSpMPA4FDcd0+tRwNeXH5Y7EY4DaxTcm8ZVdvVQF/4nK2bp4CweeOQLnRWA0Lm0IRRhFdaW7EL0nBNIlVXqBVw435EJzYwqMUUgNeWINw3V1VoN6ka9iQ4f9qrIJx4ScWVFXWGrAQC1Fo8kmXTe0DFVu9Zhg1I79BACezSwvHYG5L9f59QWK1hctj9Df4EPYMB+nC+eVhfJWQgaRk+zGvasSICt0YcqHxZ9DrqjgFMrjhGKea0/eZ5IGxKeRYp/wte+++wYjMkuTR3D5uKFceaGbSUsntP7caKhsCTXMdhqKJSo7QKJoCC6NTx8pGrMal/1CREHIvUWjnEeINdJYNR9mlriJxaBZYFdnNTwIMOHW2LyxY2q7wlJDh7UU7eSTT87i2hraO6h9jHkSjcFa3DBcqMKGcAetBMOGUG22MEgVeqM/YodGOypHyQpRNASiORlDoGjNMXc6DA4NzBqZyMxiyx3XIZfQisU9GxSx4/7OZL711lsXUh7yjEfuM0g6fpZfyv7gk60cj8aJlF2vUhEWCBmi1rzqrmp5tKOzBYomMol4FU5v1huKZsIFI3VhLP0EW2THOVB7d7xCOnbSEcCNYqBmsIBVO6oZLNQGRMWscTgLjJlzR5i+Y6lpxNZ+H+WGZQ/bDGZo/mghWTOGpTy9UDJ8fzQu4KSkhimZmBgjdxRepjxtXJt8oYXyggMkk38AQBEyz0Z6Orwq2lHuk9t3ZSo+KRyQlW59I/XfrT8a37d2LnhQgSMur2icSwLJc1fFTNIt5bj2K1lYzIhjAhMufibXHuczqdk6Q/6ASC1sE6XvUx0pD6uLqWwQpng5cbzm/VhWmZkFTo3jYoFb9PlxasEMD4ZPf5gvzX243pFISUSVV4rneLTKqGZ4I3jGMAh9Qk/X3VBxQEVHbUDX/Q6ygctM95GCfNDhEDUGOaNx7LsrLDUsoFbqbGgzzlWYBXc4RiwvfI1wwjEiJyU9FZjIysp58jnkx1RQ1emWc6MwckIK4pWRS0q30Akrqj9CiHW527xDRr6WIq8umLncyUhKgt+GAz9Wxp9mVAThuuFKyzfPFtjc56RXG4klzkO4BLd1HQaGQdHM1VFhcWNtaFY51c0yvpxjtPhE3t6VPIh+QngtkocW9K5ua54YbkK8DpjyMxP5hsG3o05/RLdYSPOiW/p+7Bi3D1g9/vjjy2QIADx0a7RhZh0Tz7g6xGYszASiaIH7yC6buqWF8smcR2vGkp1PlMGhM0guv/zylZgcLEVzGlkYzIAsw7LmEKI4jndHZWrlXCMLZd0oGNFCQyK6rOcmYybi0YR9YHy4jA7CgG0UcWq2MllDNjvpDSRZ4kkrI3t5FXTkhOXKFEwIk2tAfph8q5CKzzLDqUa5gjEB58IOQIAFbAKV8qYq/KBZVV4tKFoInCxPckxKwoHnzTcm84mZRvAZYJOJAZ6IC4xZV0eYGCw5sBQp3CG4PY2Gohm1buCOK2wNQKTi6sUFoeBZPszsj0wBqFjkElgzQ17WAJ8xj/gvOQwk8ykE6AQlGkIW4DNb8ze/+U0WmFCI46vzgwFW8JsNTXiroK2iFyOnPRKwcODdTCMZvd2gclG4rkKisY49TMQFdlxUDEBIYNuR7sum60q2V+v6nNQsA9aJN5EPgDWtbs3jVs7lNTjB8q7kC4Kr5cmBv6MF4+zmPbHChFG0/HsWoZZ1jAEhy0fIu4V+zWuJhbb4RIkwccplJPB68xzvoCXxMK53z9oFuocwZinnyvMf2xJXi4MaidiJuMC+YD5cwGX9SblzkfbZdV6uHWw2oR4Nsa2bC4RCC3AcrXsYckPiOcMlt50rr7yS8EhAxnnRwRXSRclfht7hvZHskOaFMIv3xMcRJPnW5qctfy/jKcrOb5mUbQiOIIWMVxk82dYEWvhthB669d5ojd7wugef4dY9DLkh5Dt1EtjGj8sQxBgdDz9pQFL+iJ/pmB+NUt42bljyFOoq6FyrIqeCrtojYK1a97lReDB1AnFq6K84O3yWj8ovjL6AsOn7nXTSSZllR4LvutclyLnl7BGkM5+DMYQPOuomuVWlto7SjcOtcOXWKkXpfRhbItmQXr405FAmYPHGZJt1XAvVpLwUmN+QYa0jfCB/3uvkkTsEfMbMZzgwvJHQ8Y6vzFCYuOybkq80ULtuq+xp3DV+gazbbdtBwHO1x78MoudB94lZY98kIeKb8ilDBzSu7+W5gBadU/n53H7cruVkli06jGniSSeuOTGQ4wCDp0YRhG3ET4a1ShMpwuObTHRIzJAl44d6X0g/bZ3ImagdM4t0Jhw07ed+LSpo0KMMon+uJyJ40LIQsTSIIfJ9ChGN1FsXZiLAQIY/hX5Xcn+DmDkqL/Ae+xkyFPYyBCle4njsrSAz/mLUl1TOHJ5pc/DFfWGRJB0ww5hnULKFBMdp+u9CesVeVtrQVp5LiQ/4QzArkQkwAcyO1BQk5T4GODZMQFXAUp3HVXPbYm3vRDH1MAgMED/tqkH0PNH79AKATVwZxdXV0sja7jxNvCMnBz9bCmHfvxhPBhYuyl31Vgfsmmd5r6utLA+POXB1qqztbyE3CG8SQwVjkXy2KHt4RCLYZ9H3/g5X1xtrldtRmok6gPjyfloG4kdNkAkDrTHAZRw/KJVI6x5CQzSRHcbfSy65JJ8J9tOsQ0+aSQHQY/+ay5qP+Moi1W1XfDZR1W5btYCn4GOJYljHkPL4obwLndBXMkDlH45p0Xl8E6F+ONN4+AbISdB7o8iFpv8nLQxQolGleXO3kM+j21ViRiREIWeJMOH3R+zKehCKG5NBu+OIFPxgWvipcJMOfqQdh+gRwDLpQFnAIfOQQw7JshhJcMDw3RckdJwhyxXtUAssVfacKFolWlLhWGPAgecVIaCil1kSOYlaDjPFWT63ElLiPPdFp8NxWpQI+tvtPEPgh0dJum3YLTwVqiY8HKkR8wmvAi3uSv3X7dAZPCxhuutijbvtNlG0bjGW4EePAQeesb8vBz4c5vzDHxIHyD7Se+yExHDccRiC89k6I3HHz5YvTl8WGDMiJBC985mBIYG7T8hkE9NDLzD0dyKL+vVUW6JovXyL1HY0GGDl9KIzl4hCzsgWs3GYBefnD7NuOe6JmaVgCkr6Ft1qwu7fC+tB+8bY3RDu025W5VZwKA46/3yapFI0jPIeA8ax8sspt+pXiTe5RbZkL1H1odsGHVuqShgYWww4aZTZvFt6mSGNOFrGUSbrJMTihBeO+QNS8bTrn/WQFygXkHbNtaLYIrFKc9C6h8iGIUmqBDAZfEgYAxVKWGDMJLKrFmByaXCs7RgqEN9z4tH6cCukLoaPAVEKDhtldmS268oZUqIhPXn2JCSbwqMp50DTnAaqss9QiEHj1bXXXns1wDRX4e/EjTCA4GKaIXusxaVyIM3L3VzhpGaBYTFnDCaD8zSEYRzxwQcf3EIwr111PPFLkAkDY4UBxoGQ9rL1rLhikS5ZBrIe+ABS6EjfJHiQAa5dzzIOIAdc/9s1z7dioJA2qvd+GnoQI+zZijwAvzyKPLSG5DtoBo3ZpGFuLaqSP1oLpKUm44IB+UKQJJmj2k2IpkyobKGt5GvYouZ3IZqHk/5PhCz9VDNYTC1VGjNFcP2NgW8B45GKMgJRc0P3URgsT0ycAPNO3g2wDNOipJ+R6rV8YKpIGBgMBux4kTpMcp6JGcwIXfcqHtPrgvKg9OsZbLnX8Yyc5ipzQHU9v/FogI1lS+U70k+bwP8uLVG08fjCaRZtMfDSSy85G7zby8+Ptu2yfTsHVV4QrlVe22rfy//fEtXmfSrGU6rOfvU58n623HJL3i0xT1l2O9VkGegWYwl+vDBA6hRhzl02hByNdnIOKj/VPpIzy6E1x6PJt3722WePdnX9Gv2UU04RTzqgTF+JovXrM6V+RoYBUh4vTZGYTz/99Mgm8ZrX7LnnnhxKWBv6PgfPdMgHd9BBBwVX/r73P8wOeR1Ly4xAi74axLiJog0Cq6nPYWNgueWWc06c+WEP/H/Hk5CHnVR6zn46IuQWI9e8HHbyHU6sV2MKn4MJgsZT/qJuXymL/6xJjxaPqwSZMJAwMO4YSDzauH+hNL+EgYSBeAwkihaPqwSZMJAwMO4YSBRt3L9Qml/CQMJAPAYSRYvHVYJMGEgYGHcMJIo27l8ozS9hIGEgHgOJosXjKkEmDCQMjDsG/gc1LXJo4E4YNgAAAABJRU5ErkJggg==;" vertex="1" parent="1">
          <mxGeometry x="477.9" y="610" width="297.83" height="100" as="geometry" />
        </mxCell>
        <mxCell id="SthQR8cLq-xNoR6oxP_u-47" value="$$G = F_L − F_p$$" style="text;html=1;align=center;verticalAlign=middle;whiteSpace=wrap;rounded=0;fillColor=#6d8764;strokeColor=#3A5431;fontColor=#FFFFFF;" vertex="1" parent="1">
          <mxGeometry x="364" y="720" width="82" height="30" as="geometry" />
        </mxCell>
        <mxCell id="SthQR8cLq-xNoR6oxP_u-49" value="positive gain of fidelity using QEC" style="text;html=1;strokeColor=none;fillColor=none;align=center;verticalAlign=middle;whiteSpace=wrap;rounded=0;" vertex="1" parent="1">
          <mxGeometry x="460" y="725" width="200" height="20" as="geometry" />
        </mxCell>
        <mxCell id="SthQR8cLq-xNoR6oxP_u-50" value="" style="shape=image;verticalLabelPosition=bottom;labelBackgroundColor=default;verticalAlign=top;aspect=fixed;imageAspect=0;image=data:image/png,iVBORw0KGgoAAAANSUhEUgAAAhQAAACfCAIAAAAu8NeAAAAAA3NCSVQICAjb4U/gAAAgAElEQVR4Xu2dB5wUxdLAuSMjkgQDGUUyShQQ5ZB0RAVFFCWYJYkReE8ExSeC4UNUEBQfwYyimJAsIKASRXLOoEQFyRx33/9oXtvO7M7Ozs7uzu72/pTfzUyH6urqquqq6uqkjIyMLPqnMaAxoDGgMaAxEAwGsvksjET55Zdf/vzzz0aNGlHg0KFDs2bNOnXqVJkyZRo0aKBWmTNnTv78+atXr56UlOSzKf1SY0BjQGNAYyD+MJBsHtIff/zRuXPnPn365M6dW3zNlSvXli1b7rnnnlWrVhnKX3TRRf/617/uuOMOapmb0m80BjQGNAY0BuISA0bh8ddffzVp0qRAgQIzZ86sV6+eGDMSolKlSvx90003GbBw3XXXTZs2rXTp0o0bNz5y5Ehc4kgPSmNAY0BjQGPAgAGj8Ojbt2+OHDmGDRuWnPyPTytWrLj00ksrVKhgxiAlhwwZkidPnqeeesr8Vb/RGNAY0BjQGIg/DPxDQmzcuHHs2LH9+/dHfhiG+tNPP+HtQE4cPnwYQXLy5Em1QNasWan13nvvme1a8YcyPSKNAY0BjQGNgX8Ij/fffx8LFWYrA17Onj27dOnSlJSUESNG3HDDDZiqsF+dOHFCLcYbjF20oHGqMaAxoDGgMRD3GPhHtNXs2bNr1qyJe9ww7DVr1uDPWLt2bfny5dlbvPvuu926dZs+fXq7du1kSWoRc/X9998TqRWxyKv09PSJEyeyT7rtttsEJDj2f/zxRwlV2bJlpedm/vz527dvl5+QhSVLlhSPn3zyCQJSfrrzzjuzZ8/O48GDB6dOnSrfY7hLTU0VjytXrvz111/lp2rVqlWtWlU8UoWK8lPLli0vueQSHk+fPv3ZZ5/J2GjiEW699VZhHgQwwJNViGpDSItHhsOg5Kf69etfeeWV4nHSpElyCwjOQYKIcSB44dtvv5VV6B0YxCNTuXz5cvkJmIFcPOLl+v333+UnRsp4eQTszz///Ny5c+JTzpw56Yi9Jo+7du2aO3eurAI+wap4/Pnnnzdt2iQ/MQvMhXyUf4CNyZMng3zazJYtkxr37NkDFckCxYsXl542NJh169bJTygxEKR4/Oqrr44ePSo/tW3b9uKLL+bx2LFjtC/f85JP4pF99qJFi+QnTLK1a9cWj8QQ7t69W34i5rBYsWI8pqWlgYozZ86IT8wdoSIC7H379s2YMUNWueKKK6QSBsJBu/zEEhMeRN4wTaBFtQZD0p9++ilttm/fXlTZtm3bggULZHVmHxoQjwsXLty6dav8dOONN+J95JFGvvjiC9U8AJzCnEDk5HfffSerFC5cuEWLFuKRpY1RQX665pprrr32WvHIYt+/f7/8RBUq8ghCPv74Y/meVcPaEY87d+6cN2+e/ARggCceMWNs3rxZfrr++uuvuuoq8Qh6Va0UJAiSJvLzm2++kVUKFSrUqlUr8QhfWrZsmfxUuXLlGjVqiEdiRH/77Tf5qWnTppdffjmPgA3fAEviE5ihI0HSzDuzL6uUKFGiYcOG4nHx4sUbNmyQn+rWrXv11VeLxy+//BJvsfwEY8ybNy+PvOSTfJ8vX75bbrlFPBrIr2LFirVq1RKfDOSHO7lo0aJ8MpCfIBLBqRgmg5UdUZ5a4tFAfvRCX+IT5CcCnSSFyxbs/PG38AAyxiPHplZmsgXvePTRR3kv2LFKtaIwqKQkvMYsfuyA4qAMUD344INMsCQ+MPjaa6/JpuCAMmbsrbfe+uGHH+Qn7GxQrXgcOHDg8ePHxd9wYdazqAWtEEsmq7DmL7vsMvHImvnggw/kpy5durA+xeOrr766fv16+YmmBN+Ekp5++mnJhQsWLMiKEqwHwF566SVZBXYpiI83b7/9tkoWTz75pIifhu0+//zz8AJRC9KHwdEmj0yNCja9C+LjE/Jm3LhxsiMJM29wdCER5ScaFDwOsJ955hmmVXxiAQC24ERIiP/85z+yCkyNuG3xiIahyt3evXszF9SSfFMUYwEzImivVKlSgmyQEM8++6xsEwkhBsUbbKoICfkJDaZNmzY8gooXX3xRsntmEHkphow4VFHBS8FeqQUPHTlypGzt5ptvFuuQN+ywGZr89Nxzzwm5AhIgFQSS+ER5CE+ADedVO0KREuyVkhMmTADtsrUHHnhAaF2AjZuwe/fuqvCAPB5++GHEtpS1sBIoSlaHKWAeEI+jR49WBW2/fv1EJD34BGYZAAlCUEcERSHRVTiRvsg50Rr8FMuz7Khjx45S0QEAeLT8xMAFzITvq60BGA0K3RHBxqTIKmgVQpzzZsyYMUgj+enxxx+XghaSVhUvSBo5QUlEkdoRaGcqRUeIyf/+97+ytdtvv136a4cPH86RA/mJ4SAReWQeWYlgSXwCM+BHkDQSYtCgQbIKEgKDiniE/FQB1qtXLyl3X3jhBSmlgIrpE4xi7969//73vyUa0YSgc9HalClT4EiyI3QawQp48+abb6pqDThB4RBgDxgwQHIqGAut4WzmE1IfhiZbQ3wKhZU348ePRyTLT5L8eDN06FB4BXoP4xLqkSxm548kOTBIjbGBEZWLiSbgjLSOaClSpAhvlixZwpJm4fXo0UPtA9qFAcHO4C92+g69DBornIXJFsgNvUHdQlgxgBRELkqdiL7glXDJu+66C60wrF17s3FUH1ac0MkEhJA0UgfWVqdOHW/CrKGKJwxAb+y6UIWlccL+6P72eSBF+JktTixvtDDURiE5aBr9lGJySys74yUtSM3aPhC6ZIJggKhudfOXIKPWw9QY8CwGYNqoKZK3BwXn38KDvRsbN4KpDPXZ1LC1kWZWvsICsG5LA7Esj7ESg3jEbFb0y8jZQZsFXlAo0IWjiwF264a48OjCE93eNUlHF/+J1jurDzu/mZnbwcPfPg8kBxY0bIuGamw72ExIUx2mz6+//vqNN94QJkK1MDIG0yHyw07HrpRh5HgXVCeqK83qRiKGATwrWJnV0IOIde2FjrD1Cyu8BAaSZompDgYvwKlh0BgwY+AfobqEQ2CSUuOOqCCCl/iXjcXq1auJpujatSteF0NbeJ9gAfjStRZpxrJ+ozHgEwOsI3PWBp8l9UuNAa9h4B/Cg9gbolNURz/gYoYirIiwCryahHDgyiPGQ4S1qYPBi068gQzU89o44wCedWvXMjt4lZiLGB0OUUYy1jlGh6DBDisGiIOSEbQ2O2JFENS0Y8eOaHlbDSembYLtkWIgjeAuZ8abv6OtGAzT1rx5c5wfhHYF5Uhg/jp06EAkOGGFkdx50C/xhYSsyQhRj0yJAINjEER2CidQ+fIVHnssM9DZ8Y9wycqVqxQskP/jTz55/fXXHbcTxYqgAu+cSlrMIIF8nJyQga2OwfvtN8Iin27SpGmnTneLRg4cOICuQ5z+3XdfeOO48TBVJHrVECgIQjjnge1XRoiGqWvHzRIqSngYvkZW+pVXXdW5UydxHsjQ4I7t27PnyCFjxC26w6RBJKc4b/TUk0+2ueWWlH+m7raoC7qGDhly4OBB1Nm0tHPDhv2fSl2cGRo9atTOXbsgvHbtbm3e/MIhLYsGbX5CXEG0hH3DfDveeeew114jVNVmXU8VcyfaiiFBDewqOKtBRHNQI2RrwmExQvsjKTmAEFsZG3/1wFFQYIe7MCpJjhw5/+/8r0eP7nQntCqWn2ob5FGeoqAMtY4du3DoREDI6pIFatWuTdy3z6ZYSJzlBCfRUsEc4BOEwInUYHwHjYgqp06eOn7iBAdB5Cmzb775Grzt23fhdBs7NnlEA1zRNbgSUfM8qoe8+CQwKVrmK7+TJ04wa1IvFi8dQysqEtpOvL/aCCA99NBD6mG0ELtwvXpa2lmO7L3yyisc47i0SBHSb0vVGxyKE5QgZ8p33y1YuFCSIsiXBxQAiQJgWCBz186do99+W5QcMHBg/f+dvmIe1SqiMEdB5RTQDj3++NNPHAzilAPeT3l+k0/8zakIDjrClwD13LkLpzp4TyMAIDBDa/xNO/zL3/xkp/yh7vKBUBxEpSTsbsaMmbxBaAG8PCRBAblUBZyGxe76dESxwb8d5gIIzq9yUBZNDUc0J5jkmTh/IKLcwRk5qcjpdHne0l/hBHyfnDVZnOIRYyfvJAepDh44cPDQIQ4Wge3Xhw/fuGkT5Nj+9tsbN2r05htvrFu/HopkL8VCyp0r13sTJsycNYtGTp08yc5j1cqVkz7/fPDgwY888ggBduCfALkhQ4ZenPeigc8+W6hgoRUrfilRsiQRDfLMUeKgvWCBgsWKXjF33ryWLVqwhr//fg7R67//vg8MoN/gtyPKgy0O57b4mz0raOdYEufX0D/+OHwYPZrjkJs2bRw69CXOWGGGfeCBB1NSGkz59lumADwzX1u3bhs/fhwThMJbrXp1eUzMGZIJFuDIlLO6UayFdg9Boil26tQJTBJTQ7gONm3QApbuvLNjnty5YCNQ4LKlSzmJNmH8+CVLl/JYtGixPn2e4hgg7B6DAYz16af7v/LqK7t370FksnEcM+YdzOOcEh/+2mtbzh+eL1y4yMCBA2iZ95wN5DgaM0uAkDhMxtatXLlyJG5gBimgRutwbg49iswFwMlsihPpcCrMKhw8PHr0r2efe7Z4sWKDnnvu5KlTzHXfvv1eeOE/xYoW/evYMXjaG2+8fvjwHwiwlJSGHTveSY4Atv6Z51WTkrp27vwFORfS09esWc3oOObJKcUzp08/N2gQGzJWd7PUVFjoY48+WrBQIQYLjQ196aXS/zseGMWJc7dro/CgdVJW4PbgrCknhLnDw7o/yhBhRXl56tW6fKJ93bplK/EFjBoK47TqubQ0BECHDreP/e9/p0+fcf319dat3zB69CjBxZYsXrx+w4Y33xyRNWty3z59ODxcr06dyV9+yUaQtYrgoR3UGaiWP2iKc6Scix45YgSSu0iRwpUqV+7Zo8dbI0defkVRb0oOVhp2UU6Gh4sMkrK0bNWKE90Ij4ULFnCavUD+/AgPWMPUadPeHTMG4cFGZ/XqNWDx1OnTcCjU3qf69OEYP3wB7gNPeeP1Nzp36dIwJWXN6tUvDB7MHAltlDJU5/j32rXrypcvt/yXX7p1z9xNJvIPKVKmdGl0oa+//qp06TI9e/YgXBN58OGHHzRPTS1c5NL27W/bvWvX7O/nIBVgrBwrZlM1ffq0OnXq3nNPVyRN7jx5+vXtN+y14aNGZR63RpdnI4BA2rV7D+f8efPE44//8MP8hg1TkDQcZ+PoPnudJUuWNm7cSJTnhDxn3O65597OnTux7yxZslT16pkZd7BZFS9eTLWFoB+wlN4ZM6bwJZeMGzv2ww8+7NevLz0WL14CymQs7HRuxmiWksJppBMnTiIt2FSxflu3bjVq1Cg0ifr1r4eWUKlR9djFYvZIp35aZuYeGOa11ardf999iAr+bdas2dm0tOo1arS95Za33ho5a+asBx64P85IxYfwYIQoBSwSO0Pl8LmdYglb5sqrrhylJCEADyI/R4GCBQ8c3LRt61bYkIg+gCJR1tC5smfPnBQkwa6du64qUwbbt8jPQRYWAxorVarMG74ePHS4cuVKGArQZFetXl3Lq8osGUTUXEPhoAqYC7suZPBXX3/1wIMP7dqxg16QEH8d/YutHn8jp7FP8EepkqVw75FHIm/eizFY85Z93vETxwGyapUqFChfoQJWCGHEIM+T2EE2a9p05qyZfxw+RIIgmTclHAOJlTYxYeXJk3vFivXbtu1g34bp55JLMhOKyN+27dv/+uuoSGODToOVaNvWbXd3ykzdJlKPmEfK5q9K1SpiXVSsVHHXrszzA9Rlk8EfrIjjxy9kiGH7CH/Hhsavdu1a8+bO7XrPvaJBJL3BlY1THfcMkoMCVapUmfC/XCx16tYRMgYnTY0aNZEinDqgMFYvSrK/R0CQfa5ixcwLKWQ2FwPY2A/uvz9TPLDLKXLppXv3ZubUqnz+GiQ2xPsPHDCU98gjSH7ssccMSYNswuZbeNisHPViTDl2g9hdwyyD/fsvUBWmWAayfv2FzGsEVpE+CL0Mayy0y0iPKZnXzJhn216+XDmIHm1IJoYzF/PaGxYqZx0CWkftgw2Ladq0Cbsx8MnSFcIjX/788CmEh/Smzps312ebaMdoToR+wAIOHjzA37lzZ+YOkj9yq/Ts1evg/v0tWl5IzOezHccvmWg2Z/64quNmw1Rxz57da9ete6R3b7I3NmxYmhtI/+4oCZdkZrJRNn9Filz6nxdeSP7fTdX5IfsDmY4o4efAECTTTInqLIQ1ay6k0mLjWLu2X8vexg0bqteoCcH3eeqpgQMGsF5k1r8qlSvjwUVZEeweIYcWxrYAwkCusL6Ayh9agLlK1ar/VvLa5c+Xjw0W80J1kQPt7NkLThQJ82+/ZeYVxX515M8/CxfOFFHe/0FvxDrJhG9BARzbwgOxyd7WWZxZUGhyXHj/vn1seKmOqZ2UbYZ2al933fgJE0jfBkUWK1ac3THWWyKpGNfmzVt69uyJasyG48UXh2TPnnXDxo116l6429EMzxWXX06GOE7+Y0IkKYCDTDXmNiPwBtp9+eWX3T0kmNosFQ9Hz56PSJMF6bNQhzFN4JbDbIK7yN/QkC7tb2//6qv/h52EyBGC13Pm/MfdNoWLFMHzsWbtuucGZYYthPgjHZzhBgSmntBJjx8SxBOApk/4AMjs2bMX3LllyxYDBgxk9wYCeX/fffeVLFHyy6++wj+B9T937pyvvPwyHgvSMvbq9QjuB5wWB/bvZ96xIqLa4yd45513Ups3F/jEzTB58pcsbaTL7j17+vRp6A/PjZs0HjnyrcOHD+ELQTZQnlqENTL1pUqXJms1WRfJf4p9DMTiVGfv8p//4Gssg6VXzSRoaD+lYcoXkycDEp4VAqueeOKJm2+5Gd/MDfXrk7iTsbMqSayZK1dOeTjh1nbt/m/YMHyQbJtq1qrlIM+gvzF69v0/QnU9C6UFYDBKzwqPs2fPbNp0IfU0GizOoU0bNxYtVgz/EBoQIVWlSpVkY0GsEVsQDFbQN4bUlb+uTEpOInKRKgyceA/oFUWYMmhMBB1CzTBBIho49i/UZGTPuHFj69W7nrBUVKpHH31s4sRPPOj2IAQDxqFmLWWALHtXhAeIwrYgsr3CfGFVuE/hGqAUmQpH4wAs2Ib183j0yBH8mPyNzgsmMWIAyepVqytUrMAsZFottu8oXaYMXIb3TBbGK2oJOsT9e/iPP+BKFmRp85M5VJeK7Hu8LDyQEMgM/EAQGDxUUKnAEl5lSBQbCDyXAiQD55Ej9NAnyGcikOIipBXXCOpRuXJXi0dsRLzB6050O6IInYmZgirQ8cmhlxnsnpGxctWqylWqZE1OpjAFZNZYlgPwFCp0SaVKFXEE/rpypcwpCagYIZlNrFWIDWaW6RZkUKVKVWFewytZuEhh4X5ftXJVpcqVKMZwAICStMBWhr74g1QWWJ9ERR75Smtsejg6zZCpxS4HWqIvqiC9NqxfX/L8CkWiIEQ9G8uL8Ib52KRYtZgWHg6Q5sUqY8f+d8WKXxE5kC+uyx7nI4O99sN0QJI0QxY2t4RHZAYL18CDis9WXt8SSr+xKDxCGa+u6zUMIP/YV7FdE8n8gwIvtoUHu1Qc+2RVkam3ghp8PBWGqbEJQ8fBf+Dz0JYXBms+JIh+ynaEjZQ0VXsBTgsYABj7PlsW6T6xKBzwE5o1obrChi4KQ9IE5pHmh31qwOq6gMZAiBhgR+5CSvYQgYhKdVYylwCqt8dEBQxnnQJ8KD+khdovvIxb0lCHPSs5fGKJUXDTn3ptn89i3nmJOQKDmCuSg0Hh1lIvMuINJEEEkXptn3fGHl1IQlks1I0u8HHZe2w7zGN3SqBmAnNVlTOosWBCRTONFW1dDg0PBOeKPZt4I6gpcKUwrhR5INmVBuO1EYJuuXxQ3kUY7DBxYHCvc+gpcILtN77L+xYeIprNeuTsd/CYuaWCWfcVf1/RuJEc+LedIRDNVL1vPFbww7liHOYcRY4VgDWcHsEA1jxcZeICbAcgcUkw/MpBxUSowmbaGRf6R1ZdgSmwTLCgwSoiPnFmilkUf3Oxu2fDnGJlypkzZs7Bz9lkRx0tEJVPuoo6YBqAmMCAg5UiqsToeonApLABIBEnh+od9OVj58Hy9udFIDiaE0wiOI+jvNwK5exoogNAfVYhPI5TAi4eMfPZi34ZPgywttmIODbfhQ+wyLRMBAHBrGpfkDTnUeLMwILGyUaZH2Y6krZxBoLgV83Qw0FjGI3wIBI4wx8gmVhqa1sfs0DmYzX/nn2ofAgPf5WhAOyzIsE4ZbC5AyLGRGvg/LXmyntYD4nP4mkDRJw7WMUjAk8hpAecE9tDOB0KAjLSX2oEV5AZlUagXdJzuXLOIyrwh9gpR6ANiREFSXv5nEewQ8bRtWzZMoxOUC/mIyLrOCrIADmNEeKto6i55HIXmZLRaGkZrRcRxapBHeHUtDdvaggWgfbLc1aGSH0OJIFtUntxGgbMw5+J4BeHV+w3ZaekD7OVoZq0U3FUCphY7cLyADRM/8KFC+10o8vYxAASgnMPiENCelAHmH6OL82bN4+FFwfaKPQjz3bZREh8F0MVi+9dFyd7OOLKGW/4FwSMtICScV1wZI/kgyH6IeBFMErkEEsGXRYFiy5wrZNPF8WLtRPfxGMYHWcnOSTLxZSckyUmBWkKcrBHgQdS3vkzF/MehVUkcAsWXQGEB4efyRZJXBDtbtmyhRkCPrI7iIxjnCtZsGCBP7CCBcVZeeve0dk5fYqEQyZblwy2d1pjtmiZ9qV8DbYRc3lYCc5wJAen0FFCkdAsP5YEbNcVLoPXijsf+bFlNPceyhsOeLOBIKUHOyd/7eAwN6cGcXde/HUdQ+8DIoRJhB2EaRLhvEyiP8N1UGhkIBwyJ5m0OeU2YeWcNudEelANmgsjP5AciCJ4JX+zRiA/9hyo267o2pydAhtsmFwPiiPskElEsso7Zsyjs/8G8GBESGUDlwAn5cuX56W/aHg4JDl4UE/t9yVLWpmt2G9y4J5T9XhUmjZtyt/4OZBR6MUkt2G2yF+Gdnw+9XF0btFi5ETgkR7H53FfjD/Tpk2DfCHi8/nymrp4dwITP2vWLABgergMjvyM8HoHE2CoAgtGeHDsUb5HRHEE0pXG4QgfffQRi43GSYFFBnK3EvABNgduAJWW58+fTxYvm2fckLugrnXr1uqQQ0djrLSAuEUzUI+4QlHoZGStZ635HAWT+OGHH6JSiEkkc5RbiUHRCJlE1CxaRilkEp3ly5NgQ2nwB5H5wzwWRo0PFQIIhcsLISdzFrCVIVsJK93cnYM3sGMOIQmxgagDIQYHlYM2RRUkHCtRTCKchJUYYvw6s8aK86df4pmmF3Nabsfwi4pWwgM6httykSoRpcwxHhh22fwYqlAl4JvMEzw04LUfAaGE0SMb6TFgSbUA5RFpCDnBEA11eS+y0/CeklwSAL26Mv2gAn1EQItkggWwVQyKETNen4OFqgSqWQOAzd/IZtL7mNGC/PY5anNJ+YZLe2QVjJDID7RCi/L2P2HFFkyHKvAg5IfPxQDyceGozTJARupvBtWS4Bl6sw+S/ZJRbJlEv2zl1eUDVVgjBMITTIcBMokwBbdUInglFgyBN6gL+RGizwBlAhVTkhycHSVDJVpUItaveV9injvg8bkhA2DkE/QjaIM9GV2wrTG0QF222tJfa27f/IYqYEBuOLC7sE8KUZrKXuBFchJZ8kwieb3MMNh/Ax5w+Ujcsq1hGcpHxsL+Bmox66BMCrwIRxEZwAJ2hx1MzZhnJTw4qwwQbGORH4xQiHeAgKSkpwvJ/zfTzEjfuG71gT/+ysr5Dy4FyZsPcZ0nZ3Zg4gaFI3/+kZGUvUD+fD45AJOEGhKs6U2wYNirCAAzDB7gVYMSVEXecn/COSDi1AJiGcg39AJPZG7sN8J0Gi4bEHUhAmGhEmdiaZO+zIfGqc4GJajUh6wug0GJFkCIzzVpfyCUpGUEv9oOmEecmBuB8UEtqk7NMOEL0K7P8moLlDSTvrkLB2+i2DJkj8me/KwSbEHSyA+fcSjmScSuEhB1NnFimES4W4gtAxvqguS/LBO4vGyTsfAIU/a5eA0w04i6lsVXSA6VBYWaPwT5MQS0FnPsEF9ZWZJf20EIVVTTrmghRCeN6JeBG6yCoU8iaxmeLJkbawrWoU4fgoTFbla/wCokh/WMKgHRQlY3lSythAdtAQEAsbPGwCqCf7i8FwuDAIKOEc6klf6b9E8e6NGr/8gxbxfMlbx13fIRI0Y/P+TFy/Pn+vy9d87lL5377KHDWS7pensLswIJAd1774VbXAKOQRZgLp9++mmMehiOzLUgOHQfRIv4xHlsHHdm9JkrBnwDumHEMkaIWDdMDUHtaUAdmDR0JBYDGoTcYEJVeJjNqhmjQAnCCRkQVLUA64qU72IBAC3zyJwG1YK/wrSD+BTWW1g8kRQ+1WHsn+RY7dWrl2wHPJCdm+o+y/vrLm7ew+aYBRUhzA53EGHE94cQVDcmUWxbmUQIzy11mFlgvaiTGKI6jAiESzLjYr7Yr/OT44La6Yu9r52YK0qaQ/JojQWCoV+azQkuQjs2Kxm8wXQTbLAiDIRFKsQSawfnc4hbMUm3mPImTZokJpHhM4khZueDEtRoTKQyO4latWqJHumIPRmYN3M/PsFwOnbs6MBuHEB4wBbZPWCFYHfJZpAbgOHU8lwFwhws/G3TTEo+c+xI8Yq16ta4NltyFvIn71i58L0vvn8otezEmSs/nNAta9rxezp1btLkpuIFc0Vg/TMrBPICPHwNp4hbkgPIocXU1FSEMNmYWXLgPSjJ4W/swuGhprdkMSNIzFPurwXr90xl27ZtUf9pkOy2Nt0S1m2Kr0g4rpRBk0DBgePE0G1UdkbnqTIsdTGJEHP6Ed8AACAASURBVCGTGCLTUYeGjsgksl7YODKJ/pwu9rHBHhpTD/qB9GoIRixaQK9nCHYkh78eUW1pUDo8hMXPcD+Kv7p23sMxUJ0RSGz9WeNuSQ66RjlgEjFe0T6TKLP924HKZxnIAF4Ei/bJK1CgRaCsuS7WC1xozlKyBxAeWAk5bQ762Fyj4BAHprq/yDZj8E0tWji/1vUNkBznf0k5smffvGf3zk1pp3JelC05KTl7juT0I1t3/V68YGnzMBy8AfX4w6W13dwCvkT8sawHIPeJVnMVm2/YKjVq1Ig2oSpXTGH0y26GBmUwK0oouluw2wsL+Gkc/Qs5xx8EdFmUdPAJIccBUuLug1JXYStz5swJ0TziAFqPVEE3NEwEtIQNQYQe+ASSuTt/V3Hmz0XxL/piErl8GzeMVFp9wmDzJRDCNLB7o0wYVh+0jTEjRPkElmDr0pOB4uLT4WETWnMxGCvbGuQT1734c/uba9l5IyYR4gd4VzaO4rIfJs5MEmzaOPyB39oOYEGVCRwgxM4aZYe+kcMqBpkndkbiFh3RZca5MwsXr7yx/gXPD48/L1tZq3bNU2dOpUtHR0b66TNuJplBHQho+ndXbKj4datlCBQdDfc+LgGC2VhaWG/xbyOi0BpUH2NQs+uzsFswu9U4M+iW9PUJkpdfko6eSDMDhHZI2suDUmFjswuLRMUW1jBoT5h8MQehfQcVY6I2i0EJrRHLBxsX/PwsH/7lDQ3yh/SyuIIlr60Xn4MCSEz3MA1ENZxZlGHPh3zlOEHo5zF9dup756HuLqmGas9MG+pzBATJoZprTvyxd8vBLNeULSpK/rpg6tH8lds2rHFg3bHkU6dJIJ6Rns4WtsglBX2CksgvmXtcMjJLLtt5DIb82NIyF2YbboziChXErfiuGMVAooENYbN1xjMBZydCBE0IxYhja5CBz4gAm/hBZhCCKDfl9IKCy4/qrJdQYn9tAuDBYujQnFtg84GoxvuN7VEcEcPoYmFUR5bjicTf7GAD5EN4gHqmVpW3TJJZu4cUsPtLJJ4+eWzB7GlZCxY9fnjf5t9Orvpl0bL1u998bWjeXNlyVqhZ5qJPtv92KPfJPRcVr1GhRCG3UA+hcH4Hv5k5vsKtLiLWjkFCxI3AUBHItTPyilDxXmy58Oa5axaI2Ky53pEgaZRHc5SE631FrEG8pPyIpSSiEmOvK7RtkBCutBkxhISpI5g2ZivEAAZwTMF2vLzsToYPH86qdCA8fJitmBWcOerwEFzmuYEI1BDS40f/yJK/ZJ/ud23bsnnn7j0Vatz43DP/uqJQZoaA7LnzPzfombXLfly2bteg5wfk+p9LJHQM4iID1HjKbRU6TmKrBRSfzp07c+IktsB2C1pugsLlo7YGSd966604P93qwjvtwEPEzzsgxSUkiBB4OKgOq8EN1PnYeThDaKHLSqQ2L+GvbqHLS7ZpU9Lf18R8z9YSsedsgtmTBnXiKTEx7P1Rz5w5k/BFDAveBzXqEBJb5ThfJIEnMigr6gOJGwBcEx5xg5HIDATVgK2iY88e9mLHzsbIDNBnL6NGjeKkUqdOnXx+1S81BvxhALs0DmH2qf4KWL8nPi0O8opajzHyX7XwiDzOL/RoPjceNVAi1bGLCR4iBbLuxxMYwAjDLSCeACW+gACx2I2dBe778HnEEHKw+RAqHk+uxRhCvlugcn7TZyIst9qPrXYESSdaOvHYmqN4ghYTSPfu3bGdOhhUbO88iAHjlL92mDuYeI9UgXYnTJhgzjzhEfDCDcaDDz7YuHFjtRdImtBJx8b9cAOs29cYkBiI7Z2HnkiNgZjGAJJDPWYb02PRwCcaBrTwSLQZj+Z4e/fuHXr2/mgOQPetMRBfGCA0nLyczmLlY1t4EH0xYsQIkjbG14TG7WjIU2A4i8QMjhkzxs5dAnGJFIZvyObAm5EjR8pU0HE5aj0o72AA8uPwf1DXSUjgY1t4iITe4t4k78yHTUiYNjiF45+B6djs1GvFGAXxu1zq4DXAIgPPY489hstH7Uuc+PV3aWhkoPJmL45XiqjozUHFNFSx7TCPXdRD0NzA6DgJDxlZSAXvLEYiikgjpQ2JN+xc/hNFICPZNXf4cN4zkj3GaF9QDgcqHcdVkhmFNHEyX3WMIsFrYAcQHvA4IDbnJhHDQEuKwCF4r6HMFXjQuJEcXC/jD7fWvcB0uH3PuowHv/bv379ly5bPPPOMB2HTIHkZA7AaTsWSrMkZkCIDnrO6upY/DAQQHtzkQRYNeJyoD8tjFmWSxK+++oq7u7kiwl/rXnjvLP9HZCB3nOrHy4OyQB0bJlcu8rToQn+KVwxA8840LRASo+slAlMJM8du7CzXdQDhQRZ+ea84yX6xtLD14w039GF8IMqQuwWjKDxQ3rkRwd/RU7ZNZJfE98iPTHPcVclhNE1GEaBI+10wHQR7xGKqFftjtChp1h4g6SeffFLeQ2xRV3+KXQxgvMWthauPm2xQx2FNFlnTwzpMFiDJ7Z0twADCQ8JN0mzuKudWQZJqfPHFF8OGDePycA61Yz9BwETrQCxrj+ORPg8JAvDixYuRFlxczHUCYIeDV4gTLvIN5ebLsE4kjSPniHwAToiJqyUhLC5TQVuHyEjOwzWT4QYgwu0zg/fdd1/CHhIkVtBgigEh3bp104cE7dAhhhD4r9BuyRMKO+LKdDgSy4f1ggD2YJ5/YOa6KiQHq5s09fAiVve8efNwYfKLLdXWbrQVF4zAyEQ6Jsj9yy+/5Apikd2PT3ZmOpJlgI2bupET3KYpLqoUFytxXcwPP/yA8SSSwATVFxIC6udKQUif9UA+OHZ433//PRs+Z9pBUL2HuzBj8bLkDvfwze0zp46dwObWEu0NrBbVkMXCkkF5hx2BT9Y+F9zy6E3EYgLBEUAeZXgROjfiTaRVRuxxhXNUZhDtn9MeDrq2KzzEDamiA1gAF6OK0xVgAbEp/OoOug9HFWQ7rhokh1nvQHNnzrx8WQIbDsgIHYq8uSwGLJJsoZAcKCnR2ti6OEdDhw5l/+pig7qpBMcAC4T78jg/hKhAlrBG2LhzloirfB2HMoYPpYfP/0jHZ4CNUdSuXZvtCJIv9N7J1c2GjAMMdq6vZt9DDAv+CAf92hUecDQ5YHbWMGjmjP6wC8HmohWW7vMyKCaAyShY0PdltyVLloS8nElaB/gNtgoTjxoFkLIitxCzw3XsKgwWgLCWh4QMA2E7e/fddzs74BpWUCPTOJPLylL7gjLbtWvnZf0mMpix2QvYQ3OVCaphhRh+HVyKZ7O7EItxux9+Yp+2KdYFwUdcWBBiF8Q0f/LJJ9OmTYOExo0bZ4czQ3LOtH+7Pg8GLDsQx9MkCrhSELtKiGknaBymGSxPpzxbIggI9VwiHScB8ky+gT3BkVWRjnpCnKt5X+Jg2kTLMvzMfguMF8DM5fHwMyh+YmNHGaafvLPmkvjc1FGbC/h7w66ZT87q+mtTvMf6bA0V6DKcnWaAhFFyeXtAeKA6n6vOGiQ7X6PYMuEeLBy8PhJOph6ENG3a1Boh8AgYpXUZO2M3lwk4ieYqNt8w+1iMncEM0Qq2Y+hr165d7DlQsYUuyzKHAs2uQerSgrOuaRDDjs0xWhdj24GQkGAwiQAmH7HowgOdASn7xQGMRiJwBTaw0rdu3doCKqiIwrBQO2IGI6G6Z7IrPPAZyCwgLHj6kyZ4TjmxSTTCl5E+d8aUSvWaXZovp/h0Lu3M8VNp+fLmMZY8/8wM4UcRfM1nAZ8vgYTFRhiYyr7hv4xQNgWb5g03ScgWhJRy5dpzWma2HGwLQKAMY1OHhuTD7QGXFI4ZNkn8gc3KMHyqsy31uZx8Ikp9KVIRuLUe1JZZDCAEX6U/GNCGkOsYGWQBZgc8QLjqBPmszlyHyRARvpYZHVNpIfMg+19++YU0unLIAMN6Zv1bO4cEkYfIaHzimYUDhYQD1YwLLh9won1C5fPaNOif9UKwJS2LWrACeJHZ20FJLDksfJ+NW79E0WQGrafDugX5FQDUy0N5ZLEIsUcZqIXQHmf4kV2AEJUtIK6sG4R/QnLz58837IB9juiBBx5QdW67wqNGjRqc8AQs8AhA7BOFeOcNHZPwztDZnk2/PPrI429Omn3pNaWyZKT/OHfm7KnfnC1V//meHX2CBSsnyMTnJ4uXEM2gQYOIFeaWMVmMyeZXrVo18QbswH8JZJZrGGmMhdGVc84sfpwrFuzSH/BM2Ny5cw1fQSaaVNmyZeW+m2WMw8Ms5xgLsRlyjP568fle5AJxdv2LzwblS1gDG3MQ4q/Y559/3qpVqyeeeEIWAA+kcmLI9erV81crjt+PHTu2YcOGjz76qBwjJP3CCy9gweCiSYuB41yF6sqUKWNRxtknSG7btm1EmjirblFL7EqdTTS6jjkkD1yx0kEUdl3RL2Uw+ZqVOd5cc8015h2JBbTqJy4idMVQASPC4SE5z/r16/lbAi9UAWf4kdDCFtA8UON4w6hZjBbrkTLgkG1Ahw4d2OzaxIYsZtfnAbdFYKA50tmUKVMQQSI8F/0XK5Dh3H/a6eNzfl5Tu1qZjTv3ZvaUlFz7hkb1qpY9duJUsPA5KA8wqgXMoJ6L0AJXLgB3pvhbjAj1CtXD4PAg7Mq8GCwa0Z80BkLBgOtULYFxvWXkHG1KhwdqIkZRdfmoeHC9dwdIxn7D3shfRbQ6f8D7q2J+j5Xi9ttvR6vAgJGamqpq1ebCvEEFwUHiQHJQ1+7OA27L2Q6c8rh00PRRlwQodNy8efN/bswzfpwz/dobmh7esHDbRhLeZWqUgJhsV075HKPvl1irkGQGY5fQyNBB2C0ZLAbouUuXLvXns/LdRwTfYosAYHnZMnIa2YzGFEEQIt0VchH/njN7QqRhDUN/LHLDbcSQ9DfffBMOo2IYwI9yk6jYRYoUkYog9h+fDo8oQ6l0z3TPmTOHDZA5nIclAPyc1wsdWnphn0SmajT+0FuzaCEIjk5gVfv27QkFadKkifAxoClz4MUw4P3b185avPHw7k3HzmVs2rIlPcOi91A/wWrZ4JsNUJhBgJADKOoixNqGpQjZbliuoQLhRn3UIoyhCDyQzGYWsYEb4Oeff8bSiqvJTsidG1BEoQ1mEBcIjpAo9O2BLocMGdKx4z8MuYKkzYZKDwDrIRCw/+ArEp4hLHgsH/4lQJ/lg+HUp4PEC9DDlDgkxzEUNhnskwRI/AHwBP5gWnfLxgAVGfTmcAw/8M7DYrsHs4N3qxb/9LOnZv+w9I4Ot+bMlly7RvWp7/2Ylp6RI2vSedDFv+EYhbFNEIdIwx7KPoO5QarPnj0bGcMmzpvXZQMwB1D4iZFAZAQ2oKFAauA/HN5LI8oi8gz+9cV5EcF0nHcCzyEEUUQhCkaJDw9zvxi2l9cLznzOxqEgsgUhVARQkXaYs7DlCI08wjOHlx5nNjshYAi26wDCAxYmfC8+28XDg81KfvrrjwOfvvdO7qtvqlyhXEb6uT93X7Zv+6ZN2/dWvqrYwd/3bt25Z/++Izt2/1ay+BUuihFMPejpPl3WMF9+fMVaxcREZW584s3nSwN4Xl4APuG38/Lee+81+4EJ80BVdCWaxQ4M3i9jQdLeBz4yECIwYne9CMmHFiUiKvEZR2CX4G9e4I3PPvssu38HwiOA2YqNBeEB/jrGfqV2efL4sTJV6lYqXQRLFel3k3JfNvqNF8+cPJaRJePon4fK1mt5/y0NDhz6M4t7hix2FQQnsOPzByHvmSqsoh6XHBbwx/cnaBe3HgF78T1Mf6MjLzWbY/UrJM3NE9hk/FXR7+MDAwgMFCZ+UZQcIWIywM4jqNYvLV6mUfELsYNJWXPUrFNfVr+yQtUrKwTVmK3CmHQsrGq2moheIfz87FidkQ6+tbgRhzE9iSGSz8cff0xwoBoXK7ARu1QdIkIsquOzdJz9CQs2rnWLxvUnBxhwU3g46D5hq2CVgmU4TtGIzz8Wr0X74IMPWMZt27ZN2HnXA3eGASII8GI6lqmYZWJxvTjDVcRqaeERMVQbO8KfZHwV78/Ej7GGtfCI93l2f3yEIYV+BsJ9sGK/RRCL39rflUjW44tt4YHNB5LSvlbrOfb4V7Jn68hUOUeCpF05xOrxedfgeQEDmEAGDhzIEXoHwMS28MDuTwwucW8ORq6reAED0C45zaxDHrwAZ5hg4DCw4QZQSJrQSZ/3m4UJBt2sxoAzDMS28GDMbLuc+Zyd4UvXch0DiTyDXOdsTiCRyAhxnbp0g+HDQIBQ3fB1rFtOQAx06dLl1ltvTcCB6yFrDHgTA8TKP//88+akk3agjW3hwfFIMiPZSSZsBxe6TLgxQIJPQ6ou4mdItWu45CPcYHi5fUh64sSJCZvsy8tTE5ewQW/kJ3S2AGNbeCA2+/fvT4qbWJxXGdHv7I9YHLIZZmh38ODBa9euNX9KhDcDBgxQL/NgyJD0M888Q1L0RBh+UGN0tkz0uZmgkBxU4Zj3eQQ1Wu8UhmmS3AbKduawIecKyXxkLizvjMsaEkbNLy4zr1gP3N9XTonKO9b8ldHvwQBJkriu1HEQGtVJEyfvr9ModQUDAYSHkNv+cj2iJWnnnrNpALFUJEWaM+GBWYPTds66jmItggJbtGjx5JNPRhEG3XUsYgBWwxWBCABnwHOzr2dT7TobkRdqBRAeZDkmi0aDBg0ErLA8VXP8+uuvuX2a/FdeGEnkYXDG91U4acGfYLYeTuhdW7cfpq9kVQnHzalhglY36ykMOF4sjCJG10sE8I8ZALsxVx856CuA8OAKdXnVNjekEoFOSnNkODEzHM3jVqjvvvsuisIDznvPPfdE5X4Obm7Hy8RlTdyuyGV/HJzWBOqA/kAaF1row8MSdZB0165dHV+Y6mAKdBV/GID1sca5WQcq5bJY+Ez8WVyhN+wfzugtgPCQaOVWpb59+3KZIN189tlnr7/+ep8+fTC7YzwBxeYb5/3Nh7vvmUtcjhE+UUVCKnFNCDeNkwcfscHVLhxz496u0C81wgJOAji2dyQDRibxB7RLplVGSkfcMekuAqPeGrQLITmLFIw68KED8OKLL6akpKjtMNE4zBM2giAolGIIIbJAXCSKLssNeqwdEtqL5UPCb8cXj2MlY0VzCZtY4yRVhNGhJlarVk0nWJRzZDfailv5YJqkY0II33jjjZMmTWJTwmlYOCYJi4Ka8pguDB8nfzhqCEiAuXPBFDjhjgr2fQsXLgz99lA2duxmsBYipHEPimTy06dPZxl48xqroGYT4tH7MxVj3F8UlX1zULPm2cLQEqx8+fLlKFjoVchdlgkcH2bFe8c5b5BJixYtojoqOROEZkxr3ExBqny0nPiLohaObQezbFd4gDWZlhK0IuGFw7Zx48ZEDSHqHfQdi1XQPlBwyCNmYIJwdg4xwPSFJ9zx0JAW4JYwKhpkMbD/QCBxqzlqVByk8HrppZf69evnGDm6osaAAQPcpIQBGcs5YoMlyfJBeMDxYVaO7yzYvn07SmH58uUNaxy+d8MNN6xYsULeIOvN6cCtwIYMHRQXY0AIidvkQp1Zs2YFLGkuYFd4sBmU9j5MDbBIcbE2dhtw6uyMiRmaYN+wu3z44YexGgVb0Vl5iAY8sJP1WZ1AQFDEhsznV5svmfh9+/apPoCdO3eyxXHmV7fZacSKQSqGaEvUjscffzxhzVZQy6lTp1T8Q9Ldu3d3fHFFxKbSIx0dOnQIEpK7N1ghvAjDgGPwhCmMOCCfLUC9mAS8HF0NOeFWmDJlCveJjR8/3g5nRj0Fbz7Ha/3Srs8DIWzYXkix3KhRIzYfZJ6w7sn6K3OGxs3KsS5m+Ao3x4eP6cyZwyeovijMUkf9V+/lBemYXKWOQzQhO2g7tAsyfW7XOC3PoPiECKFH/qBBVAMzqFgRZSyD+avFG8GtnNW1aJZPYMYaKiF91UaYceL32VqVLVvWuvG4/Nq7d+/77rvvwQcflKMTJM3dFdZZslEyQF04JhHysJ5ExxMBzKwXZzCzynzu6YniwaxECJ9Q2vgXIjRzA+oyLjtdg1WGr+KWR9qUqjPqMkvSs0dG8JZt3bpV4Io9GTb2Nm3aWEwZM0JhStoxx7Gfk3igTbvCA8u+PFgAZukPJAqYmFefDvNtm9cXKVE2b07RRQZzkJScNXs23z0yPR999FGwPgN4K4tt8+bNPglLooyvrpjaGSkSTt0EgBO2sRKh7MaAhzIWsyU+AZLPPQr7DGYIDAs3IE2x5Mx+cqpTEpQG7MhcAGUNbIiNo/lrKG+YROtUMeQCIIeuyhaZQSad9wEvXnVrEs0DjGLLYAyXoUpRIIRphaSt95rgmQJMpXk4Ib6B8KANn5pNiC2zNAA44ET77CWTeyQlGT6JVQBrkvocfBP7Vd68ec0lyb1tRw1n6cFGVSCpBeTSaCyIPFg11+egwvESaaoyQywl+ITMqJNdMzR+eFUx1gWEp0ePHujHsphvVm5uhTADkp+LZQZtoSoK8c6befPm9erVy1DlyP7tXe/s+PL739WteEVGetr3077Ze/jY9k3ry9dJvb1lAyMVZMmCQeORRx4x92v9BrE5ZMgQrpI3pya1rujsK3SzePFi7J6yOgBwcAnPhHiD+QXfmp2r5FmcbNcMYIBM5h4dHKOt+ITVEh3HLJuhBooxKQ4GIqx8RMo5qGtdBWixt+D78VcMydGqVat///vfsgCL8N133+WiNxWr/qrH3/sJEyY0adLk0UcflUODol5++WXuVyAKw2K84Bmqw/1mUcbZJ/g7FnP1Zlxn7ZhrofujKDibaCqabZvgCu0NzVpakkXcvFnu8gaPt3lHYgZSCG8WtWzkp59+Yjpk4BYrFLWPUwrmul54g0kNtVJYF+ASWGUMOf8NQIJD/EZ33HEHp3eDhd+uzwNShouxJ0JMcbaDvbYISwVWjDbIErXjjHNnZ86cU+SSXJt37+X9gW2/TvhqQYeOnR7pds+rA/ruOHgiWCg9Uh6Lp7qfVSU8EAqdxWYkn6GuGKDZ4YFKjv/DvBg8ghADGD4H5U1QNVT+MBC+SXS9ZeQci046PGBN7BL8uSRt9s5aQ06gsPvED42wubG2KPqsGLGX7MPI849WgQqLXoLwsO4aFQRvebNmzayL+fxqd+dB+AGHPNh8bNiwAaUVsERz7Hfo2LAtWrN0/qXl69ap8sPWTduzNK2Z/7Iyne+4OWtSlqzZsiVlOZ+Xw6UfcgvdTSr+LrXqtxmGiQ6yZMkS4nRV2x8VoCpSIODZDgUYYfORkpjFQMgE+yq/AMX+B9bqyJEjpdkh9gcU3AhQyAw2Fkh63LhxBuoKrtGEKc0mAF0N1iRGjOEeQrKzvbDGEGucYF/O35jjG9mT0Z1qurFuKipfhekCjmSTihiRzZKG4djdeVANW3yHDh04W86dt8JFjKbMAT32g2qjxw/vnfnz+lKXXZy/SKFNWzchKnLmLdS0UUpyRtoHY9+9o9e/Sl+Sxy2cws3ZBTs+CuQADNwPXJv6ww8/qGFwmIkxZ6EEEd7noE2qMNNgEksr+znEM3tJdCj2y/BW9nbh8E84g9P1WsxgvXr1ZBS46+17vMG33nrr/vvvV4EUJO1x9hR1rOICwdeIARaTCxY8lg8pJtHqWD78AV8KBULEORcHYI3H+SF9P7TJsUFWpbNMHqHA46AufMOZPAiqL7s7D5+NYmHkRALzJ79mZJybNWNmyVIl169dkyU5154tW9LSM7InJ6WnnZn80YRLr0ltfF2lE6fTLsoVUr8+gYnYSwQ7wQKMHXrC5AqRMU9Y7dknWjimrMGjIpiUWXKRzShQCCoYKxVjxWxlPUa+4svRmUgCYkkXCIgB9vfsyOWmnOWDoUZ6gELnm6w+RAhrHIGBPYBoLpYkBjF6jJvFKJCM3GWM8C4ZABUQ+bJAACaOPdEQh642jWVQdbOcO3tm0ZxvzxYs1z4Vlpex9fLsb04afPivk0Uuyjb2jaEb/8xWM2e+14ZNfaDPsy4KD8BDO4jwjKIps+MRgQpQKoTlWGz8PRP/jEMLfQHYJ4KIlXziiSfMfmBmkE1bXI7XGWKjQtLOQI1WLZabjI8XMBgeQwcM4YGrGcrEDAB7QVyFvsZDh8r1FmBi3bp1+/jjj1u2bBls4wHMVpj/LAKZsF9hw5Fd7tm24ZcNuy7KnRVTVXra6Q3bDtx7Z5tfV6w6cfTQiYxchfIkYzEsXKry5RfnDBZKf+UZOWEh5jAMf+XdfQ+94kKPV6pyF1f+WmNxck6I3Zu/AvH9fu7cuYY0VpC0SFUQ3wOPldGh07DGMa7EpeQIcRYC7DyCar1kuao9y1UVVZKy5WrR9g4Z/NX7yb5BNWWzMHsuXGThiEm3CUAoxYCcyA1nLeBxifBmyxmcdmqJnYedkvFXZvTo0aggatxnTJN0WCcIzx/HX5x1gffCZhiks/YTs5abwiMxMehs1LB+Ag0sTILWzZL5KhYT6pE1geACthrWo9NfNQYMGCAiCCuIYzURd0jCBmWEj5a08Agfbq1aZhfs5WhxK9BD+DZ16lSkphYeIaAwQatiPgrHicgExaYybBgRZ0EMB/VsoiW2hQcjRwd33VdmE3e6mCsYINI6lMMxrsDgnUY0SXtnLhIBEpgnlzOxq3Mw2NgWHoycWzQillXXAX51FWsMoFFOmzYtYe8+4kaDqlUvuAkFoiBpktk5Nu5bY1t/1RhwEQOxLTxABLEQceM6dnFeY6gpZjBh43TJp2uOZtQkHUPUm8igBgjVTWTU6LG7joG2bds2bdrU9WZ1gxoDGgPOMECsPPmBSDnsoHpsCw/iGkm3RU4bByPXVSKPAVKicZen2i8zyCEPf3noIg9h1HsEIVxwEscJaaKOYQ2AigEC2D788ENnZwZiW3hwouqhhx7SBuLYXQ/QLjcJkqcodocQCuTDhw8nR7XaAiTN5Zj6JsFQsKrrRgYDsS08IoMjESLN1gAAGANJREFU3YvGQJgwwE1QJPILU+O6WY2BsGIggPBgE21xMAd7WViB043HGQa4uYsz1XE2KD0cjYHExEAA4UGScBKDq6hBnMjHb7/9VutNiUk3zkZNRmt5mbGzFnStcGNAJ3EKN4Y91T6BjqQrDcs5D3zR8tZ4LibizimuRIW8WrduTbIw8pBjsVUv0YwwXgjSTU1N5ZxghPuN0e7EtZ2kpwR+Lroh5XvUT+dBSxw4j8VUK2GiAUia29W4JCpM7Vs0iyGByAXuskbAk8yDO+kIGrYorz/FAQagt/bt25cqVcrBWALsPGSL3CHct29f1jmXQZGRacSIEXzi/gkkCtmKHHTsShXEJtfphOM6blfA804j7BeRGeRwRRvgoiF+pFbkEnU4hbqVjDzA0O6rr7567bXXRr5rL/TYr1+/W265RYUEkiZ0Ut7sEjEgSR1IlBfLGdrgzD+3LXH8ds2aNRZW64jBpjvyJgbsCg88e2SBJQE7qmLDhg0nTpzILfCchuWI06JFi7w5Ng2VxADWRW4kZOK4zQatlh9/3HTTTTALbXiMIp2QHNPfnduRhIqtBpcoc0UN1+SRfRbhwZ2YkAd7keXLl0dXvYgkHnRfQWHArvAgmFJupbFccfW8MF4TuY/CotWToJAe4cLcg8Ztz9xsYzBS8cjVTLt370YPiAxI/fv379mzZ2T60r3YxADGTO6S4/yNvAxcVGRTSOoUQodRO2w2ZVEMFoGmwvkVLGNaGlkgKsKfmN+7776be7Ud9GtXeLCrlfkHoSqmX5xjQqJgPXeFvBxAj2Y0YMCAnTt3OqibOFU4B8ONET6TuGAkqVixYsQOymBGN1yrAE8ZPHgw97cnznSoI2X4Bk4KSQ8cOFD4pSKDExQLLAo+3RuYGdihhn7ohGFymJfr6jiMNm7cuISd7shMaFC9CIM2XomgaonCdnNbQUb+9AUcIVjPO3Xq5KB7WYXGscIHu4NBbHI8ko2/9U0vNB6mGBLvtwyEbBNxC2F1FNjm6nX+kI958uThlmb5GMok4gzDVm7RFJwRYNS54M2nn356xx13BLTeeB/VZtRZw8zX7t2733vvvffff7+syz7go48+Il0/12ibG5RvwDOLxQLVFnUNnwiBK1u2rEoe6iSiczCtMJdQ8o+hei5ZskRE9tMR7AJx5W6whjWq7WPDXJKWeRkOBhK+lgHYJkKgN0pinGBhmsdueMM956oOald4EJmzb98+0RZEQH/ywnRIjcgrU8cZm9auuuzKSvlyne8iI+P0mdNZkrLmzJHdVDLzBST1/vvvBysAWT/ID6z2FlIHUPkaCun7BFiiAmyGg7CAmWZDb5nhYy7gpl4564JKDh8+LIZAR7CPZcuWWQzT5icmETlkURj9gIC9iy++WJYBPCYdv31AAKC68E1imFq2nkTGDkKwGEDDEiFUYUFB0tZTD56ZUGtsW0yE+mnHjh30iP1AvCT+BdqQCwogWfjMTigowkqhjhEzKQ26KzzCRx7Wk2gTyT6Lha9lZo2fT2ODARLmhR+Zre1kKMHmTDyFbMGu8KhWrRqxOgAETUMKRPIJzYg3vO/Ro4cBpj9+29L1rrv/76Pp9SoVzUhP++bzT87lzL9/+/rsl1e5t0OLJBMu0X979+5teh3gBWJz6NCh7KzNqUkD1Eykz8wRN72DYTFokcFehqgRis2c4iwNHSUQBlyPK7j9NfXUU0+1atXq6aeflgVY8++++y4x364A4K9fz75/7733yBSpBrtD0q+88gpx97ijLMDGlATzdeV+JFyYmBPlRgfdAqMZBCN6Z4LYeTRo0MBamFmAyicEEiJK6rZMd0pKih3WZt2s/ho6BqA3CKlDhw4tW7YMtjW7Pg/crSiMQsefMWNGly5dhP6IVgJVGaxGGefOzJy9oHjRfJt37wWgtFPHvv5mVt0GjVs1rj9y+IhTZ9ODhVKXDwUDRYsWRbX31wKrmgL+vur3cY+BEiVKqFonqoY6ZBY4NoZQJAetobjcdtttxB/nzZsXPY+zWVpyeISu8GRPmjSJOEwH8NgVHkw/SdwwXE6ePBk9pVu3bqIzBAlnmgy0tXLRvGJVrr+ucvktGzPPo2XPU+CtMW8nnzj0zbdT7+jaNVd2u50GHA9badS0gObygO3EdwHwg2HKZ+5hzCZ8cnZEyBWkwUQGDRrE3tGV1mKuEYxFBusNJP3yyy9H8ugSVgQEBmRgxh57jtWrVxNtYf4U7BuYBvKDUGC2nux1gq2uy4cJA7BudEdplgiqF7tmKxple0FQl7BciT4wlUJbeDvVLv86uHv24o3t2pa7qGCBFVs3o8ZgpMqePeu+vXvSknOwDUlLz8iebDZcBQX2hcKwHg4t6uANa9yhXLBxJM0MgVVyk4E5An5BHv969epF8R5faLdNmza4ZKyHEK9fMdlxg7Q6Oki6Xbt2kbxakSkAhgULFuB8uvLKK4UiiDkeKxPZiTi/6YyzmKeMlsXP/Em/iUUMBCE8xPAEbYm/OYCKiiRdbbzMSD83c8aschXKbd+2NVfufHu2bkFUnD6yb8Gyjc0aNyhXrvSN1zdu3KxZzautIkliEY8ehxkbI1Zm5gtpITICYKng1nu2q76CHcI1GvSPqCTeCNd4Qm6XbUcojuiQ+7/QADQAeeBH4W4VjOA4tNmSYmK6/vrr+detXnQ7HsQAmwFOemGccLAdDCA8WO0W1MM5QdXNcvb0yfnTJ6cXrtC6WV3CqzYVOPfqh4MP/Hns9K4N4z+anJJS/8jB35PzFipcQJNjFKgIGY/RAI1ShOryGHm787PPPmv2AxuM7FFAje4ySxZkGBvTChUqYE5gV6qvwk0QoiDUCm85R3Dcd5gT9SHjLszYbN68Od42+f73nVu2/HYk/0XZMVWlnzu9dfeRHvd2WLd2famq9fs8dOuUL7/4eubPb44ZW6qIa8KDkWN14XysGTb9xicGEBgcJOYXecnhEx74FO5TZwdcfTYYWy9JCmI44gpJc9gbe1FUBoJdAa0CO5VHyCMqSNCd2sRAgJ2HaqQyt2j4WuLqKg9efcHzmZQtV2qb21L/V6dm3QY165obCPUNSivnj9hoh9qQrh89DHBYQWyGogdC1HrmdD2BDGqoriBp1P+owaQ71hiwhwHXAp/sdadLJTQG5s+fv3Tp0oRGgR68xkC8YCDAziNehqnH4QkMkIyZkB5DfJEnINNAaAwkJAawHpGcRk36YB8NsS08GDnxKta2Nfu40CWjggEChbWFXWJek3RUiDBhO2X1TZgwwdlBq9gWHowcX6u+2TR2SZ8gnylTpkQyiayncMVxa45WqCBB0uT7iVaaak8hRwMTGQw4Vr5j3ufBDabuZliLzITpXiQGCAdXjwolFGb69OnDGUnDkDVJJxQNxO5gY154xC7qExBysvcTWp2AA9dD1hjwJgY4+PXJJ5842/rHtvAgrpFT01G8RN2bBOFZqMglw6kOFTxmkOwyEbvK0LOYkYAJkibVsfdB1RDGAQY4aPXGG284y/AU28KDE1U333yzs5HHwcTHwRBQfEiY9vPPP8fBWBwMgWv18HCoFSHptm3bkjLOQWu6isZAJDEQ28IjkpjSfWkMuI6B6dOnJ2xSSNeRqRuMMAYCCA820fz8wSSvG/NXQL/XGFAxMHr0aO5Y1TjRGNAYiAMMBBAeqEUWJgWCLMW1dHGACD2ECGAAawypWyPQke5CY0BjwA4GOGLVuXNnZ/fHBDjnwcWi0nfHcYrZs2eTU49QdFIiksaZEPXvvvvukUcesQNlOMowciLlLfL+hqNT3aYZA+xBSVHFpYQcUOBf7jS1H33LjREFChQwt5mYbwRJW5z4xSnC7X6kU+SIDEgmrjeK17Ek5hzF06ihou7du5cvX97BoALsPGSLRDT169ePfJ9488j1/8477/CJu4h37dp18uRJBx27UoWRf/rpp85G7goAuhEwwK1B33//PTKDbKz80DY4uUkUg4XBU+KNGcRpnLAJSx566KEmTZqoVARCCJ30d3kfSJ4zZw5ymtsX+JEVFMxzH4OmQ42ByGPArvDAeEVWIu4MQTNq3Ljxhx9+yCOn87giYvHixZGHW/foEQwcOHBg+fLlnN5AAHBNYf78+WF8UAh5Yckrbkd+eGQgUQGDgy/cemCz602bNiEnuL+LvRp3x3K4slq1ajxyr5d6CbnN1nQxjYEQMWBXeMAI5B1wmIlgGSIpCHoTtiztOQ9xGmK0OiYUCIP9qOEaMjSMa665hkTrhjQbWDi7dOkSo4ONLthHjx7FVMV1woZ8CliPue8P4eHxoyGwCDgGm1Qs4dHFpO5dxQBLuHfv3s42AHaFBxtkaVqFNaBRHj58GCDQgKBmjLBRmRIo8vXXX9+7d29Uetedcgv6FVdc4fOOaxLmVK1a1eAex8BoSOXEDBKCpcMuJC2BEA5tmS1RbDvYo/i8s5aFyQ2Amzdv9ixBMiisbe+//z4RE1zbzl3IngU10QCDk3NLAoZQBwMP4DCXLfqL2YVHsPWGMu666y4H3avtcytOsDsYroFCePTv379gwYIWvQO84+RfFs3yKRZbth5RUF/hcQgD6fRiq8GMyEeUjFOnTqERy6S5zC86hzoXHHAdNWrUnXfeicnLuutYRHVAmPEjEuuirh0QiPAg5xVqmYoQ8Hb11VdL3GIVpHH5iDEAjuyW9zEg2NYzZf6KoQLdFiWXT3hP8dMw3e6mpHMdZjmKWGwZ4G2CDb1RkhQPYjNgnjv1DYEtci3z3q7wIKiDzYdoiAVPfzJChke1xf91lrH212XFyl2bP3d22f25tDPnMrLmyJ7VDCJ0P378ePwo5k8Wb+gaikS9FXTpryTFfKps/srbfx+LLQsJ7WvK7I/7QkkMKUwclhPxjKjALgFOZENYKpYsWSL7YprwpavRQQAD4WJ1CRgyF4uoDggzCJw6dSoRKBJjVEEwQNIsMXU+2ORhIZRyFzxD0nLHDxoR5KA66Cn0VSEg2L4qWb1jgOp1n5jg0HbdDRJzHWZ1RsLEPZg1JjQcei3Ew8/OGgdvrEoOXbC1tZrC898wO+PUlMXsCg9ccyx7Ic0gBfwfhGPSCm/Ir/Dwww8bOj60e+O9nboM+2Rm/crFxKeM9LSRL/6rWMo9t6VcY4YS08djjz1mfm/9Bop85ZVXMI8QsGtdUn8NBwZgZ5itBCXQPuZsSPC6664TfQk+2KBBA0nEKNotW7Z85plnJDAQLtFWmLMoFg4IPd4mlpxmzZqp19BC0sOGDeN+hTp16qjAs9B4kytXLvES6YLmXqZMGfHI9g4Gd+ONN3pzvIBHnJjUbTlVgJ/fDmvz5nDiCSrobfjw4Wz9WZjBjsuuz4NwGk54bN++HSJm19mxY8d8+fLRGRtS5Cf7ErXj9HNnZs758cpSl2zZ/bc3YvWSBYtXrjl1JnPrqn/xgYGSJUta5OPEkMp5BZVHIE4MlslwqF3xgVvDKJDQbFP8DQ3WHNDu569uBN4TT9GuXTtEHUonoWKcEtOSIwJot9MF+7+3337bWa5ruzsPph/vAql4iMvEYNWpUycB2YwZM5o2bWpgAb8snF2mWkrtVQu2bNyaJbU2JQ/t3bLpQFrtKlfaGY/9MmhbTz31VLFiFzY39ivqkq5gAF6APMCiYp4CbC+kJyAQyLojKKdnz54G+751lXj6arZaQNJPPPFEiRIlDMPEt4RnkX2e+fwglgCm4KabbvIyZooXLw7TgFrgVlpj8M5MMRdYbqx9xv6gtbvzoD66T9euXdEgSKwtzNxseVauXGkwGR3Zv2P2ks35c5zNfnHeTVu3YLhNO318zoLlTRqnJCXRTOb/bv3QXzgeKc0mbjWr27GJASiP4x0bNmxQ3U7sTbHIz5s3D9tLQE8GM3j//fdL84vNfuOm2MiRIxm+OhxB0uZtBEYqzFY//vgjsYVy98YfnNLFF00Ir7suhHBgmKHpS6PDgdhotWl35yHhU/eba9euZdlLOyxlcGzMmjmnevVrDh44ULBQkb1LN6elZ6xbPHfjzr2nPp+4ePn6i09OrVOheNkSRaI1YN2vuxggQ0ZKSgqhPujFtIwWjAMckoDTCcOm2h37V4yf7gIQ062xdTMckbEYDr5KUL1q1SrusCFOgZVIeC46Iy/tJ4OxaF9/SkwMEObKNsBB8FsA4YE9wWK1o/W0aNFCYvzMyeNzpnyWXrhC00Z18aQXyXXixf/O+v3QkSr1m1eoc+7k8b9WTJ9U6tqaxS7ViYziikqxtHAEoWLFinA07BIQjD9CHDx4MDpyXA0+soNBKrPVA8niAjTCTMIUCBTZYeneooYBxEb79u0/+OADHFHBAhHAbIU5zBD1oXbQqlUrEpbIN/v37Pj9WHrh/DkxVaWfO73rwMkne3bZsmlrUnLWHDmy/7Z987VN2l6SfPTgEdduSSNWBxuaPnMU7KyHozyKMEo0uw1/koNOMa0YmB18kIMOzg64hmMUEW4T9QsTn9opJH3bbbext7CABBzi+eCnJYcFlvQnmxhAfhjCWGxWDLDzsHZtGb4WL1upa9lKouOkbLmatLhFASKpQvU6/GcTLJvFMK/jlUV+2Cyvi3kQAzBKInA8CFgEQOIwILHz5IeQfUHS+BFbt24dgd51FxoDoWAgwM4jlKZ1XY0BAwaQ9PrOYANOkBaaTjQGYhEDWnjE4qzFKsxjxoyZOHFirEKv4dYYiEcMELXhLOAigNnK+7jCdIaf9rPPPpOgEh6K80eY1DjCRiIE+YmjreSQF49EPRIdLz+RGlbGR06ePFnmO8Gs3KZNG2HH59SbiCkStTgaSaCL+JuMb6pOTU5ZecvIrFmz1EyiHIsRmV1I5kFWAGltxPnJIU8BNsfBFi1aJGHDsSRvvMA9wIkw+Qn/szgTgAL77bff0qb4BNh4pARN0DswyCoEQZCOTDwCM5DLT2RTlxnCxb0R8hNZ1kVaZQ5w0BG+CvGJoO1bbrlgnwSfYFVW4QihdJgxC8yFvwSanFQHJGHBJ6PJ/PnzZSNMClMjHlesWKEmUahevXrZsmXFp2nTphHlJf4GhxCAiBLmbDP3lcnWeClDPMiJsmzZMvmJzFGkURCPCxcuVLNt3nDDDRyw4BOjZuxgQBQDYMYuwOa0LKkWZGuXXXaZPDNPfJTqlsNGx0U4sqTPPxYsWCCPBJYqVUoe2hdolFV4z1cemX2GKbzoPOJ/YvZFGCTxbzNnzpRViM6SN4gQY42JTH4i5IHoavFIpLVMR8QbDpEULlyYP1gXX331lSRanFjE7osqYAy8ydY42CGPnnE4TM19WatWLRmcTXYWNSkR9joRocNsMqeyNXxpqamp4hEagBLkJxYay008Qjki27d4ZAqYCP4GP1988YUKNhMnAkehSXJnyNaYaKZbPLJRVjN7+qM3CkNUgt6YAha1bE2lNwe8CLC//PJLO7xIpTf7vIjsBoTwwe4kAiXkdv6IbeEB7f70009QG5lZ5WhBB9QpuDD0QTyx/MRZNj6JR3iHytMhQcnuWWwqg0DeCC5s4OlcqCBbI12PytNh9/ITK4eMgRIGYhAEQbNmYNCSoFkeEmw4MhxHVoGgZWu4WOFT8hMsTyx42mHBy0BqOBqsUISBkhdd5enIANkacle9CgJOJD/BViQzojuEijgJSBXAlgQNh+Kgj8A23amrmvM3sjU4C6uULAiGY4MAPHbsWHIWgGQhoQk/VXk6Elo2gvBW5T3n5uQn7puR8gxgWAxC1ME6VZ6O2JZVKKbKe5id/AQMar4pctaCZ5CAa5HWVAktwWb2Vbe/CjZNqYfD4Zuyo27duhmOSUHSXPOuwqyikeGrAhioxLJn9lXGDVaZfcHOKK9+UmcfslRz8SLsJWCsGpWno1XwFQxQBUVEopopk1UQRSgBkjIhcvkJhq4m55c6HMwRylS9tUhWEeFNHIHK05F5sjV6V3m6OnHAwEqUMCAORRZnOuKAswFssViQaqp+qU4cMKjpjf3RG90BtjhnR9irql9Cb3J1WPAiYFB5EfQm1AvABtuSF0EbCDChExh4EaJd4gcYVF6k0puBF8E6mCaalXxDos7OH0na5GoHTbqMxoDGgMaAxoCKAe3z0PSgMaAxoDGgMRA0BrTwCBpluoLGgMaAxoDGgBYemgY0BjQGNAY0BoLGgBYeQaNMV9AY0BjQGNAY0MJD04DGgMaAxoDGQNAY0MIjaJTpChoDGgMaAxoD/w/X44RE4HZP3AAAAABJRU5ErkJggg==;" vertex="1" parent="1">
          <mxGeometry x="139" y="940" width="532" height="159" as="geometry" />
        </mxCell>
        <mxCell id="SthQR8cLq-xNoR6oxP_u-51" value="5-qubit QEC code" style="text;html=1;strokeColor=none;fillColor=none;align=center;verticalAlign=middle;whiteSpace=wrap;rounded=0;" vertex="1" parent="1">
          <mxGeometry x="340" y="920" width="130" height="10" as="geometry" />
        </mxCell>
        <mxCell id="SthQR8cLq-xNoR6oxP_u-52" value="&lt;div&gt;bit flip&lt;/div&gt;&lt;div&gt;X error&lt;br&gt;&lt;/div&gt;" style="text;html=1;strokeColor=none;fillColor=none;align=center;verticalAlign=middle;whiteSpace=wrap;rounded=0;" vertex="1" parent="1">
          <mxGeometry x="490" y="1110" width="60" height="30" as="geometry" />
        </mxCell>
        <mxCell id="SthQR8cLq-xNoR6oxP_u-53" value="&lt;div&gt;phase flip&lt;/div&gt;&lt;div&gt;Z error&lt;br&gt;&lt;/div&gt;" style="text;html=1;strokeColor=none;fillColor=none;align=center;verticalAlign=middle;whiteSpace=wrap;rounded=0;" vertex="1" parent="1">
          <mxGeometry x="611" y="1110" width="60" height="30" as="geometry" />
        </mxCell>
        <mxCell id="SthQR8cLq-xNoR6oxP_u-54" value="" style="shape=image;verticalLabelPosition=bottom;labelBackgroundColor=default;verticalAlign=top;aspect=fixed;imageAspect=0;image=data:image/png,iVBORw0KGgoAAAANSUhEUgAAAaQAAABoCAIAAAAxcxMZAAAAA3NCSVQICAjb4U/gAAAgAElEQVR4Xu3defxvQ/kAcIoWipQKRSWVpVtZQovWSy5JV2UrJbrSteQnpOwSskYhS9akbqGELlcLskdoJVpIoX6tUlp/b6bfeZ3O9jmfc85nu9/5/HFf3zvzzMwzz5l55tnmmQX//e9/LxB/kQKRApEC8zsFHjW/TzDOL1IgUiBS4GEKRGYX10GkQKTAlKBAZHZT4jPHSUYKRApEZhfXQKRApMCUoEBkdlPiM8dJRgpECkRmF9dApECkwJSgQGR2U+Izx0kOmgLf+MY3Bj1E7D+hwK9+9au//e1v4b9///vf77777jrEicyuDpUiTKRAFQUuvvjiN73pTVUQsa5TCnzgAx948pOfvMYaa7zoRS9aYYUV7rrrrjrdL1QHKMJECkQKlFHgvvvuO+6448pqY/kgKPCkJz3pgx/84B//+McXvOAFb3vb2xZffPE6o0RmV4dKD8N85jOfufHGG/2x5ZZbvvSlL63bbH6Hu+iiizbYYIMFF1xwfp3ovHnzXv3qVz/mMY8pnKALSEcdddTOO+98xRVXFAIMqPCf//znpZdeOmPGjAH1Pw7dXnjhhW984xsLMVl00UX32WeffNXtt99+wgknKH/Oc57jo2QAitVYpKz4/etf/8oPM9+XXHLJJU95ylNe+cpXPu1pTxvzyfp2/1v0+/Of/9wt5vY5DWIcON3vfve7/Iz/8Ic/tJ+vbfP2t7+dYaiwqxNPPPFd73rX4x73uMLaARX6vu94xzuWWmqpAfVfv9uBrrS//vWv+++/fxky999//5lnnnn22Wez3yUwJD479PnPf/4XvvCFfMMCye6QQw65/PLLHWiY2qqrrrr88suH1fyXv/xFvzfffLPyq6+++mUve1m+uyGX/OMf//joRz/6zne+04ocwtCvfe1rX/GKV2QGGhoOhAiHFTGKXPnEJz7xF7/4hW/x61//evvtt8+gRMo4/fTTr732Wgfd8573vHXWWedRj3qUdfmb3/xGyctf/vIDDzzwmc98ZkuKOXivv/76z33uc/l+IHbZZZfttttu+apBlNxzzz377rvvj3/84yuvvJJGM3PmzIUWWgi5fv/73yvEFMx3rbXWajY0kxBmt9NOO33qU5/K9GCa2NzKK69svzTrvFmrD33oQ6961avszXxzn+MJT3hCmUCUh29ZMtCV9ta3vvWqq6767Gc/S5fK4PnAAw9Y4e9973uxvK222ooJLwi5BJG3vOUtP//5z7UqmJo1UfjzjR/96EfbHpnaW2+9dZFFFvnhD39Y2Go4hWY4Z84c6zuok9/61reGMK6zND3Q8HHAVTPfj8HiJz/5Sdncd911V/Bf/epX0wD2/7Rp03A6+Jc1rFPOXLLiiisSndLAlj5J593vfjctY/r06XX66RDmggsuMF+mnHSfWPzWW2+N98GtzVibbLKJ4z/dAzEZ0wkl3/zmN7GYNv3Xb3vddde97nWvy8zx/PPPJ2UHJ8lBBx1Uv7dOIAe30h566KGVVlopv1aVJ5ife+65T3/60x988MGk5Gc/+xn5Lj+1YjX2l7/85R133MHZQXHLbDBb5TWvec2yyy5bwDiHVcTrTK3A0bH2YY2ZHWckOJCy11tvvdVXX33TTTdlm3DwVIi0xA2WJiJAGnWCDzmFVHjKKadkp9TP/4n/ZMzFFlss3QgHfPazn3388ccvscQS/XTWDWwQr9Zdd910d0Rakq9zAgtoMwwplXCXNuBQKZx/vBN+v/3tb1X5w1nSZpQ6bXd55JeGtKudOnSOww8/vE4PncMMbqVZwLb53nvvncbZMiNsJSWWHMrfcsstPedVoMZqE9YNra2wvQ3m6C6sGk7hM57xjCDZDll9SM9uJDisttpqhcaIPNmt/u985zs0VmJ4ppY5QknN0KR8z0qcqyeddBIdNlO74YYbFsIPp5B4ZW/krSvt5wt/3aLk1772tYSZWgBf+cpXwtSQGj+lWJG13/zmNw9uvjfccANTUobONDB2Q4Peeeedgxu6rOeBrjSDOque9axnHXbYYYnL1Wl6zDHHJKa6EHDHWleGYVJezOysGxBpZvf973+fPOmcVI6V9uw3AoyWAqxXZA0yeB6NcEJkJL48WEWJTc44QsysgBlyVcWWaz/fMBfbATtLmN3s2bOTObKUU6Jp0IOe9RlnnME4FbbhoMeq2f9AVxocaAkcDsxWs2bNCijRON///vcn6PFKr7nmmo6ZnggXq7HWx8ILL5w2xh999NEJiYdmeO6J/dQEYMIgVTFSVEw/HFd5Zkfz9XFZoCjCFc2rqwg4je391T03ri3bcqh06qmn8tLwUTTuPDTk58lfk3CisI6Tc+0Xu7HQXdNy3HTzMaT8QFdaIeWZg5liDz74YJ+DxMeJ8cUvfrFOSECBZEc+vO2222hAia765S9/mebSyTe79957IdqzK6hzoo3VCdYT5yEA8L3ut99+pHo20x122MEHYpYuDAELx1VGp7vppps233xzbI6A0Ia23/72t3nAhzDf+kME8S3D3JlyeEvYnc8777z2AUMveclLbA2hNsstt1yCGDIeeeSR9fFsA8kF+aMf/Ygpo00nnbcd6EoL2KL8AQcckMZ8r7328i2om4wGe+yxR81JFTC7sG5ELXHhY0yCFfA+XrZMj5wY3/3ud8NOY7CwA0mb1aMKEdhss81qMjvbeO21167ucErV2le4Gw9giOp6/etfT57fdtttzzrrrAwdWHBZkVgxcEZVwYCN7E4swIlQxtXOtQfAzZu8qUv5T3/60x/84Af+EF2R9oRYZ+MQ5JWedZAvMLW5c+cqxxesScF3mLIllxz711xzDWcCAEsr73xDKBEzbECPfexjeTwz50GAR5M0s8tQfqD/JSjof6woX3OlWXuUTVIw8yI7gH8zhGKFIKChP7+qVZ2pRXkmZp2kGy79yK8vgpcyu09+8pPExdAX/PLOCr52m2f99dfn8N5xxx0f//jH9xyYTVf0Rk+wCFBIATvWdYWkylZ0UebDH/4w+0VmfdDprAw+nEMPPTTAA87L+QopXyIz/vSnP1m1GQDrD6eg9ro6ktn2BMyaF3QKJ9J5Ydhyrkkee+yxoXNzyeAcyp3NVB42R/a13XffPYOJmfLvoxs3a55cFrzmbAid41+zwzD0WFG+5kozQSc0S4LtL0Q3fwGJvxXD4XYoDP/E7BxdTqmnPvWpNWlVCFbA7ByS9kD6qH/hC1/I6pFpL+wgjE3WGHMRzKEh3qKnROnMJOkUbpJC2vVVOAgcnvvc58KBMJJhdokZJX+EpnEm0PE1ceThiQSWjMOBDOjkBLDRRhulWxGayD6duOMp1EStajJiOoI8xB9UgIUt51JX9Xz1IGrHrnNIUEoyHdIQSYJct9ZzIGx+RLHcSbKNfG11Cas3ZaUaRu3GG29s2xeC2e0CBgutFoXwZYUiBC0Y37EMIJRjAhIciKasAKu50nwX0hKDpmMS5TPMjjyOg5OE8he8wtDI7o/GlE/wzzI7Zg5fHadLr+btttuucMKmCswCKqwdn0KeFnGGo8WnJQ4kfLYJ517aD0XbMql8wAFDBB5Rx9/qC9r5nIyWYJrZUTqsTsF0ebt+2Gyd3DzjYuvkowTDC2ZXpzfKFLNX5jqEg1DMMO3ElivjdDrHIPLKb51BwfzPI7+awIVgKE/Asedb8jt7Nh2nVjhWzcL6K401jMOUDJ45ZoR8WtvO2rzumOAQ+LKzuSZWZWBZZle4bgSdFLa3VUQqOwEKa/OFbHYOrp4Slob2qkwShYakfLdToYQKc8QRRzDDOf0SDSs4ZDNCt/XEEcHKtuSSS/akDNPee97zHoHilqBPE+CZa5mHGOmYZfP+XDsNGp1cO+2JXk2AIF/UYe5hy5mv3Y5xEJTCEGJHqK6sMRVbjtHGr72jo+ak8mDsWQpRvqU2l++5WUlfK803spZcd/3617+eHk7cqDPAqs4fqwmYKRPu6hjKqieSZXaJXFrdTK07DFSzTHBzdSvHpv5rMrtMdH51z/N9rYXuXGHUSNuSeEVNPMOPmEVQuKaY41CltrN2pc9bCqzbAiI2CJKFYg4Z0IE8JjRPtlwdFhC2nKuQ5CPXZsMpbu682+K51H7kIx8pm1eIYu3XKF7WW4Py4CNC+TozbdB/v036WmnuETtWHZ/WcDLQ5z//eaYMH0J5xTGD8p2Q/b/i7PCvYAKvI1LZaXSZ/MlfTTJWXvp5z19NThfk205Uqmq0K2qHhoPb3XhTggkLDlu7+HIRlWn0XJP0X0FhFTiHqiDm+DtIdqHQ9X5hq4wsdn7Z+uPPJTyW9U9PZPka2kfhbcDc68wXwracOAarS/BA4O/WvJnyxYUtV7GeJfhyWney68pIV10Obdy5gvJDW4oBz/orDbxV4Vi10ugowdNCdaUlBAHIsVoRo47ymUVeTajSWvvHzzUUESshnQZ+RIjgY8V3Q23hv4L6KP9OyHTtOeeck76RW9iwfaHDjaWJ2rXMMsvgm6QPqQ6UtO+5oodMIoDh40CHEr8qqovu6fIzGzP5H1sJOKt1SLo5S8e0K6wqkUM2cMWMhBPZOQAsJtyNikF7JdaFJmj76U9/urA51YPdOl/FAO8r8Fb5KHAQHAOl6lWU76R+Ca2C8wSexrJbrAcBodXNOVsDgIaa+1s8MC0p/EG+q2jOZsqZUwEwhCrBlY63/EDimeUI8VFQnqJt86L89773vTxk+5IGK03smrURhvaxuNTwvqSE+5sDqgIxnO60006rAMhUlSUCeDgIq9nPvnrDG96QbosK22yzTbPexr9VhtmNCmEXnhnXZbCpyHdSE7f3ve99ZCLAOCZmh4fipKGE0Od4LBsCW2SnF9JZc6AxAUtvOSE7mCPtRBR+QM+WE2pTgSozKHtTBcAQqgglREvS6BDG6nCI5FjVp9sKHNOMpE7WMITjis2kbDhSBQ4uOqoMIF9exuyKr4uVyoH/XxEMdmmZH6t2jaymNtGz/whQRgH2NeLJFltsUZHvpKxtupx53i/E2YjGYMaSF4R0H0podsScsiF4geGQjzOvM+4IYbiYEycGyRdzF/iSrOFgzitDD5ujc1UouWUNuy0nzvsoSQKCbjsfXG8iul784heH/lGe/kv/CP6WntYDy0woKHWzPXpZB0WdHl3Q46dnlPGjOARbrz9E2wtWqNNDhBktBWxd4SZ2u/1PQocMSxafBruJaxW2PeGRwV4uPMJ7YeBhCK4EXMfnO9rJGl14F8VfvJ4gKkYiAZXmyxXrMplaYXps7WzkfoTZQuMRYeTjH/94PtJ4+FMTOM2a4VgaB2R6Th9PEEbHuGx1uarowEB58YzMCMQjXJtJRCERW2QJCS7TIQ7jw3V1E2FBQmBPjDMALLvhzk2m3LpfZZVV+u1tUuCZFZhL8pmKJwX/NJ7uRQRjK+013LWUiC0kyWHAEpZBdiP3sUuYb9mmwiiFvzrkygDGhzJmFyZFAXepMTDoZMrWs5ni6f6lUvFdZDCnZLEepN2Io52a5xeEYtS/EzpCbCUNpq46V1CeXyv8YcFYYJgdic8fWJBaNxfyzI6RlP2RRb6vKRiU0ckZlmnVhNn1NfB8A4zZ0SAERnJVFx7+881M60+EAOjsJWjUbzJxkMz8FHw3yZKgvJFPAXcgk5JS2b9GjszgEHDGEMn7SpyFsdI7gyCfZ3YNbXaDm+HY9syebZG5XjJW8bSjJRdRl1bSQDkYLdp9jS7Eeqw4HeRJRhhBSEra11wmC1jChb44ndk5eu1Qn6wwK0+U7CZrAURsIwUiBRpSIEp2DQkXm0UKRApMFgUis5us7xWxjRSIFGhIgcjsGhIuNosUiBSYLApEZjdZ3ytiGykQKdCQApHZNSRcbBYpECkwWRSIzG6yvlfENlIgUqAhBSKza0i42CxSIFJgsigQmd1kfa+IbaRApEBDCkRm15BwsVmkQKTAZFEgMrvJ+l4R2wmmgHQyXtia4AkMC3XpGuUZ7Hy0yOw6J2nsMFKggALyFMmY4O3tgrpY9N8UkOPaK3rpV5I7oVC8G9sJGWMnkQJVFJCvzcvFl1xyiXd4C+G8KeP1XlmPMrVSrci1472EOs/CFPacLsRwZcnPg3m4yxt1GHHh+0p5+CGUeKFCCrwzzjij7CGUJjjkkxrHkkiBSIEOKWDfehfiiiuuqOhTNvy77rrLox/2sHzIEotLR3733XfLtXfyySd7TsxzS8l7IxX9VFfpQXZSWaaNIqGIEY0i+xtevO+++0pYvd9++1X3MMxaKWbRDZJdDdr8DYquMIj9RArMxxSQA1UCVC801pnjJz7xCWzolFNOyQAHcWz33Xev00lPmJAL84477shAepPE6JTHnj0MDcBTIXL2dfXmRrTZNRGHY5tIgZoUkAvey7Z77rlnHXgeDGD5ly7CO+hz586t00k1DD51+eWXF74I3OEo1TjUryVpSop+wAEH1G9SARmZXQVxYlWkQCsKSH9PpjvhhBPqZDkObMgTGXnDmZcc4BHy5rdCaIEFvAnn5ZA8P9Vth6O0RDJp7nkKnO7www+/88472/cZmV17GsYeIgWKKUCg8wRzzXdLAhsqtMd7dMYAO++8c/Ew/ZSWCY9URc/feNoiPELUT5eDhfUSMZHTE8nth4nMrj0NYw+RAgUU4JHwPNsuu+xSUFdURLtUnJe5PGzkVSPqsGewi9r1V1Y2yoEHHugFoi996Utl72f2N0x30HLQ77///hhx/k2JfgeJoSf9UizCRwrUooA3au+55x7voha+RZnvggjjyUHvWwbbmWeheU69NCi81m73dmK+Sb8lNGWvtXpSDlaYiP96rsG7axRtkp13UJPXXZOewXj50DuH/Y5VAc/1jLF6Zz3A+C+UKuDhsOqqq3r1DdOvAOtZFZldTxJFgEiBvilAJ/U2oKdmBcfWaRzYkPctd9pppwCPRRKydGKfp3mB5ys9oCVkhDVw/fXXz3SOi2277baLLrro6quvztqVYSIBK++se58wNGQUW3HFFfE4L0xmusJksVrBHyH+QwCNSMCM3HfjjTeedNJJt99++2KLLaYqMFAvUokX0TPBNtOnqxFUcpE0OBfPg1azZ8/27GEeMtPQO3YgWRVhW4eexTBD8yLHgSIFpg4FaK8esbfta07Zg432Jx5UB94L5QJud9tttwywMBfS2cILL3zhhRcW9oNRGuWoo44qrE0KvdG14447erPVc65J4dVXX81DwlGQaYvt6vOss85Kl3viS/h0ugSv9OC6R79IrEn5zTffjJMKhanGR633y3FSlruekBUA0WZXfAbE0kiBxhQgoNn87jyRXGp2EkxpWFgdeLqnzsUbZ4A9+Rhe+C70cgCuMwqlcoMNNhBgfPrpp3vBOhnCFQ6D7rrrrplBmSaVqEqXe155+vTpSYn7IWuvvfZ6663nRoQzICknUUI1b6bMDOG/Sy+9tB7mzJmDl+Vra5ZEZleTUBFsrCngQhWbl1sBrgfYZvS1EaJr/+NHfV2DDU7SOsyO2IVfTJs2LcPsTBlHICGutdZaiyyySOH0MbvFF188b5hLA9OOPTLNH5LvQcPA2tJVMMfaDB0KwyUQfyfsj7y52WabeV84zyiBUZ/rzBrkzJkz2UDdeMsjVrMkMruahIpgY00Bxik74aqrriKMsCKtssoqI0TXHVijZ4SdanywIWIgjlANptYcxbJgdjQ7Zq8Aj6G4XEV0wnrKBCUGr/vvv18oTIU3gPUNs8OVWNzymNBqsVpjpauSEYmE5513HmtdqN18883DH667caTyseQ7VLLNNtuYS2FVpjC4aHpa96q6qlBx59eq4AziDxLaPiZzdAN8TDAZZzQqqJQ3YIWJcDL60H5pU9Gg52j3MkXVHyXIaJTHOk3coCJ5IQUvBEYTmrhhxmeKEzHYcV8U9hPuoh122GGFtaFQAArTGB5aCLPhhhvylqSrHDCYCzbERjlr1qwll1wSz820JbhRrgs77LfQxQ9ie7+tEvipKNmxlYpTd8R1ErhUdZLUq3PuHXHEEfVgpzSUFEm+XRkJ8DWCCZ9AGsAVdx96zTXXnDFjRlnDbsvdT8C8auqwLuFfe+21LkXBAZeBLf23Gh8AeApg0mvgkqJVeEJ5Dwh9yvP5Uei22GJgdg548GS0wlFuu+02jGmJJZbI1zotLrvsso033jhdFYyAxx9//NFHH02gltmFZQ0AtptInQJosMh8h0qwbF+tsKqw0JSRCPMqrO1ZuFBPiPkSwIKYN29e4dQYUxMDRCFAt4XhRtHFF1+c79aKlKaicOXlgduXjH/+n3322cf5xEqdhGglsxYD8bGPfYzlTnZMV9wFjhF81Np7OAKeIr6hPYnq9HDLLbcAW2211eoAW4RUS6sRR6Zw0H8poRU3LoLBLvQczHacIXgc56lCHM185WtKDw3g/PPPJ/Ftt912wlkooa76Ezyd93kMBYWU3WwTd4LJSkaQbpUx2ImzCaNjrAgeovOCWJcfSwm/MAd0PuqlEFghZodEPMIrrLBCGUxVeWOZcHIb2gyFwvB9993njGXcHdrUHnzwQfFQ+SQ2TjxRTuzBBx988NCQmYj8P9dffz1lKk8T5vmkcMstt3SzKg0jYxJukm81iJIjjzzSfhMePIjObXV2sdDzMcccg0sKQEusMRKEyNTUZtzAFkOHN9xwgzNDZIkOkR2nE32S6Ryf4hHKFGqSLjzooIMwVkw2A2bZE9X7wjZ4PwTr9dUqAZ6KKZ7yzO7MM88MdgfLxcnWjJQNWgn73GuvvdINncMwYdxlmrFnLJQG3bZpMv75f2R2syfTc3Q2pM15RDyiXxqgAbOj0D3wwAMNKCk8zYe76aabGrStbmKO3JpC2AIY65gAEYpk+C/1lvhG06zupGctRVX4rmsVJ554ohHZ+OwOcchBf0w3D5fzzz777HThddddR/7CHJNCS5qDmFEvze/wTeHT/Wboo/KjbeNouymqxmZk3a0e+Sn0r+9UJQl3V+f8ZOnIBBBYr3ayQawkYl13o9XqyQK1earz/7Cj1+prYEA0qR122CF9fQoL4MpkpA9jOq5YAGzUmve0CjFlRaUy828W1lYUYqxqO79h6mqEcBCqgAPSQehmxRprrIGtu5RmOFYzljgXKmS+Y7araTEsnAWZ1MUPvIk4xkLK+0lSZiVAVeJz4uamgV5zzTWUbv4QMqCuWN/oRkyWJAb2hKRzS9qiCvSk0tKcQLLiHXvssYUIVBSuvPLKall+KmAqqiKzqyDOYKtYlywLnGWww/TTe0i8UWjeGp/8P7a3TeWQD7Zw82ObT/uayCCC9dtwOn0GwaQf4v0HloOSmbWTdEzp0V2YFeWbLpGhJMmDQhZrgGphE0yNa9svuA7IZeRHxMRG+RwSZlcYNFfYoULxQDQYf+hT/9hxGWR1uSmLieF3rgYrq52K3tgyWgy5nPEFsxvyoNXDsTcDyAdqWaNjlf+HAS59J9xGYsehecHTHzRQkk71TAdXK/xtqaWWGlz/Q+uZRObHFcDtIBSZntE++5MOG3O6MHH8TiBRMyJEZteMbm1bUbKYLdgy2nbUafsQSZBnduOW/wezS4fyU45Y65XYkCJmCX1ye3RKmLqd8ZbSNIMjuG6b8YZzL0VACYcD3wgRb+TItmF2UY0dzecTcCBwqb7TfQhYBoMdqQSnsGn9N53/h+E5f80IzEjy/yy77LJBrU7IQvQI78gMgVAVQ7C4q80Ef1TAj38VJ6wrt+ODJ2YXohcaSIiR2Y3mO7I6Gbhzy06byWAfQvP53Zi9Qz8h/4+k2HmmPNr8P5yt4VKEpd9myp23Dcyu7Gpq58NNwQ59cVoRR3mDTz/ZzI719LjjjvNv9VdnXt16660FTFaD1a9lGPLMXU94vryy2HGSHawafLDMoB1SIBjsEKo6BTY1zX17YqnQhCQrBsecMFo+u+WXXz7BUAihsC8eGClA0k4PNrVMIjYezO23355Emc6KITqX922dddbJ0zlEq8KhPQF1jsuzSGZGMbooXzmI0uW4P0dw4b3RABZuJtSU7FwX7eopmTyJJq5EiGvZ/dn0XMIXd9Q1+PSTzeyIsuwjFYsvkAlbqbj83GBZOLrTmWrKeqhArCeDLuszU94hBern/xFYEO4eJcgk+X/k9U5jWD//zx577JFx8IX8P8xzZaRIJyAqg6lTzmqe/5qchnhWprynfT1YtTJX5ctwsLfrbO+y5lOznFjXeOKTzewsPpdgGk++ccP2ObLbSONptDukQPv8P8IGMyTNXCcSAS+PLpiW+X9cgHV6dZUrXFRHyISeRp5M5yaTEJa+FgnTIXgiZ1+tInB9ClAsADdzlUw2s6tPo3GDDEkWBS41kMYHMZeQ/8dNrAoROOT/cd+7UGJN8v+kL1didiGRJJVQsEhZ/h9acOGk5P+R8DZfxSvCKNHARJ3vqtsSX5MawaLUbbext4QCbVxAMfTkvxZS41DSfpcjf6KNUZFjEib6DP/223kDeHePtKpOoyisFD6bbLJJYf+MXCJO05xOxBn+yBXDCOi1ed7SfFCLPvH9JDw403MhpwPjylReFivEasiF+K+7HFGyGxzZSXaOk2qrqBtsjMKyP2TQiJLdwwQRY4E0brq4+EIGOfXUUzklxcHnnyvu6iv6YCKKWfTzt69wQKKBZwSM5S4OC739wx86oOgt+X9MPJ3/Z6WVVipUE3rm//E2Qpo+Sf6fkEWGoTPJ//PQQw8FJVT+H36MQqqyzvgW9PR8rSt9hY6LPOTwS3jYI7MbHNltDSlbKvQPQ7tq4o4we3G4A5ogE5ndw6TgDcRWSCV8gg5nJiH6l4izwTE7gxKR3EPMLwvfyU0AvIAJjCSFIfJm+O8gmJ2eJy7/DyYobFi6pzzpxqGE2a6T5+sHMRfLCW7WUt7cyQrBr5J2yKCz69tjFR0FQxnY8vGeGVrJBIPTbbrpppnyyOweJgjhoky+GMSaC31usfkep10AAAX1SURBVMUW7rTjsxllrebje50gxvpWn2tQcgX6hIAP90/9NtpoI9fFicMMeRdccEEmviwx2AVUw914V0dNObkRTN2QR4gElzmrRfbce++9+fg+Xcn9J0ilLKanE7LohOjt16A3ZySNXmzEWLEJnEu8pBt1SCc+HHmlFUgyp5um+zyUDBkEvFXoW/hGErecdtppIdFAAzoMogmbr6WyzDLLVHdORikWU4KVakr9m0/xNKrpy/cvg8WoRm8w7jjk/+EhlYqjL+QbpHiS8IN5qK9RAnDIzSWhZoO2g2uy5557uu+V9O/+H34hu0lSQp9IcxDRRfnsdYNDr2bPAUkhSjXhM2BRsqs+JAZbS7KTllYc73ia2/OTH3n+H8ud/Jh/HDqPasuSMt9Iz25DdiOG1/HJ8kCOI33vvffeCfKsq4RxweGCvZO0zzig1ciyIZZ7ueWW6znT4QOw8Bq0zrNEhbhFZldIliEVCot1u0Co4Ny5c7sKkR0o6qPN/8Ne48pB/rbDQKfcb+fSzGkSHr3ut+2A4HE6Jul1112XsBaG8B0loTj33HNVJScHQ16bRHgDQj7dbTCG9rTZlWHSxCpR1tcEldMyCFP5SIjhT4Hr011USTuGP3SbER/O/jP0/D8SQJ5zzjl92cJsbx+6OqSmDR3ybZkjme0qgoryTQZdwgyHaIELJ2OFIKHJCgn0NQWd2DLNKLYgtbZZy4luxcwZ8K/2YU/0HIeAvJgVKW3tbbkexzOJm+WdXDAa2rd29YITIOR6GMJXaDaEl60ZryVADteZiX7cF4KEFIaEnUIj87fomo3VSSuZeMie7t4Uvk5VZ4gpKtlZ9+FXh0YRpowCIf8PgWs8OR20BRIN/1vTECV64K0uo9vIyznKxXu7updO3CAW138Z8jjohXZ6fzK58TJyhCHg9TtcuN8LfGnMpyizG4ePF3GYXykQrk6Ht0TGcI68zG6z4MjekUjQ86iFh3WSgB4Agj2J7eODf7jk04bZTVE1dnw+YcRkvqQA3kF9zmQYHZOZYmSkTn7t6ieJPZOG/XGAdv54UDM6sDmyPnlXqFlzraJk15h0sWGkQCkFvMjFBOaCXSnEiCqEcONf1NgMp3NdMpM9KTiCMq/fjQjrBeAsyHnWrFltEIjMrg31YttIgWIK2JbuF4vtKK4eUSnNmuXroosuCrl2XIsUOw0X3glxheHF2wS1wPsyHHBEiC/gLgd6eg2jDQKR2bWhXmwbKVBMARmo8A7pFUJKomKg4ZYKt7r00kvFdSYZuq688kq+V1gw/BP00o+9KnRdz7+ZgJXhovyf0VgPMTtvm4V0gc1xaHbxIraKFIgUqKaAqA6xbFzV1WDDqWU9FBAjW0y41OwPIt7MmTNdroCArD+Ch9KY4C/UWADDQa96lJNPPtm1GSHl1WA9a6ODovk5EVtGClRTwC1OT3NRFQeRsaZ66HQtGY3vNR9HIowuyUaFoTD/810I1sE1qOG4odwh8inVH2gQkDKdyAcha4bMBS37j8yuJQFj80iBUgpIkWSjyl0qeK0UaPAVUsyn3xRPBqRrz549O/mve3jidTEXQYLTpk3z9Hh1jszBI/7wCLIVyNdCMm2rwwq6xMWHg3QcJVJgClJgzpw5kiTaq2Mbdz3OH0VCMFkJ+HmmT5/eHs/I7NrTMPYQKVBFAfeubFr5/qqAYl2OAuSwGTNmkDFJdrnKJgXRG9uEarFNpEB9ClDEMLv0dYX6bacy5CGHHMKX3d5Ul9Awpniaysspzn0YFJC8izlMih13773fNowhJ38MqitZeN68eYVP2TWbX2R2zegWW0UK9EEBmcQF7gr+4AAdZr6pPlAcJ1A87tBDD5VauduHRqPNbpw+csRlvqaAjFiiQFybna9n2cHkbr31VmkB868Ctew6MruWBIzNIwUiBSaDAtFBMRnfKWIZKRAp0JICkdm1JGBsHikQKTAZFIjMbjK+U8QyUiBSoCUFIrNrScDYPFIgUmAyKBCZ3WR8p4hlpECkQEsKRGbXkoCxeaRApMBkUOD/APhG8RztogC/AAAAAElFTkSuQmCC;" vertex="1" parent="1">
          <mxGeometry x="260" y="1150" width="282.69" height="70" as="geometry" />
        </mxCell>
        <mxCell id="SthQR8cLq-xNoR6oxP_u-55" value="$$G=0 \quad P_e \approx 0$$" style="text;html=1;align=center;verticalAlign=middle;whiteSpace=wrap;rounded=0;labelBackgroundColor=none;fontColor=#ffffff;fillColor=#76608a;strokeColor=#432D57;" vertex="1" parent="1">
          <mxGeometry x="50" y="1330" width="110" height="30" as="geometry" />
        </mxCell>
        <mxCell id="SthQR8cLq-xNoR6oxP_u-56" value="$$G=0 \quad T_{QEC} \ll T_M$$" style="text;html=1;align=center;verticalAlign=middle;whiteSpace=wrap;rounded=0;labelBackgroundColor=none;fontColor=#ffffff;fillColor=#76608a;strokeColor=#432D57;" vertex="1" parent="1">
          <mxGeometry x="40" y="1370" width="140" height="30" as="geometry" />
        </mxCell>
        <mxCell id="SthQR8cLq-xNoR6oxP_u-57" value="" style="shape=image;verticalLabelPosition=bottom;labelBackgroundColor=default;verticalAlign=top;aspect=fixed;imageAspect=0;image=data:image/png,iVBORw0KGgoAAAANSUhEUgAAALkAAAAmCAIAAAAX/62dAAAAA3NCSVQICAjb4U/gAAALZklEQVR4Xu2bZWwdSQzHL2VmZiaVuSozM35oqzIzc6UyMzOjylyVmZlU7pVJZab73Vmam8y+l2xek9zrdd+HaMfrIY/H/tve+Pz48eMP5+dIwIYEQtjgcVgcCfwtAUdXHD2wKwFHV+xKyuFzdMXRAbsScHTFrqQcPkdXHB2wKwFHV+xKyuFzdMXRAbsSCGWX0RXf7du358yZ8+XLl6FDh65du5bm48ePCxQoULJkyZkzZ0K/du1ap06dUqZMqfdet27dxYsXI0WK9O3bt7Zt24YKFcqzcXbu3Hn48GEfH5+XL19269YtduzYzDJ16tSrV6+WLVs2XLhw586de/XqVfHixfPmzfvp06cxY8bAWbdu3UyZMsH58OHDefPm9ezZ09XOHJorCZC39fjHCXHeGTJkqF279pEjRxiH44kRI0aPHj2ePXtGc/To0dWqVVPjw0yT4xHKgAED9u3bx3NAx6FLhw4dOHXUkecFCxbkyZOHh7Nnzy5cuHDFihVRokThL5Ry5cp17dqVh/79+7OkPn36NGjQQGYfOXJkwYIF5dn5a0cCpl3Zvn37+fPnXSmVL1rSpElr1KjBBeW0rl+/jnJwWnBwcd++fdu0adOYMWPSvHfvXtiwYVXP4cOHc5yc4sePHw8ePHj69GmsDm8DOg7GbPny5Xfu3MEm0R3LUb9+fZo3btyoWrXqiBEjcubMWbNmTV5NmTIlTpw4PKRJk4Ylbdy4kbXJenbt2lW0aFG1tqB7YLNfv37Fjqopvn///vr162jRognl8uXLmzdv9ncBbBYzHCLEfwcbdIXi4GPFilWsWLHZs2dv2rSJS8+RsIdEiRKhQzR37NjBOaVOnbpixYrSESJSwMJLc/DgwZycGhMFGjdunGrmypWrUqVKUCZPnrxnzx6xCh6Mkzlz5t69e6thd+/ejQRfvHghFNY/bNgwfV/yjJqGDh366dOnNJmaZaMuVrZAp+AruTC4xY4dO3bp0oU7liJFir1796qJKleunDZtWmww3hmx8IsfPz5iX7RoEeJlkdyuMmXKRI4cOdDXFqAB/9C5t27dWqdOHZ2CxrDodu3a6USgiRh2iAMHDixVqpR6W6JEiSFDhkgTFBIyZMg///m9f/8eIpBi5cqVLtdnfxwcGTeMNahxmjRpUqhQIWmiteHDhwfHWGcZO3asuCpeHT16lPOTVVk5A5fCBdNtBhfm0KFDagosMWYVXKUoPCM37oO+DNjoGLgLC+hovgza+vXrufH6xtBxmoatxvZwD4SN+1G4cGF5/vz5M1JQTW4JgCBx4sRoDxcaHmDvlStX1PgnTpxYunRpQMfBhGTJkgWrLh1xZKj43LlzpXn8+HHQbo4cOdQs6gFxJ0mSRJqoLIAXrbKyBQUFZIZ12bJlC47y2LFj+fLlU7Og9DhNAJaiHDhwgPtgyDxq1KgZM2YMirXZH/NfvMJJc6IgU70zuoLoOXKdeP/+/XTp0gnlzJkzoBB5JrqJECEC6i9NLjHSGTRoEMhXgAU3u02bNhMnTgRDECIBIJo3b+7BOGgGAPn58+dcwQsXLgB9lBKgf1h7UU1DCiCV6tWrL168+O7du5h3NbV9YXnMiVTxjC67Y+Fc3s8iRYro/E+ePDHCSZejBS1RGSJEf+nSJd0uiTHkEhvGCjYUS4i68RTIpjODcxWUUXTiaq64MaYH4zx48MA6+IcPH3QYpM9y8+ZNrBE3G7ljUUCUxhqCqIkPmjRpkrvBsSLGKy4b91MCSfUKieHT3Q0SPHQfpnGnjIDz8uXLt2/fHjTqjudXoW/bto0QCYmHCRMGA0P2BfMWPIvH+6CXwFUCRu4YU7ds2VIPi/RlEB9hhHA3GOzgWZ79WcyYWe9JfEHTMIb2h/YqzuTJk9erV2/NmjXccox59+7d/V0eng745S8bDMQ1fuf0cHxE73hAmKdPn547d24wlvKb+hT79+8HrHinzP2yKxjDkydPYgwNEGNHfN7JQ642bty4NlMUICrclp2NMGbWrFndceJzsRYkGhQDz8Q+q1evtnYhwBw1ahQ6XaVKFetboRD2k3F+8+YNsIxQjtlbt25tQDQs6IQJE9w5jWbNmklYrqYgNTV//nzkA8rGAxLPli5dmtQlSZB/l+HO1bkDK+74Hbp9CZA55ABQRGsXsogcFdjR+kooRHBYHR1ZkphBU1EdowuDkIEkMcNtR3XIPxGUkCeLFy/eqVOnFDPwjhJNtmzZQNmKSImGNISeKuOVr/yKPhkpTvYDWHG3aIduUwJgUtyKzky+CtmSUzBG8Pd+du7cmRuPlTI6kowgpWsQYSNPQ4HMoDM7pk6IBAf58+evVavWu3fvDDYCN5JeOtEtXpHMSiA6Tq4CkQtbdWdavY1OCgA0amdV3FQpcViZAbZsmdIVhSr1loCRZ/mrd/EbrOCYcD2IkQSuMRFJDbIAOB2dLnkadYKkgDEVMOCzpM7KM2U1PBrGhmSHMSagyjh9v3QFYyijG6N41qRuAO75hXSFOih5MzubpTrmTlcIfKJHj65yTjLao0ePeMDdGIP7cT/xI40bN6ZKIOUtoyOxFaU3vImOWhgNtZBMGMsAU8tp9urVS7qT/cLqrFq1yqooMIBXUBdfExmWR5q4N2ua2SWnQ/RbAoAGakA6DydK1ZAA3tqRdLM7sEKGhmO7deuWtRcU7BZ42XjFSadKlQrLQYjOg1GogRn4zO1VqTKXI+tEX3YF5SWnSQKNGA8XS7yAbgKMqR0a6sxblEmUToZTwYWh3cKDvTWiD30E/dm4Mb96k8MAYE6bNo00MXqArFq0aMF1hyJbI5DB0/GXjDOQkyoVGBMfQUdCcbV9XtErWbJkVoGQYCQTxsce+iugLjEsGsZ00PGAKqPDGlgJRAwnts1ljts6C8fqS1f4BoViLMul3EM+ngOmvAL8oXSi+w7yLvzIrBP1zZo1i/w9uyVhTw0Ph4rJZemAYmqKMiXWD5xFFyqRskokRf6UO8dnJXSh2IE3Jf9B+dq6yl+dQupvw4YNrVq14lBJGRMtU8NSpSiiIcpwZAgRI19jcZDgJO46l1PXFW4agnUpiiVLlpCt7tevn/7WACt4IinhYZlAJ1LfAPeo7yKMkVkwWSi+TFL0v1XKX8tjZQCNQ8SsgX2kxE9ekt3yFQvqxSv2rIrPqBQFQtjQEgrOvCV4o0iEf2UdoHeJEcBlRHfWuRyKSIDbFTFiRJEVmkEhXUSNYDFCvDUExedj2CGr9DAz6uMNfBPaYOXBOjRs2NBK90RXWCjzcfbyVRuDEmCjoSrEx8CQ7ZHJsISYL6wUzlgoRPkYFeqrdFFlIDQd7GZdn0MRCaAf6dOnnzFjBuEuOWJc0vjx44mJsFLkQqxSwrkQCet0dIs7rKMWhkKfli1bprPhATgLl7Unt3GQS3MnRFwSNoppVP2ZLxNwUsoj0uzbt68wZ8+enQdcFRVmoSRIkIAHtgrSVrV4PJTC535M/du+ItKhLIBnx2HxOTMJVtIz+DKiGFAtEFMJn6MhXwf6QVbETfxFS0CiUNAA1EvJEDfHbWdM6h6cBQCUoj3IidSca39nVUk7FNyQrrZoMfUO6QjEwRljMNAYyRphh4jKhKJsD2bGZRdrCdrOen4fHuJtvpTjh5vAnLNxahGc7s9IAAPDXQVTW7N8+rCe+CD6kzDgqwsZSAJsEJk0MXRgcjyrckN8y1OhQgUooDzhkZSi3oXvCGHAef3Mnn+rvkiVWImPz/maDDMTDHv3UFfI6oA5ZH0AW5CsQC0o0EEewHLCb2EAe6MleCVFoQtfJKnt0aVRo0Z0EfAbDNv+H0zBTUuYMCHmmegheLbjV535twUHzsZdSuC/+wcCl8txiF4sAUdXvPhwvGxpjq542YF48XIcXfHiw/Gypf0F5foXR13Xs5EAAAAASUVORK5CYII=;" vertex="1" parent="1">
          <mxGeometry x="193.95" y="1330" width="146.05" height="30" as="geometry" />
        </mxCell>
        <mxCell id="SthQR8cLq-xNoR6oxP_u-58" value="" style="shape=image;verticalLabelPosition=bottom;labelBackgroundColor=default;verticalAlign=top;aspect=fixed;imageAspect=0;image=data:image/png,iVBORw0KGgoAAAANSUhEUgAAALwAAAA9CAIAAACYx5SBAAAAA3NCSVQICAjb4U/gAAANK0lEQVR4Xu2ddawUSRPAD3d3d3e34B7cQwgWNGggSCA4H+4OAYK7u7u7u1twd/9+d5V0lpl9s/Jm3+3t6/cH2emuru6uri6fIczv37//0n+aAp5QIKwnwBpWU+BvCmim0XzgMQU003hMMj1AM43mAY8poJnGY5LpAZppQpoHvn//vnHjxsmTJ2/atOnbt2/uT//+/fsdO3Y4hQcnXdOnT1+5cuWjR4+cwtBogUGGuAQQMM00QVHYJ+0XLlwoVKgQYY5GjRr9/PmzZMmSFy9etJ7p48eP169fhyHy5MkzcuRIM/Dx48e7dOny5cuXcuXK0Zs7d+4ePXo4grnE4BLAMGl48yJ0i48o8OnTpxo1agwZMqRatWpMUb169R8/ftSsWfPcuXPRokULatKxY8d+/vy5UqVKDDfDgKF58+YwU5UqVehNnz795cuX+/fvnzZt2rZt2wq8NQZgXAIY54Xr9V/IUGDKlClRo0bl7NV0qJXYsWMjRdxZQPLkyZElBsgrV65wojFixFDta9asoQVeNON0isERzCWAAGv1ZLxFvnveunVrypQpo0SJoqYIHz586tSpN2/e7PWkmTJl6t69+6hRoxSGFy9e8DtZsmRe43Q5UKsnlySyB4A7umfPnsyZMxvQJUyYcNeuXfSGCRPGi5kYZTB01q1bBy+2a9fOC2xuDtGSxk1CBRcMY/PDhw/Ro0c3IELw0IXbEtwJ/hmPMNu3b9+SJUuyZs1qC0KnSLSkcUoW+xvfvXsHUrPBGy5cONrfvn0bM2ZMr2dFUA0ePPj06dNwzMKFCzGxvUblzkDNNO5QyQYY3BywCIs4ovv69SuPWMTBmQMl1a9fPzA8ePCgYsWKM2fOhHVixYoVHJwWY7V6siCOnV1yhMRmDEhFAgVHzDgiTJEiBUYxwUP8cDtX/ycuzTS+o+0fmPGKw4YNa461wDTICbuYhilLly7NvzjehAR9tDfNND4irBEtHIPr9PTpU0MHTEMMN2LEiMYB7j2PGzcuQYIEGzZsUOCEgiJHjszjzZs33cPhMZRmGo9J5vUAoroPHz789euXwsBvwipYIaoFk9aswixmhF3AcPLkSQXDIykFHnPmzGkxMDhdmmmCQz3PxhI7IUN54MABNezgwYO0NGvWTFrgGDJTZABwzs2oYSYzP5UvX75Vq1bdunVT8IKfiDDhXQMSpxgcYVwCCHC4AQMGmNfnfgtKesaMGY8fP0b2co1WrVp16NChRIkSER3fv38/mvXUqVPZsmUziF+yLWvXriXThi6PHz8+03mH5/nz5+DZsmULP1iAxMeIUuzdu5d7Roh9xYoV5GKyZ8+OdmAW7iWRtHTp0klYVo6QmKz7+w0OZNy4cTnIQYMG1apVC9+bNTdp0qRv374VKlQQtJwZvS9fvuzQoYNyztkd8boFCxawKbQb6uz8+fN4YcITRYoUgQIMSZUqFUNu3LgBCxKkgQgq9GyNgaldAhh2HQbuNjQNGzbs8OHD0gitJd2gHpV0zZUr1//++WvZsmXZsmWbNm3Kohs3bnz27FlaunbtmiVLFrK4uIJsibSLYMDzpDdx4sS0R4gQgTQbK4YEnuIBGww6adIk3Ms0adL06dOHM5g9ezYUJIBG16VLlyB9nTp1sBjknOgln8dFBHLChAlgoAUMLNhAAZ8+Ek1ZtmwZJ0oasl69evnz53ecjoANTjhhYtV47do1GAUSqbOAhhCQjISC4SZwH4gQsvdixYqB1jG+7BKDSwAjQYQn1L8smrMfOHDgrVu3iFTSLkY4eXk2wyMrvn37NnnaBg0a8Iiggo1wDXr16iVIEC3MsW3bNnmEOQBW+Dt27FimTBl5ZIrKlSvLb0/xwNZIqWfPnslwlsSkqHMSvLRUrVq1TZs20oUghJr8ZlP8iwHBkqSrYcOGnTp1kt8W/yIRWR58eebMmaDAiKoF1RV47X8ZtjR//vzhw4c7Ni5atIjzkMNQ7Tt37lQtSEuSHa9fv5ZehErevHkVJNYfFJdH1AG2PSGE8ePHjx49mkKkN2/eKEj38TAEGYYuV2M5ThZJaIsWmDhevHgE1FWv+oEC5cpysaQlSZIkq1evNoM5trBUri+sBq+jZHv27Mm1MQ+RK2RuD8gWI9O0aNGCo3XcKmfDeZBsc2zcvXv34sWLpQUJX7BgQdVbt25d8q7yiNzC/UP2gJOzlIIjSsucktJ9POj+SJEiqQWADcsAS0XQUugEE4t0MUyELkPfSyOsgwxHODldjDRiFWEb3b9/Xx75Ubx4cWxPFK7jKHZUu3ZtCzwB1vWH94S04PJhajjqMOwvTqhw4cKOjdxpzFtpQTKXKlVKfkMdHiW+RAsWBmeJ4EEsoeyIV4IK6aJQccAYqp7iQbuj9bG1ZSDLnjt37rRp0xQelKk5NUjvvXv3VCZv+/btMAQySS3G/APVBp+xbOniB9YDFjeGCDpLGmE7yvDkapkxBGaL4yXAv1daRtql4BRdYLgriBDVwvlhzMojsoRbrnqx+DDKsNE4UQEYM2YMJjNqAoNm4sSJmKikXaTLIzzLly/Hq0RaYNiiAXHT1Hrq16+vRJ1h2UeOHMGTYnb8kaRJk3bu3NkAYHgEFQLSDDNv3jws2Xz58lEVRX4Aj9cME8AtRvVk2KpTg8YAw5VFX0gjSgFPWwFAcfTa0aNHHYfAWDiQWMoG1eApnrt376KhEIRisKsp4AxDi+Ps2PUcOS4MDrAUslicLqiC6uU6EY0lt0ysJSiYQG13wTS4xwhYg0HzH6UFrjUhGfEBMW+xTv6jG/nXl+2iNMKpQfMf1dMoTWJL6F/e88CQX79+vcuNzJkzR4WsrIEJ4xJ0sIYJmF4nwT21NyQwYUcMGlgnMDZMOOfYsWNYsljK7uyIAKtEgFwCEwQnihgUGEEHokRB9fpzOx6Mk5yBhayjkIf9GCI0FvC6K5RQwCphKQJGudP+fCH02kKSAlbqKUOGDMRjCKtIfUZILstP5iKB5WZVCskgEtR+smzfLQNRikccpCFM9BN64WIExTG42ariVcSyZJJZMaEXQ4RQbcNxlGFvqotlKVS+2787mMlsqCCeNTxJ5oBnGk6ZPZJpN0oaog4nTpygnoM6U+jFO1d43aQGCxQoAAMpwuGE80cVBLmbWbNmEdCDw4iuAkxwNk6cOLwARuhMJf0ZSHiGZBOpb5LMsBRhYnk7lS4mBZ5RV69eJYVJ3BZztX379tjg1kele0OSAiTduBu4n0ZJg5glkUSwn0QxqRkuPQKA2IZjIp6F8sUDMo7oL8Ky1KxQE8N549ACOXToUAaSbCL4q5iGYBqhYaJ81Cbi+sJeS5culQ0TnyVGN3XqVB4zZswIqhEjRhDgt+tVoJAkq6/nIgQAJc2zcN8gHUemUitmmOC3IBrI+fz9+oR3Bj+hUjgO5lDxXyQTK1ZpQkRO69atFXLcUZhJHkkgMBApJ49wm+QuqC+BWZEx3i0pNIzCviQKgJCGA8icYHFy5QgKkO8j40GMm/RICNDBS6ZhZQTHEEtqiaR7yG+rR4QQVRaKS9gkAVl5RJ3lyJHDvDf0HXU5KhVlBtAtUADZjzAmfmagBu3kYknTPnnyxNeEsnK5rQUa3F2iRAkFw5FTcSKP1DlzA/isBnII2XPnzh1MZvUaMxkfzCM2KS++oynl3R88/KJFiyIDQQKM0zpZ6yWFhl4cOnJ25jgIwpu6RIiGoelrOnjPNDCEMlQxUyiDUo9knrFn4XrynQgPbB1qr169esVm4AxEFC0wmXhYKDLK+RAw2NRShIAQpsTVaW2Dr8nh//gtgmdSZOJTs0boY/Se3KcaLEKyWgxk7BJ8JYrlpDQVd52aBzwvqkyk/pmcNrU1CBsaUWp4WMhSvt8EPOUTeF7kpfkID3lE+UYGv82vPbu/tgCGxAagAhqKUajkuE2iA1xFHAhur68DFt4zTQAfjN9uDWOFJBdVp2h/x0XiqyLa8TDQTT79Mo1M6r168lvKBvDCUEBEubD8EMz8YS9ShoYNwBsIBMBwPEOAYyCvMU4TwBQPgK2JQUOBJcX/sh3irtTdEu9AAoXYBjXThBipbZhImIYqCzdLO2yY0hkKbdM4o4q/tiFOCMjih/ra1LUmgLZprOnjR70YNLwcSIjLTY6Rzyj5YgNaPfmCqj7BKbrJZRKXd7JI3hGt4Y8kMZ8tJjNl74K0pLGXnj7ERl0z2K2ZhiwenwTAmerduzcfqeCtIEJotq9JSxrbSWozQnwlXvQkFSOV8BRu88oVb285nQZeIWPDK11EUylxIQfsiyofbQg7Jb4fNZLWpoyEgJ5kXeRNcv73Awm+GxbKt6gpkOBbGbzCR7FEUKVwwdyeZppgEtC/hpO84xU+Ug1qWRalkl4vXds0XpPOHwciYyiDlJWRc+BtaErkbF+oljS2k/TfRIgBROgPswaRI1/zM3w0yZbFaaaxhYyhC4lWT6HrvG3ZrWYaW8gYupBopgld523LbjXT2ELG0IVEM03oOm9bdvt/ecZps3MOZ2QAAAAASUVORK5CYII=;" vertex="1" parent="1">
          <mxGeometry x="193.95" y="1360" width="154.1" height="50" as="geometry" />
        </mxCell>
        <mxCell id="SthQR8cLq-xNoR6oxP_u-59" value="" style="shape=image;verticalLabelPosition=bottom;labelBackgroundColor=default;verticalAlign=top;aspect=fixed;imageAspect=0;image=data:image/png,iVBORw0KGgoAAAANSUhEUgAAATkAAAAfCAIAAAATAS05AAAAA3NCSVQICAjb4U/gAAAPq0lEQVR4Xu3cY5BlSRMG4J1Z27ZtxnLWjLVt27YVa9u2bdu2beN7Iiq+muqje/t290x375kfG7fr5Mmqykq8mZVn+/z777+D1P9qCdQS6BoJvPLKK5dddhkr69u3799//22SVVdddYYZZmhhtj61rbYgtfqVWgIDXgJ9B/yU9Yy1BGoJtCCB2lZbEFr9Si2BgSCB2lYHgtDrKXu9BLoitaxttderTb3BgSCB9ddf/+WXX+7cidvUln777be//vpruOGGi3P8888/P/zww0gjjRRGXn311VtuuaXhCgYbbLBtttlG4ashZQ8l+P77788999xQ1qvewuqrrz7uuONW09RPUwlQwnfffXfEEUccZ5xx2iWZTz/9dOyxxy58xUm9//771HL88cfv06dPIY3BCg7hlYYEgezHH3+cccYZ33jjDTOmc9GZZ555Jj/7yCOPPMUUUyyzzDLR0PI0RtrY6j333LPUUksttNBCU0011aCDDvree+9hbYL5558/vLz88su/9tprm2666WSTTUaaBtdYYw0buOiiiyaYYAJ2/tVXX51zzjkPP/wwCy+cr3cMHnfccQcffPDGG288xxxzkMOQQw7pz9tvv32XXXYhcfjHad1xxx0nnnji008/Pcsss/SOXXf1Lsjt0EMPFQ9WWGEF5vrggw8eddRRlLjhvF988cUpp5yC+Oeff84Qs9Ijjzzy888/n3LKKb/++usLLrjAqTmmjMVWcAgMGxKk85533nkvvPDCsccem1kMF//ll1+uttpqzOraa6+dbbbZLOOPP/748MMPTz755LvuuoutLbvssqX7JaD4D3VKN/vssz/yyCPx6XfffTf99NObL474zaRdFqVMkHkxHel9vxdccEHiTvdly+TOVaWDM888M6Ptfdvvoh3tv//+iyyyCOsK/B999NGxxhqLcldMx/bEj+23337uuecWxPKUu+22W7jeDI8uvfRSGr7PPvtEyoYcGhLkJxXtMuoRaQDV0UYbbbzxxsu8ZXyaaaYBaT/77LM8wzAySPqArR544IF33333rbfeCjNk3uEtjKeDN998s51vt912GcoNNtigbL5uPv7777+Lh9WL5PJ33333lCb4LLAn86KkpZrVf+SpUPnmm29WbxY6G2KIIa6++uqUbK655tp2222rXwxP11577UJbBaT50BdffDGQsQQaazDPs4xDpGxIECgFSSEtzz+MWIkFYJUnCBE1I4GULJtSjjLKKLzCEkssAdNmYvHjjz+++OKLp4P33XefP/v165cOQguTTjpp5t3u/+dPP/0EtEw77bRcFQFVLPiKK67YZJNNUoKHHnpINMjIAcHwww9fwee/8OiJJ55YccUV11prLfiier/CADQ455xzpmTShxtuuKH6xeqnDGCmmWaKyhxOdvDBB69+qyNPL774YqZYxqHQZAKxDic/KlLWNrlv2QRhnMQzKN/ERuabb770RclbxVqrpxgoT6UxEssLL7xQHQjmH3300auXMc8880wyySQpTdkBSI2qWfXipzDaYYcd9ueff+6xxx5LLrlkw52CM2gy3m3MMcdUNBGWp5566oYcCglOPfXUdPzOO+/0py6/QuJOGbzkkksC3izkVqYq8tu33npLOpn3+JFP1lY5HlHYa5zcUEMNtcUWW8SyMB1Np1c9AspxH3XUUdNxtZZQdipca7ca/Oijj4455hieW7Xs2WefHWGEEZpZXkYOXin0WcZba/tsZg3dlkbepWpy+OGHMzP5VF5WZSt/5513PBp22GFTgmC6ko6WbTXlxnFwyvPOO698tWwZHRynRXy9dLSQD+N64IEH3AtkgCdb22GHHSaccEKXLBW3J1kMLIILGjJy+6G76pwffPBB4cTKdIXAr5C4uw2qZm+44YYLL7ywMqN7MPtt0lDzGynzWXnK3j1C4ZQxpWp8/dlnn33TTTc1b6gkQ4xig1JlKqXwp3JAB0V3zTXX7Lzzzuquiy22mIDfdbkJdLbOOuuUrRbKVSpTBlOv9k9e8Prrr7M4guKM5JjV13tt4up0002n6jX55JOHyTbbbLOjjz5akc1W89OXRfOU0spUpKxJhvDLL7/wtVtttVUmW1A3PuGEE8pSRBEvc2n29ttvn3/++UoRrAsCVzmURe+9996HHHJIfpH5kSeffPKII45Q6lC4P+OMMzI3YHn6hiM92mc13F0zBNTuzDPPPOmkk5zFjTfemEkQmuGA5tdff5U9ZYjDDTbNaZJJGRkQDlsuvfTSwtcnn3xiqcMMM0wZccvjVnv99ddDE2Ucgsm4QIY7Ag0dViLh15hG2Vv9x/P1qHRk3XXXRQqf5MnC7ZBkL/8ojFx55ZUExJdEAoBTop+/xsBEfFPQcufBdL/99tuPP/5YAqNkn9a+YRgpkIsQHijypCWuf0XIsmXEcYiXMiktEiio1pC+SQIOm4gAvybpexmZi8GJJpqI4+M9O7I1cUK2leFwwAEHkG166VI2RZNFWngKQxWWvAI05NCQAIJV0ylbofGVV17Z7GXXORUvhkdtMLB7GntI7TtUpUKhOR2HWEBz+Zi6cToef9Pg008/XSqYZho77rij89hzzz0zr4i0ouVyyy0n9ZXrmlRVfdFFF1UDiKgAxGL5JlV0hcwjB/UbsbEiI4+UABXPjY+LGZsvXHYLgyFZje0iLXDo0a8QKXQjVhBsRzbi3J1LhkPoqGk5PcmvR0cEpwAK8a35px0cqQbAmEtWbdPdXmsT9bdVdxUc5HrrrZcyCqabMWAE1cCPIEBfQDyfGHBp1113XWatmTsPWwoEgEGsyoLiELWMKI9emG4ztipKAxs4WADgcdZZZ3VQvSyyoc9q7VR60FsbbbQR6MQj863uk9VsW1v8xBNPDDdlUtNgqy0XlhSlVllllUwGF7y/y6TW1ln2FrSIJ+BWRkBKrjPpf0X1qOzdMN4/X6W4+hL136QvhLtjcDfDpSJZhWOdn8RgjDHGyM+tfgCLOpU0a8WNWWpsRG8ZAnIIUzECu3xTfFe0yBuqV+SraaTNT5qOwAKcCFSvJU3asOWWW0qJ0xbo6tczT6t9lo2oqLtgpIgByEmW9ttvPwrNHzldEQPWSHk+//zzdIuHct/Lb4ZcvQU+tNxbOJM2R6Zrz29dkEHU/gygHZAJac6999772GOPybhk/mE9nJqERcbRUCDhvoAYL7/8cj2nNuuepvkTCfwtUqcqIJ1eIsiGREIhpOEaCgkEuquuusqtjyOIBBIuvzUGF77S8iDl1EGVqY2l3ILJLLDAAtVTABfSOlbApBkFefanjyjZHgDXFDSzKHDUueaR9Kyzzgr5FCarEnfcubT8W0aAfrWrzCPnqsFY5HRF5Ee+VYUUgG0bKOTZ8iBPpAJMFfbdd99Me2CTPHfaaSebZV15ejdmamAaJ2ibojphoqE0gL3xQM9WkcV35fMKlazUCGNWpfCjBT5eAbRCfyhMRKRSKUrA93HtFhz6rjTKhm5Qh6WIqLrDgYaD09ptbaEtJL+1ihHTKS8pbOqocZlZQZl5xHNRNh45jmPFVTmaOMKY+WW2l2crUWQnmXH2A0CljWiwun3x+PkSTCGHlGE1gf0+99xz+YXFkZVWWonkxd4KGn3LodQUaFRwHESkb9NjqC5KWCHt9l/hkZ55P1Ar9/H6ujRdUjFU3pQGKKtKNdPp3YXwB4ULoq9MToaZPhUBSDkekkJ0VP2wEsRKi5S4kGfHB1WztIyLBpyFBrGGDK3KNQ+hUwW42gFQdOUuFhIXjIldsDqqRoYhQzboROP2zUuMqvZhRokAUxGHHQ9Wa665Zjj79vJxTBAKjxk3ossKOvXZh8jp8wwgAo2n33zzTThc1gV8Sg1sJyiH7ej4U4BtKI0yAr5G9RUiE9lii28ZcRgHPfhxsTT8qR1fbsmDxLcCwqQhcYSH9XUEvBBa/N0VUUgyDATmFRuUEiM91EDZJGhNckBWPUXgQ23yHabhkfUrJlGVACTBmdjwGNcQf1Dy0J9LCBy60JXSZP9/S46NBTowDthd2V577TX00EOHKPzSSy85TkeoliNA40IWYh2smzbo0AxqV5i3kPLmm29OO1MEAt/6uAd9wMBkTbk5Pw6eR3RvZHZgzCCI1R8P/P+XBbtZ1vecf9SuETL1hdDxxx9PXsEZlb0uAvjOJsgh+HImyg2RBmCSuXhQoKZhMCFuaGQZt912m+t4f/rBVVOF0A2266676neBJP1pR2hSNNg8H9rAzuX2EdiDl5r1wmcfBx10kHhL5vndifkgRiBzrUUN7r///jxZu0Y4d4kG10O2mf7BQj5OnI4CApSVHKw2LSyJClyA3UUhM1TBn0Ii9i/oJI8TO+doMq1jzLosHLEjYK7UKc7ekENDAqyIiyaEG4HMvtwO8kG0JdhqcIXOOhx6SkyvqIfueh2Rzg7kyfbS5I27gyOnnXYauQRXSjricIg2tEca5mmGv3UXxmFWHV0sB8Ma8wsTrzr3OwFnSRvyE7U2Ynk8XfxWiQsjmYjkAZAQY0NoVQVx+Vw4Ubv4uOegi5GPVhaONaJZNu/eq3AWriF+myEkpuCzkL75QTZWCFyb59DNKUU1t4wdXGT4Nr3iu6I2GLiDk4XX2afCHTgNX4knAIBgpQhmP5Lm/BRgkhQuHWfbvHuatWLFnjP3bMCzqNudlYBxSo2icYoSiqVxp9IB9QZoM4iFlNJbYrgmGlW7+AAaoGOYhSS10URJWon1+Lo4fwqclMhAXTxS4OHXVZvyZPVIXgICb6ckaDwyJVetjFPA6mkOnO0HLkQm7RqUx0J3QrnLVarp4CUM7kVBdtmIFC5iM1qlX+Kpp57CX93Yf+kWTGiEBYbPDsLUYLZwh6cGMdUFWgWQy6ZoM9jQruUNSGIbcYqx4g3ep13soClD5XF8t2lVcAR6CI3zApzYlTAbVtsuPj52d95bb721ih0jh6Xh6sCHSAXPTKk/PAIjFaj5Cx1w0C/T1TQyIGXVc+dqeK3a5NbgZDcU4LQ2B/KXAzrB9DI2m682ybcZMsEw2JvNKILp8JL0qzQoQjbzeiGNaIOn4CB05y9vC18ZiIOqjtxKtFVmmbnWV93JNJNIWkIzZrrsFvh4Rbko07nGYWOe6Y8PE4X8MGQr6sOKJb4XGYii6ylTy/VUUqTlhVJtYRfOCJz2PbqYl309H9M7fcTZ00gFJCWlDnaidfraaoZBAqIoiO63crFjitXpWj7VEtC0qJhaTdNZT7swrkavIBKCgqpzevRBrKy3qP/uBhJQ8A/VV0AdDnfL1w0WVS+hjQQGhK3WIu8REgC/YeCe8u1xjxBp5y6yttXOlWfNrZZAV0kg+615V81T860lUEugYxL4H+Hu3ENP7lz9AAAAAElFTkSuQmCC;" vertex="1" parent="1">
          <mxGeometry x="50" y="1420" width="302.9" height="30" as="geometry" />
        </mxCell>
        <mxCell id="SthQR8cLq-xNoR6oxP_u-60" value="" style="shape=image;verticalLabelPosition=bottom;labelBackgroundColor=default;verticalAlign=top;aspect=fixed;imageAspect=0;image=data:image/png,iVBORw0KGgoAAAANSUhEUgAAAHkAAAAkCAIAAAAiiAI3AAAAA3NCSVQICAjb4U/gAAAH4UlEQVRoQ+2ZV0xVTRDHKaKxYYtdwfbZgr1FVFBsMXaNsYFGHzQoGkvsMcH2oIgmvigk5lNjBI0tgr3X2EUFfbBhLNh7if37fS45rGfPWc6Fy+XBex8IZ+a/s3tmZ/4zu8f3169fPt6fRzzg55FZvJP87wGvrz0XB15fe33tOQ94biZvXHt97TkPeG4mb1x7fe05D3huJjfE9cePHzXr9Z6VDOc48vXXr19N3jQ8+Pjx40qVKi1ZssTS3atWrTp06JClyu3CV69excTEfP782e2W3WWwiJ2h79+/b926NSkp6e3bt+XKlfP19S1duvS8efPq16+/bdu2Z8+eRUdHM3bHjh2fPn2qW7euamft2rWPHj2aPHmyoULy5s0bFWmSdOzYsV27drnCTIDy5ctHRUWNHj168+bNrNbV4fnB//z58969e/ytV6+ebmoiVP0dOXKkUaNG/fv3v3LliqF98uRJv379EhISihUrdunSJSHv0aNHUFDQt2/fTEauXr0aHh4uyzEVEBAwatSo5OTkffv2nTx5cvbs2bxhz549jx49evz48f3798fFxZUsWTI+Pl5dkkMJFpYtW+YQ7BbYrl27evfu/e/vX58+fXbv3m1n1kdVrFy5EqesWbNGVWVmZhYtWrRMmTI/fvxAS8jzCF5FdunS5eDBg7Icz5pszpgxA19v375dhk2ZMkWzXHUikwQOqV279oMHD3JFugVAUFatWpUsF9ZevnxZo0aNEydOWBo3+3r58uW8PzxriUZIILN7Qku24vd3796ZwHA0aWESDh8+3CRp06YNGffixQtZvnjx4tu3b9vN7kS+YMGCiRMnOkHmH9OkSZNJkybJdgippk2bWlr+w9cHDhzw8/ODLqEeSzTCCRMmkKdCO3LkyFmzZqlI3GpK5LNnz5JiMpKc8Pf3b9asmWk4cU2pUG06l2RkZJQtW5YAdz4kb8i7d+8Slxs3bpSHb9myBSEEoNrM6UNoNggHcKtXr9YQPGTduXNnYHiE+JVLH0Ihh8JCQ0PFo/jLqCFDhsiSU6dOQUTClCwfM2YMeyBLXP2flMICBcDVga7iCU2G0DLIAytXrszjnj17VGs5vmZ/bt26RUELCQlRcYaEQG7VqhWPcCJFv1q1aiYwNfDLly8tW7aU5c2bN6foyZJjx47xqPqaBNTM7kRFoLDTkKYTcH4wIq5LlSolGxGupy1RLef0fJs2bUJN+qsgWSL2DQklaOnSpSr4zp07NWvWLF68uKqSJfQeOKVTp056WN60LODGjRuasRDamTNnNABDVadOnTlz5lgiKVTITTEkkhKGVIdk+xpyIalR0z+oIJckT58+hS71Q1gl4U8IV6hQwRK5d+9eCi/MO2DAAJp6E4a8GTFiBBO1bt162rRpNJ0mAGapEJaWhZCapGakJd6ILVUrzk3Qo6yCGHnkzKHis31N18ILlChRQj2VXLhwYefOnfR2/NgSYLxh3759VVtCgimaEzutkNNcW5K1MapXr15UafKGqVVfr1+/nl6FjogqbTkR55r3799bqoTwn98/DcCJStCFcK6BF/OaiEVos31NIpDRhINaFRs2bEi/kZWV1a1bN5iB5pdGR7MUaqxqxIS3I2sZBuFy5o6MjKQpwu+G6ty5c9DXzZs3V6xYoVmGKdw0yDyrREgRfLIFQSyBgYGq2Wxfsw8Q0/379xlpWiW717hxY0FDYWFhuZIMeEu2kufG1+wH1tQFGRL67oiICPKUAmDEII9paWksleHt27e3G84CuKWx0yKHncgMDcBQValSxe7CgC0H9vz5c9mO8DUeU43n1Mbu3btzrktPTxdthgkq+hteXjVhkgQHB3MNpIHhCEHWZLodjLtDth/e5xh2/fp1w9fUtLFjxy5atKht27Ywnt3w169f63197dq18+fP2w2X5byOna/p2UCS8TKeqXmE3yyMGy0350vqQNeuXdWDDG9evXp1BrM+tUU3SeB3Uh7askOmpKRgisbcDoCcuxFuuPgH4o6NjRVIWEUsgJZu/vz5muHcsegBmrEuqXDX0KFD5SE8kq+G5PLly2B4HSR/nBspWWzjsGHDHj58aKAJAZoBLj3gIPWOSV0ZGEJSvRPgKHXx4kXyQ/R5EPHp06cJ8A8fPqhG5s6dK87uM2fOHDx4MAByMzExkX/YeK5rDh8+rI4yJGQME2kA7lJxIiGBeC9hEM9WrFiRdtOwz5UDgUUuIsnhEER0QnAIx+tx48ZB3AyDpqGedevWUQc6dOhQpMgfeIs08fEBQ5fCtpl659TUVPxFMzNw4MBBgwZRvsFQSNlatSUgyUQ7SB2mFWEi1jB+/Hj+YYf0ZE3ZJLFEgluu0I1CLlHplXEoHSSrIkZ5qQYNGhhTUN7ZjOy2zV07LNvh9oveUeUih3MR6dOnTxdg7mZxHLRDyAgJIS8nqWqTsVOnTlXlhS5x9F3G1UCgV6lVq1aev8hs2LDBiHQ6TnxNqLZo0UIsA+7TNDAcIvjEwUWCq2v2AN6fylMQ03Bfyo0dH0qc0I6xALiemsmHCMgdUha3SPSgxClshpe57CVdcChsbtkvLVy4kFrEryBeKr82Cy6zuMzy2D2yeAu+TsD+BfdG+bRcIBwi9p/TJtd7fO7Kbzg4G09TT/nl+O4MXggoX/aqEKb9K6cswLj+K/2pe2mvr3Xeca/O62v3+lNn7T/yzywQ2uMy4gAAAABJRU5ErkJggg==;" vertex="1" parent="1">
          <mxGeometry x="49.170000000000016" y="1470" width="100.83" height="30" as="geometry" />
        </mxCell>
        <mxCell id="SthQR8cLq-xNoR6oxP_u-61" value="" style="shape=image;verticalLabelPosition=bottom;labelBackgroundColor=default;verticalAlign=top;aspect=fixed;imageAspect=0;image=data:image/png,iVBORw0KGgoAAAANSUhEUgAAASkAAAA/CAIAAAAzA6nnAAAAA3NCSVQICAjb4U/gAAATaUlEQVR4Xu3dc5AsSRMA8Htn27Zt27YZp7g427Zt27Zt27Ztfb8vKqKir7unZ97uzuy8ndo/JmazlJVd6ayefv/+++9A6S9RIFGg5RQYuOUrpgUTBRIF/k+BxHvpHCQK9A4FEu/1Dt3TqokCiffSGUgU6B0KJN7rHbqnVRMFEu+lM5Ao0DsUSLzXO3RPqyYKDJpI0HoKfPLJJ99+++2kk046xBBDNLj6d99999FHH4077rgjjjhirSG//vrre++9N+qoo4422mi1+vQgvBGUcsv99ttv77777ggjjDD22GOXYtJIh7BH2yyd4dNPPz3ssMP++eefXOuggw460UQTzTbbbHPNNVfpwNYD+6XceiuJ/sYbb+ywww4LLbTQBBNMcP3110877bS77LJLv379KnD48ccft9xyy7HGGmvOOed87LHHvvzyy+OOO2744YfPDvnrr7/22GOPd955Z9FFF/3666+d71NPPXWwwQarmLY7TY2glJvfMTvkkENeffXVlVZaCXoPPvjgkUceOfnkk8dudTt88cUXRx11lP5GPffcc/fff78Jl1tuudxCuO7jjz++8847N9544wUXXPC8887DdSYnKVAPleaYY44rr7xyyCGH7A4FemYstNJfayiAbWgkhyYs55QstdRSBx10UPXqGPWAAw6IfQ499NDFFlvM2AjBbA6ZoxwgTz/99HTTTXfuuedWT9ud1rooFSffb7/9yIW///47ND366KNjjjkmgsSedTugFdaN/TfffPNBBhnkjjvuKK4FcuKJJ2KPs846K9d6+eWXg++8886lo1oMHKjF63XycltvvTWuyFLgtttuo50+//zzWmS5+uqrnbBsB/KbzL7mmmvikE022QTvxX8vuOACx+ucc86pNWc34Y2glFuCHTj44IMbmIVT49tss02A1O3AXrCp0UcfPc5w2WWXgay11lql21lllVW0vvXWW7nWZ555Bjz3FEpnaAEwxVp6xnxoZJYbbriBwZPtOfPMM//555+33nprreHsUl6KMxc7cJYmnnhiUwXIyy+/TMVtttlmscN66633+uuvb7DBBrXm7Ca8LkrF+W3wjz/+KO497qJuh/HGG4+rtsQSS8TJ8YbvWLq4nCbGxTjjjDPJJJPkWl955RWQCp+5OFvzIIn3mkfb/8yMH95///3hhhsuCx1llFF4I7fcckstJNhUuSF6jjHGGJFduUAMuXnmmSc7A49o4IGb9WTrolTciyGAuY3YhagJM1JT3Q5U/RNPPBFUepifR+fL6quvXlyOPPrqq68YxsUmuheQvi02tR6S4pwtorlAiJWGHXbY7Ho4ZOihhxZ7KEVC3PKzzz6bbLLJcq0OMSv0l19+Mfbee+81ycgjj7zvvvtiQn6gqMxWW21VHb8pXa4RYCMoFecJex9mmGGyTYEV7X2qqaaq2yE35wcffHDVVVdtt912Sy+9dHE5Sg+QHZ5rwuGU9sEHH7zqqqsWR7UeknivRTT/4YcfrJQ7fyDcue+//74UiYoh+htFGziFYp7nn3/+tttuiwPBN9xww2WXXfbGG29shuqrixJxUNyLUVC102xT+DfsvW6HMJAxefzxx/P9KL0zzjhjjTXWKK4Fct999/mcZZZZfv75Z19EZfG22CY5Re+tuOKKxVG8aGKRDVJs6jLkm2++8WjinCRjjgI9uViXseyEgTSGbRYTeh4JDVZKgYoh+hvlyDqOThj7LTAe+G677UaTnH766VtssUXptN0B1kWpdHKjSjceduGzbocwLWUuc/DTTz/NPffcu+6664cffrjTTjvlVgzOHq84mJdaySA+8zrrrMM+z51+WvfYY48lECVOhYuFiOnSnLEqEysGG2zjKaaYImQsEN/qspFyOVNOOWUWB7axJJAQmvytbr///jtUWSWMESmlbM/Ee6WnpeeBwcTCadmpHRQnqVaiuXSI4QS5T3I6KBnJPVmHOK2joOmUU04p5T0xj5NPPtln9Q6dV/qzmKOvi1LptEY52bmmuAvwuh3iWD39rbvuuo61NAO1eeCBB2ZnFk2Rulh++eVz8CJixNOll1560UUXYbzQCsmZZpoJi2bdyJFGGomyZfkvsMACIXUROhN8zNpsEp8Q3GuvvWQRzRnDPDBcfPHF3377bVyaw6FZHnlxqx0OIYlRgBTM0sHT8vByifLYoXSI1mD4GSXKR2Yz50LPOBDvCe2UMhjVYYgOdf9yKiJMXhel0qdsVG7j2V34XrdDcdqQRTj88MO5xNnW4Ozhk+KQLASTXHLJJaJckfG0Cn0pdVDJIPic7awOSbpCfjILRP9FFllENDUASVWJfi7AAw88kI2v2tpGG22ES4seeNJ71c+ox1qZPeYikrMzBi6aeuqpS5dh3jgZuSF6GjXhhBMONdRQvktVPfXUU7nhIf5efNi6sYWyCYnSdSuAjaBUHG7vDz/8MA2QlRFh78xj/et2ECY588wzWW7RbMMn7FgsrcZlySWXjIsGZ6+a9+655x6m5gsvvFD0TmeYYQYxUhbm9NNPH+fM8fPZZ5/N9NXKpYw7wsyvvfbaSy+9VCwnEnbOMXOYubP0XkiYFg9HCyBkIUaSRM6uxZfwbzZtlcOEvMwN0cGoOIRzwuaUvYgDgwfoTBcPQY9ssy5KxVVCyLG4d+4TIaJ/3Q5KNAU2hZTi5Gz1oEul/rIr4hMaacYZZyyiESAMDYpo5ZVXLmb/dODC+RR6yQ7Hz1AVQAZk095+++2hdc011wxfAGlgqYvodWeHY1HeZhYSvndX75122mkePEOZTFI7RwxAlKvgi7ohsll8iVUdVXPAnt1MGDgcxiqGAuzCPOLsiq3GH398nvqbb755zDHHCDl4wCZ88cUXubYCYiyrm2666eabb7bEXXfdBaVHHnnEWsopQSAMAZgX6dIMCP+EG+bZxwikskZ53shIXCCezPzzz7/jjjsGBAzhPBDDQT8AEq4Ec3RICGD+Cf8+7EgHnZ1LA5uxBXPWRUkfIRAP4sILLww7FZAEcTBiWIKAoAk33XTTgGTdDtSds5TdlEdsLJMhUsa/1I6yT4mHUoM5rGVdlmEwWYskev755wFpv2wTzPHz9ttvz4zH28WxV1xxhR1FVsxNm9X2/2kKqqBrnwSwckT19WZUMBWq9fiUhBm9HObk9ap5jfM7JUIL4ksBokiP2O7CPJiNofL444+HedTIOo6+C0mxbZRZEVS+0PXYHpyFs+eee/rCloi1jsJlODbi1uwvZCpXntwJC0GPAJIvjus+9NBDKKlsJYuJkIl8VCzgdEztLtuBTnD+0BDQfkl0VI2Vk83YVDVKDmiw5ci1uLoSMOGKgCQgGYSdCM0GO5CzEidYK/RHSb6WKAi7MUCk6QlWe0fAZZZZ5sknnyShSvfOdtVH/9JWtxwo4WwTZ09/+iMAVYQyWcN3PBy+qCUiQ0snBIRtaVPJPQZsk9O5OT4O/84777zUPc559tlnKTqEDjEDhapM8FB2oCeK007q7sIop4QKxqhcZEfN4SP8bK9/51GghHNY7WFaykEkVwG7B4B8jjivJhvoI4YdRwqBg0RY0JDiHOhFFuhcusFmAGk2atZmnRvuOy2HT+JCnpBnTJZnTSbAk046CZFpeA+b7JDKy/lyGFhCD/09ZuQVKG9Gci+LZzVK4g2OELGbpSGfjdEo8o4D4S8OmQsyVXcwKiT3KEB2FglOzsZqO2XTNJ7gE43nQTNHsVCu3CcgI70uxecMZG2x0OTQch35z9kj4YmsvfbajmiwOT0CA63CZgEMOca9996bSC3lGlKALiUuS45TjiM9Y6bg+uuvT1Cp9LWAfJFh7CKpSQqXscuoEys7+uijw1iXYmAQ51F358GEf+0QlaP8CyKEKYJDnLxsMb7+jc8TyiBkY+KiLMworpDAyWOb5bbmX6pPwDfA7Q7v1dUPOig7JFCOOOII+BfnDJB4O6FWhwRvEwqQwoI0ivLgg5E4IJjNd/zMA4xHN2JLiLOhcsizLxgjPgMcm+CR7DWLACcKqZases/Ok7/HgNNgk+3h2Jk3WzivlWTlRIVuBC0TInxnRxEJXM/wLy4le3zndPnEb6bK3hwBpAT6d55gm8Ut2SEfNxpvNAC1FubMfcqDxfs4u++++worrFDaLQIRlynrtgsRbpskDpOjOIQ65XcV4QnSnhRgLtEQ3BAZBcePyiI62RrUcg5hrRwo/JOF41jGLVmcBfIGHfVQ7RDgVA6VQE/UIkI+1mKAG2JZ/cjRpLsEALJAt4YJAxBGFAszhnQZG4K/0f0lD6hEuNJRrHCeDG2Oc0JdD+ahiJzaaaaZpr/mMYmYYSgFpDwlZLi5bO6AIRxy2EbMmSvBzsH/F198MXplN1X87iYOFSoxGhwYmDOeiUkkynrzhGjW4y/OkyBtRQGag4pz8JhITF8P1JO9++67SXB12E5jwJYQp3LwHo0SjorDxo3kLsm1xEBR6CxwIKxIUjOqnTHmEkbAnyEVVL79LFNKyefuXAY9JuyT413YB31Fz/JYYqvIoURH/JeByjmxPf53AKrEocSdXarSJ6M0wPt3HqrV5kVxRFmuu+66LHpYkT1ZKmxEPrEobcxVQA5So7RbBNKTdFq2D6efoAHnWwY4a57XmlPm1dOm1jahAA6hAPgUDEjfnQeaqpu44c9oi1ZP9R+bk7OXO2ohOo9/crM4cNXztmErlR7tZPVEs88+ezWSiJj1Y2NnlJXJUU3CwxTvkcaQeqqeKrW2MwXCpT7Pkb4q+mzNwzzv7+VWCs7etdde2zwMWjaz4KqkquVoPwZzI+JDTKgWem5A0+ch8larT4IPEBQgZAXJ3TYOQZeW4VySY8japlxSrhqDivFabrMOOFBaXahW9NnlDqZFTEYPODtImPYpClTxnqAN71MOlB3cpzbd8GZEfYsF+KWjOb0hsVvamoCJAkUK5OOc2R6ilBzQUGtXHNkJEC+0K02YFveeu8SV6yC0s//++xdHJUinUUBlRYjz2XiV3uPsqRXk7JVe9e00qqX9Jgr0LAWq7jGUZvbC8sJBymSoBXHRnkUozZYo0CEUqGlzyuwJTqgeLL0WIZUsi7/PPvuIzHafUgpTZAUlIptahdgFPJU7NGhz8opL76R0YdE0pEMoUJP3grNXcQdR/LOnXEGpcJeIwxu/24ruSmQERRtBSZlL4r1GCJX6RArkeU8CWtWMA0cL6eSLC28qqlxHyL1ji0WquqVHSCn0X/o2xR6ZvDuTqE/vzvA0NlGgggL5WIsX6UgtuIvB/FPGKc6pdkxFmILJ7IsiZfxc3zjhhBN0UC0qL6nUOCwjgeaKlCFmUNMcbw9pVfzl3h0zVatMtw5K2FQVuAEU7haltFvFoxqAmhT6hVch5XB2+8YNKZW9FXdbB6BtdhfVrmXxlY0in0I4w91OwIehGE25o1LUcGtBk9tQ8ZqCeKl0WVjOxUf3jsN3bIzJi6/O7xpiaVQ7UEC1sVutTohrimSrql1/yokIXzKanPW9HfDsXRzq1JTVQk69cvwZCpESGiyUX7kdF+q23HR0I8Pt1TiDIa7buh+petX7oeLlPe9RDFfLa62V4AMiBcI7HVwOziGPLYla9VID4qZ6FueqHEOFShUApLtCB/kGjOQeMTPDRYzwPkMc5UKUywpxEtcOeJKY01sf3SqKN69N1Z7OXsX2U1NdCggH6FOMxnFDvGDTbe4GC4bqLjQAd+gaK4u7KCYOY6UH2Jm+u/uEEKW3adwiD1alq99S+142EdeVxgi/k4YzS8d2DcM0qncpUOtXuBifDomAQq3b3L2LditX76Lec0EwvHLQSzLYluH9M4CkGjaLokhTePGTUE14s5qXXqy22mrx56B4gzg2/Ayve7RVFw0HYPnWcag7wcwZrkQx7xJe1c4Iaotffu3VJ5OPczaIjKyAm/ZCKd7Z5HZf/A1rNqeX0eM0nOleuTtyglrmDManh4FXMaf3NcTfy+Yfcr5FR73BIftC0gYxSd3akALkqWIDzp5382TRc+FYrMWvDnphUZNeH9qG1KiJUpeVLG4p/cFUvp/L6aUWBdKXXumt9Tq3LuOWBvYuBbxxyIGTghL99se1UyPl5Voqzn3Wemde7+Lc+tW7qPdqsnJqSBQYaCBuhbv8srXxF169b4omnHXWWXMVGp1MrcR7nfz0m7V3+V4GDnXXbgW6zdpwl+btYqylS2ulQR1BgfArXPPNN19ivOrnnXivmj6ptb8pEDJ7FVX4/T1jHx2Qr6Xuo9tM22odBRrkvYq639bh2qsrJX+vV8nf5xYX5ZbCFeVWVFhRMC3VtPDCC/vdrJCC8rYbNcAV/fscnf6/oaT3+uRj7YVNiazI6KrUxVfqlvxElHRurZfBeUNxyP26mqwi309KdRrjeUJJ7/XCMe2TS/p5Q/ymWMz70sO7mf1wkl/wKW5W3a+iXyUZOrhQpq66M2sqEu8Vz0aCNJcCAqEKgNXuxtqm5q7XrrOnOGe7Ppm+i1dF3W/f3XTJzpK/V0KUBGoqBdilfgRKoMULSmLdb+5nlpuKQJtMnmzONnkQHYeG+kn1vczOjr3QkHiv4w592nCbUCD5e23yIBIaHUeBxHsd98jThtuEAon32uRBJDQ6jgKJ9zrukacNtwkF/gceB4BbKbYiDQAAAABJRU5ErkJggg==;" vertex="1" parent="1">
          <mxGeometry x="185" y="1460" width="282.86" height="60" as="geometry" />
        </mxCell>
        <mxCell id="SthQR8cLq-xNoR6oxP_u-62" value="critical points of QEC codes" style="text;html=1;strokeColor=none;fillColor=none;align=center;verticalAlign=middle;whiteSpace=wrap;rounded=0;" vertex="1" parent="1">
          <mxGeometry x="200" y="1290" width="100" height="30" as="geometry" />
        </mxCell>
        <mxCell id="SthQR8cLq-xNoR6oxP_u-63" value="" style="shape=image;verticalLabelPosition=bottom;labelBackgroundColor=default;verticalAlign=top;aspect=fixed;imageAspect=0;image=data:image/png,iVBORw0KGgoAAAANSUhEUgAAAU8AAABeCAIAAAAsUgEvAAAAA3NCSVQICAjb4U/gAAAePklEQVR4Xu3debz9xfgAcC2Ufd8i2X5ZsqVIkpJ9SURCKZRQok2lBUmyU5YUabFkyZIkayprITtZihAVkrVo4d3vYV7z+sznfM7nnHvuvefcO98/vq9z5zPLM8/Ms84zz6zw73//+xr1X8VAxcAywMCKy2COdYoVAxUDV2OgUnvdBxUDywUDldqXy0rXeVYMVGqve6BiYLlgoFL7clnpOs+KgUrtdQ9UDCwXDKzcOtEjjzzykksuaf2UFz7oQQ9ab731hlarFfpg4LOf/ez3v//9oTXXWGONJz/5yUOrzUqFP//5z0cdddSVV145FOCnPvWpt7nNbYZWqxU6MNAi27/zne88//nP/973vnfb2972Hve4B3r+wx/+sMcee3zuc59bZ5117ne/+93znvd0Sv+yl73sK1/5SkfX9VN/DFxxxRVbbbXVpz71qRvf+MZ3u9vd7n//+6+++upw/uY3v/le97qXP+9zn/vc5CY3Ofzww4899tj+3U5/TaT+yle+8ve///0d7nAHc7TZbDMTv/DCC+20dddd9y53uct5550XJdM/nWmHEN02/u29997veMc78sIXv/jFpvHRj340L9xll11OOumkZuP691gY+PSnP0125U3hFs5f+MIX5oUf//jHrcVYIyxQI1L629/+dv/BHvKQh5x11ll5fUS+wgorEDB54dprr/3Xv/61f7e1ZisGWmQ7Vvrc5z4351KnnnqqBXjwgx+cF97sZjfDd6edmc0IfJ/4xCfe9ra3NXDuT8QwWzi/4IILdtxxx55Y/+Uvf0mYo+RU/y9/+Qvip87c9KY3zTu5973vfb3rXa9nt7XaIAw0qf2MM854xCMekdcetAC47+1vf/tB/dby/hj417/+dc1rXpOinjcJDrvhhhvmheeff/5d73rX/j0vfM0QKT3H/dCHPvSc5zwnr/zlL3+ZdrDxxhs3erj+9a/fs89arQMDTS/dKqusssUWW/RZgGc961krrbRSR9f1U08M/O1vf2soU4M4LI/Jne98557dTn+1DTbY4I53vGMOJx7nz5Lat99+++mfzvRD2KR2npIG0IMWgLo1/dObCQhJ9YZgHyTiOPBmYkY9gUTt5WZjMzY0GnXqZuuJ0u5qTWova3/xi19sXYCy5vIs4VX+6le/2mfu5NhLXvKSPjXhXLVSxPVpO7t1Bmk0szujaYN8CLVbAC7W0mvSmMaPfvSjD3zgA4zPq666ShO8+QlPeEKjzne/+10u5db5Mx8cBDQ+kW/6VHjta1+bybDtttuuttpqDgv22muv1k7GLjznnHMOPvjgP/7xj+9+97sdgI3aj6ADgPVpdctb3rJPNXVa3aKNtk6tjj76aJ5qaP/HP/6h85122snvvNqoOIeKY4455ne/+90NbnADLP5hD3vYIx/5yP322++ggw7qCflcqn3pS19qNdrn0ueUt33961//rW99a5NNNmn4L+YJ7CHUPnQBHBS/6lWvOvvss7mUg1TsPCb9Jz/5yXe961050GuttRaqpou+4hWv2HnnnW0mHh3BFaJKEHBO7Qhvt912E97z9re/PQIq+LGcuDref+ITnzhxRNzpTneyrV/0oheNQeqA+b///zdBqBKHbaj3+RDHH388hMNP0u3f+MY3Opa3Xrnvuj/OraOdx22Gn+onxrKC9IsGB8nBeOc733nxxRfnJRaUK/E1r3lNAyGUdmyxG0uDbMbuVjP9ddddd11zzTUf/vCHT2QWJ554Irn4mMc8ZlBvTZ98o173Avzzn//caKONLr300ve9732JVK5znescccQRH/zgB53P572tvPLKv/jFL5TwAt7oRje64Q1v6H+RYbgaAZJqqnP3u9+dNnHCCSek2KlrXetaxO/Pf/7zeVJu8dd56nkQ3jvKh3JYjE+YjUO73IzHH9H5PvvsMwbOMVPTp8TRpxKp64dvzKp1YOa6172uQfN/Vt+GaxT6E6PvmHJ86qPRDO1ktirglTY8IpoI2Pvvv/9vfvObjq6GyPbuBdhzzz0tLdlOUOdjoGTeY3r75ptvnpfrjcKZzpBOP/30OMMXsRfVLrvsMmGhjgB33333BtA2lki+fC92zGrUT+zk7bbbbtRWUf+HP/whNtSn7a1udas+gcbdHPZjH/sYBZ7pVB5KMaDe+973HnrooSPhXGWBUuwCShZabUwEwjuo/elPf3qjPsEuLohN0QcheZ0+Gs2ofU5//dNOO40ZSLucO6g0YvGvjQCNRrdd1E4rC6O9VaX8whe+YGOh2AapxwCrrrpqSPJ8PPs4bR2RFRSPoPZ99903qonGFSsugLR18hR+Qj59sj+onUY3Fh3h8Y9/PF2DQssE2HrrrbEbNZmgaCP5xrgVONXsbHYpE/EFL3iB5jHNxp6+6KKLyE/aBwaEih7wgAe0gqQQis8888xBX/NyQPakdlA1YpmiHzEOuBL17xa3uEU5Ijxg7Zdffnmuew/F+cknn3zYYYd95CMfKUndENSueeKwDfi7NRprgaUSHgJseXPYgL/97W/tlh//+Md2IOeFBaXd5H3yWdAub37zmzvg5PS59a1v7esY/fzsZz+jqNJNRJ3tsMMOcTrwmc98JkQX0xL/BY9woG222cYQJMfXv/51u4u/I+Cx5Rx15UFECU6dCBwSH/33v//d5rRRKVPxtRV+n/RsFral5TY7mrJFR4l8LoD0iTQdeGDZGmEXhahR743gzVSfELZ9BzUXY09Fz78iTooAoiJJnv3sZyOkRiiuaUDZpptuOqjPvBwuoE8skEJhp2boh+VHD7D8zGc+Myq/7nWvQ6vxGwBIiKnpTwgCIX7kN5WYxpF3bgOxJiyzQmh93OMel3+d199YFSzZUq2jvPWtb7UiAXZZAY/jQcjLh+JcZf5U3JwyX3Y4RgnE4oxjNAxtrrEloh/8lO+QT0HsJmUVO1OO8p/ylKcojzqoXbU07hve8AYaIjpXYjW5ivwYo5/jjjtu/fXXFyCoOWqHKFyGUGExkQfWgr/Jp9e+9rUCfv2wNNwfbFsMN5aJQwRsRGOCLf/BsfLQhz7UMim0fPqJr63wxyfkg0H7DQBKceqNL0wPraOkwmuUn0ndb37zm/S6OPbUBfcYIR+4S/WdJ2255ZZlcyWCHyGCVpl/DYmNGUch9pNioXE1hb/61a+0Yhe09pkXYoQWHiVHIXUgIva5D5TgozxY8enRj370S1/60vhtIo997GPjN6JKdwHIhHwiRL2g4NhGv/71r62rG4FDQZpjBeoGpNmXEWZjCkQEb4LLIXnPuGSDMaWvaMBehNW8/lCcq2wdEcYc4U/NR6J2684OohnRLJg5Vh+p4ODIMrZEdIsF2HvW0aKjtCjkx06TtZq0oZ/85CfxifcBsdEFUJqumBsuevk0aj8/+MEPnAfZXWl2mClV8ac//Snpfcopp/BH2Iq+Mr9jpQhI+4cNazpG98l0KKRc16mT9CP4RQKbhkuT8nUQ/NEQgyBHv/GNb8AJGFJvlFle1XKUvKRFk+dOx2yASEvBQYlcWhbe79pG7nxeccUVBzmx3/KWt9BPnva0p4VOEv83jHYEFrHQSJQoA2sYomR+3ir9xvZcCAmrgR6FNaRDCxwuLH/ranVtIFxfQ+gGeVzpYdUYSMPokGchha+hKxpaGgiu4VH9Qw45BGk973nPcx2tFaQJFto9tBWamA39pje9yV63nHY2Oem8IA3UgfP3v//9RAqSyKEainOVoX0Qzu1dJiU1Z4IzzbuCZ3Rup1FfmWn2pYnbwbYcT3Vy7MVBjHWhkIcph7WhogMOOCB6+9rXvmYrps3Jv+u3bWy3gN/JheVWc9R+OJvve9/75k4l3D8NdOCBBzplCPMnEQI10EBEhc0fkaZ2l0XENUocYu4UTDONT5hLHOUOgj+qET/Oj6io2jqaiULbVfMOD8t/R+9mBh1fEf+jHvWoqICxJRZoepBrszbaMv9KXcCGtoSpJiezOxXloGwS+nkqf/nLXx6KU1kTqbCNo9yGsGOCrYbrKzhx3gpXRkI0DnpaaLP0Auyz7HkaSugjvJWIATBo2y4PGUg1YMI1bi6q0wfnbjej53J2lsZJalneXULRfeADH9hdZ4yvgEEwopiiLcqHh2R9UHlCzoecZMpyE7aOMlI/PF7U5tQPXdXGtmGihAbunKh1FNVC2fY11y4blSmnnE1RSL6a4Ic//GF/dsCPQagZOhHm9YxnPCOaU1scYMXvpD6XsLVo8mWl1hJn7AwSgpTOjwsiJ5yGDiOQuyT1MEdx2bwrtEcI56Ya8wabTLpNVKY4kcPs59SWzMHY0p84PZkWFZjukBWfnFQ524jftCbYDFM8SqhkFDy8yYhKGGBBOWwWGhpaimp552nExfoBKgwRtrFXHh3KPwWEf55mFP6IHLCeONcVFSZcX6m5LQXnbLpRZwqHNsaorYbWR96kaCJvctUZdWrFhLH9MPdAApwgxfTV0ieyHKkfrgR+3OgHkdNA7fD4EyTgYeGWkNswpDq68ImT2F6yx1I17IPPL/7k3sML4jc9JbmHBsFPgNvD6YIwJ45/0TxteyAlM7aE7eoQl1LH6FkCd2EV850wwqUl4GOjOdMMKWnmGf3wk1OrzJlDKK7NwYhNpsQ62RykaxqRsq1PWoNMBnytVAZ7kQci9KJUDXFaRcMRJrqiaITC6QToSU96kvqULlizZSkC0QrjlAqCimWpeFDIPWY8DFKVqetgpnpETT4SejXe2ei8J1rmtRoThiLHSLHdMVag3u52t6Pd0V3Hxjl+qk8MlN0Iz3RCCpHj1UGW2rxOsLVzS4mekUd83WyzzWitzibiTytOocOhrDWjwPoS9dBiC+Hv/iTqw1oZqR8dOgGhzGuLiuylFMBveyBU+mBr6BFmxH9Bx+E3oZZju/znAWq4MDEmf+KMhLP+sRIIf/WrXx3GyyD4kSp7h+KJanglLLd1D7ogt/AmzmkORUKu9ZjsagBKBjBSCYip2fQWWiUnOeLRnA35+c9/fqR+8sr6PPfccyNzU2LnZW+Eua0fvpD0VUMlliGEeUOroQNrkuR2aqVyo38qX9l5CcNilVhU9q1/EbYIDNt6kGLZE8jgvzZiuIh7tlqYapYs3wk8YY1xY+PlhWYRvvS8cIx+kCJybQxnizac1qmC+n/605/AQ/7hmKRLo63ztrwEkK2bvBV+DUlKIq3Rpz91MnTh5krt+ahC9rgcMF3eixKaBShxFEfVCbct7p7UsAUYerGG4LzE6WGeK5HeuFhg1HETBkhvst2fNCaL0jBL0ST9YrHQtVJSdFs1qJEKzYGLlReU9zup8SP1MMfKOC5fAGqHUGC4yzFQpZnjSFPTnLLN5DZNx4RL7D7s1OB4NEAYicxVVioq4GFpLArPAoOxNZBptGHGqj0nu32sEee9ERHH1M99AfM+ZB2gYiDDAH8TwRPHflOFmCVI7VOF3wpMxcD0YGDIHbjpAbRCUjFQMTBHDFRqnyMCa/OKgZnBQKX2mVmqCmjFwBwxUKl9jgiszSsGZgYDldpnZqkqoBUDc8RApfY5IrA2rxiYGQy03HidGdgroBUDc8CASxB9kgWL1xLE7fy8MZSAfIl0XE9ovc06B7jmsWml9nlE7gJ0LfBbyKD/3UcU2O/uZ/kkQwmGtAcSlrgjKeJapKfbFGUdF5ncd5DYQ5ySPT1Gqrmyz46SPiA1mrvj5KaAiZuFC07m3qggT4ZbYsINXQEwBXdIcsoU3y3K2+UZd1HyWCx/uqmWuhLrKiReZhEBmq4huXmNzoWNCp53z0qwtsuIZRrFjpku5qfFCtmt484dAzaiu1/p2qPLGK6+unTV3bNcPS4FE1aq+V8KkMa7sQrtaRfLdKiOaxvufqUL292dx9e4qtCnZtQZClLZlbQIUu7EQJidm2EujebVRK2i5HSBxG02lx0jNYBqLpAMojpcoxwuHtJO6ZJSBfcU9CMbXNlkCksmeStmCqe3tEGS10lyxaDbmKlNKa1FmbQj4YG4E1SfXw10id2tycjwF9VkgycJU0KBeHxWmpCeyHShUB6InpVV6wNSozfvfKCxlNzCV5oIkZvm5c6/S6Z51jOiWIWUy8l8aTTyKchu5OJ2/PN0vHvQrU9HR0piClEDEjIfJOOl4uuPoknVrNQ+KUwuQj/S16XsJTF8pBOX7WMQNHRUF7MaXymodNEodE9TgHd+TwudkF0h5wd1m5ePlJpOw6EglYO6E+5ieX7ZWfYeVJeUlMg/K9NL3pb8TymP5IEtSVfCVSnDyuGUuGTFZGhcr1YemVotRGuraSusPvlBCt20l7NF5VRoJJyQeZroHpSi25QkCylzVEiZmJpQVt0el/slzR/xy9s3KHfd3NE0FKTGEEhOZhiZqvIEJ/wLRHfkI1MfZvyPPvO2ponCGeEK8YvIQZ4q0A6oRa0pwPEvSRwkLG6kVNGWgeN/+ZcbQE7nn5Xap3NdhkMVCZUbN4tJPCWSbbW2lwiBrlteRkb/ytnAaftKhimhEusd8Q/qrXWIUQv7gFT2SWaWhRJUyroT5aULXTn3m4aUfL+lncrfJqAaSKM26E3OYCJljkdGENNJAqWJv01Yzm4iJZXaJ4LGRegk/Ewl6ZI/g1xQHU1MIL4iBn26M89jL/UYe1VSkPJdt0lNuA9IjbHIcJfGIwFR+sTYluxJIXeDwnjjgf8ib8vd6E+5ZUrgpVqTwrgU3VHTiy5+5NSOm/CGSuwFP9gikMo+p7BkNqCcQsQtOkj2NxhSwrMcnkHU3tFEc61IP3oyxzVvfzzSKDEOt7Pfcrzl6v2kpj8UJNp1OZbExLLEkeRJG3ckTq+hKcQjKkiXc5ELTXK4aI7UZUD0O9hB3ie7QPIJsr0cKErIdp3LGy3trBJshbnE2WFQD6g0WsmVFjna8Q72vAyLjZQqcBvegdbheBYauS6sCAcEbyJcCRDYaqutpG/AayTna+2ho7BSewdypvpTHB2XOi27lBHbCnpHE/UxjsipSELm73AyZX2S46iV2pkADebCJ29fRqLFHAyxKOWDVkNBap2INGTcYzSOID9+RMRs1oR5+Bc45CgmCFjePqoKLL3nPe+RN1JupZI+HW2gyUHpT5zhSfnIaG88sFcCZnTJUXFMPkJkia3IEcoUIvxznoUlcYVKockhIldsnN7jIJgOSFB1/hSX7JcShErNTImQJlREkIMGDZ3zV2ovl2DJlkRqFFsnnyFCJQoa3qlUobWJr0GuWqG9IPg8yMx29In1jmbKzF9owN7NYbBxpQ+ycRuotzs919MoHApS6/qhTO95GVp+VSLUn1wMjOf0oKhW/iT5meKGwH3YI6GQk8l5nz4JknG+2DqQwjDahz7DilaloAKG9MfRFRbp+RfZ6Wgihkj98y8y9T0aJ5O/oIZ8XDwr3quLQryD95RVlR7wsC4yOHuaBXsaBHBX+bQdElR4emJAUmHrKqtpXj9MU5m8B3VC9BEdja+IhKMuzu3jyfdGBVsQnXcc4+f1Rz2BGwrSoLnk5cQ7bHQ/hCYncv4MQTT3vJyGKVF8OVY8SdSdQ5k+BYeeSCqbey5B/43styIFFErTHPVhLH4gb+w7fstgh8nKnlz26cyy45C1rJ9KqpeuixVO8zdkSUcN8k5whpSWan4Q5OJAGk3U1EqcWchthi7nvATJeQ+UUs/FzVPuxKEgtc7FewF5uQdL/JmH91J6qTmpDo2DnU/CN3oLwitPJVO1MNq9/dgKRhRStmGPDC/rxPt2JH/+SZ8kPFdIFHqUMn6IegiHH1C9iaBcOGDZJ9meMtuXXztKKrV3IGeqP9kWgl4jlisB6pyZWstAjRL+NjpqOoVWSIEkSZzVpybMbPQfD5hFBf/np27IRmgN5XOe0DEUJOOSkGRdAkA6V2TAFE8lTsKk2cY4osSVARXSU38K6cOUiJLaHWT6OiiawNwl6i89Zzkq4tVw8batln9wJQcceRMrgr/wO6BnNnlyHCaHS/gIRAfnrdJvUYBhAbV+7SrskPv105RjAN3aH+nhIao4R1qKigM8X661zx/eJu442DmH0tSEl9Pt8ygx+y9/xJp/DuWQ/z2xMaomPxQkTuw4ekhPWXOPm5SQ2wDJGzLO5NJXhU7CqcEpTlZSdy8dcKGXU4izOrK0/KQk8q/zkLV+jcKwBcrIvPiqLVaS4vMVmg7B7kEk/g58Fv4FAjf6Z6i73dQx6Hifqk++ixVO+TcSQ2g38iageLz5fimHrsQlsP3J7EynUMr5tNAG/xATkZ+ZB5js4grKj5rREqXUg4TUe8oCrR5dxQu884GQoSBxHCIJ+kg8KwYGSg3xSFxT4JEZshHo7rAwgYcXICezizd/cD00SQEu4ddK/860Gp+cwJs7BgoPhuYKIb39LnsI66n1IWCfYBuqc7EPYB4Q+le8cbzOOusEx+EvtBDxPBmO0KrDG51RgPeJ5C0hGV4yHpOoreaCAYqxB+eTaGrtigbYWt5aiGLtof7iVyekCgA6npfh3rfdB71/1ApGFI4q21NXQ0FqDIoIzbrhAMvrQIg3EvOnPkuwufdypaCsMLQkzhqTdpBrSbiqB6HT/aLoyhFa/kBt6h9HE58bf1Kv0lPFDQAoC40Oh0KYKtRbMf1xNZmaLqiSZuwu/F60thOasl+OWTK5LJ+JEuK08WLsTIA9NpDIm78g7tsedthh3tWOO0WOypwClE8MuqgrnKExnHN1YTOpEBfDEXDbRjWmfvfpQPcsqiY/XP2ZYI14/Zr+aR+QPJwx1Gz3sZKTLMay2OHLneDQC9aV+PP0Wu6CDbqIA+Hd0n64jMg+R9t8IjyjggsYDk74cwuIwWVl+Vnk3hAMB2aWAjOEkiVMiFGWZkG9tyt445hp8fCuhkL0vCGZPJFjTLm+FTMG0sZvwrPtVDbZnzpiUorHoPIJzIgzMEYd9s8FnWIqxh+vtlwoDKBbl/k8QM78RsCs7rhjQxqnOzNOClgNrRBhkeUhH4sPC3Bzwdkn8cAF2+r2b+2wtbBSeyta5qvQm/DpEfI0BkN38803pwD7n3vmuOOOk1tm/i6izNfcar//wwAPIiEsNlb8zCabbOLkfEpwU6l94RaCTeVYuPUQFakz+ahqzo24fx1BLxxYdaRJY4BMpr6x1JwdCAqYo0CeIHSV2ieIzNpVxcB/McCAF72Xm2zTgJpK7Qu6Cg5UMf4+Q7LTqt3eB1G1Tn8MVJ98f1xNoKZT2Z7ULkiuUvsEMF67yDHQfUBXv04nBhzz1G1cMZBHQPfZqFWTr3umYmC5YKBq8gu60mIeI9nj0FHdZh2UJm1o21qhYqAVA1W2t6JlvgrFzMl81Kf3SP/Yp2atUzEQGHAQ4IUcR/2D7sxU2b6gW8WJ+oKOVwdbThjwyIebf7LoHX300a3zrtTeipZaOF0YEI4qyrCEyX3VMlVeWW2ZlLg5J69unsOjMfGqyS+TnTDb05SJTXyxDDY8z/Z0pNkUviLsnCvEg1DuGlSyH7rGldqHoqhWmAoMeK+KJJc0SjL2HCB3xeSZOPjggyWNmApApxiImpduihengpZhQCIa98zKBJvuHbgiduCBB+Y5JyvmWjFQqb0VLbVw6jAQuTTLx9ikfJP8g1bf+uTT1E1jUQGq1L6o6K+D98bAoEzPUkSjds9Ulg/R9O57uVSs1L5cVnqm58lol/RaqrYyp73sIJ64kbZ1pie4MMBXal8YPNdR5oQBKWUZ7Q013pncPvvsI6ObBCF5Xt05jbSkG9fz9iW9vEtlcmG0y8rosM2cRB8z1Al8+dvkaS0F/lKZ94TnUU/gJozQ2t18YMDBm1dxJJOOHOyGqJcIxsBzpfYxkFabLCgGpHxy0u62f7zitKBjL63Bqt2+tNZzKc6G0e6Ybeibyktx6hOeU7XbJ4zQ2t3EMRBGex9qZ9hL8xrv4TmTmzgks95hpfZZX8GlD39Qu1frOqYqkG777bf35IZLYN518zzDySefXG37BsYqtXdsofpp8TFw3nnnecttaPDMbrvt5uW8uOl57rnneu66knq5eNVLV+KklkwFBjxZ6yENjzF7RN39tg033NBrKg7YS+DE0nmVyXNUHmMi5D2BuvXWW4/5wnnZ+xIqqdS+hBZzuU7FI8eeUpUUaLXVVluuOOg17+qT74WmWmmaMeDt9FVWWcXbzAlI77F5Pm2aYV4U2KpsXxS010EnjAHPJzuNP+igg4TZnXTSSSjfo4us9wkPM+PdVWqf8QWs4P8PA/R5N2fchBNOm0LuKnpyDFRqr/uhYmC5YKDa7ctlpes8KwYqtdc9UDGwXDBQqX25rHSdZ8VApfa6ByoGlgsGKrUvl5Wu86wYqNRe90DFwHLBwH8An3C3PxaVc3kAAAAASUVORK5CYII=;" vertex="1" parent="1">
          <mxGeometry x="490" y="1330" width="299.36" height="84" as="geometry" />
        </mxCell>
        <mxCell id="SthQR8cLq-xNoR6oxP_u-64" value="&lt;div&gt;longer coherence time&lt;/div&gt;&lt;div&gt;\(\implies\) error rate \(P_e\) is decreased&lt;/div&gt;&amp;nbsp;\(\implies\) longer computing time is obtained" style="text;html=1;align=center;verticalAlign=middle;whiteSpace=wrap;rounded=0;labelBackgroundColor=none;fontColor=#ffffff;fillColor=#76608a;strokeColor=#432D57;" vertex="1" parent="1">
          <mxGeometry x="520" y="1450" width="235" height="70" as="geometry" />
        </mxCell>
      </root>
    </mxGraphModel>
  </diagram>
</mxfile>
